<?xml version="1.0" encoding="UTF-8" standalone="no"?>
<!DOCTYPE svg PUBLIC "-//W3C//DTD SVG 1.1//EN"
 "http://www.w3.org/Graphics/SVG/1.1/DTD/svg11.dtd">
<!-- Generated by graphviz version 14.1.2 (0)
 -->
<!-- Title: acm Pages: 1 -->
<svg width="634pt" height="643pt"
 viewBox="0.00 0.00 634.00 643.00" xmlns="http://www.w3.org/2000/svg" xmlns:xlink="http://www.w3.org/1999/xlink">
<g id="graph0" class="graph" transform="scale(1 1) rotate(0) translate(21.6 621.6)">
<title>acm</title>
<polygon fill="white" stroke="none" points="-21.6,21.6 -21.6,-621.6 612.15,-621.6 612.15,21.6 -21.6,21.6"/>
<g id="clust1" class="cluster">
<title>cluster_stm32</title>
<path fill="#e3f2fd" stroke="#1976d2" stroke-width="1.6" d="M20,-71.75C20,-71.75 201,-71.75 201,-71.75 207,-71.75 213,-77.75 213,-83.75 213,-83.75 213,-474 213,-474 213,-480 207,-486 201,-486 201,-486 20,-486 20,-486 14,-486 8,-480 8,-474 8,-474 8,-83.75 8,-83.75 8,-77.75 14,-71.75 20,-71.75"/>
<text xml:space="preserve" text-anchor="middle" x="110.5" y="-470.6" font-family="Helvetica,sans-Serif" font-weight="bold" font-size="12.00" fill="#1565c0">STM32H755 &#160;&#45; &#160;control + I/O</text>
</g>
<g id="clust2" class="cluster">
<title>cluster_fpga</title>
<path fill="#e8f5e9" stroke="#388e3c" stroke-width="1.6" d="M233,-237.25C233,-237.25 484,-237.25 484,-237.25 490,-237.25 496,-243.25 496,-249.25 496,-249.25 496,-580 496,-580 496,-586 490,-592 484,-592 484,-592 233,-592 233,-592 227,-592 221,-586 221,-580 221,-580 221,-249.25 221,-249.25 221,-243.25 227,-237.25 233,-237.25"/>
<text xml:space="preserve" text-anchor="middle" x="358.5" y="-576.6" font-family="Helvetica,sans-Serif" font-weight="bold" font-size="12.00" fill="#2e7d32">FPGA &#160;&#45; &#160;DSP</text>
</g>
<!-- kb -->
<g id="node1" class="node">
<title>kb</title>
<path fill="#eceff1" stroke="#607d8b" stroke-width="1.2" d="M145.21,-557.75C145.21,-557.75 72.79,-557.75 72.79,-557.75 66.79,-557.75 60.79,-551.75 60.79,-545.75 60.79,-545.75 60.79,-533.75 60.79,-533.75 60.79,-527.75 66.79,-521.75 72.79,-521.75 72.79,-521.75 145.21,-521.75 145.21,-521.75 151.21,-521.75 157.21,-527.75 157.21,-533.75 157.21,-533.75 157.21,-545.75 157.21,-545.75 157.21,-551.75 151.21,-557.75 145.21,-557.75"/>
<text xml:space="preserve" text-anchor="middle" x="109" y="-536.62" font-family="Helvetica,sans-Serif" font-size="10.00">MIDI keyboard</text>
</g>
<!-- midi -->
<g id="node3" class="node">
<title>midi</title>
<path fill="#bbdefb" stroke="#1976d2" stroke-width="1.2" d="M145.21,-451.75C145.21,-451.75 72.79,-451.75 72.79,-451.75 66.79,-451.75 60.79,-445.75 60.79,-439.75 60.79,-439.75 60.79,-427.75 60.79,-427.75 60.79,-421.75 66.79,-415.75 72.79,-415.75 72.79,-415.75 145.21,-415.75 145.21,-415.75 151.21,-415.75 157.21,-421.75 157.21,-427.75 157.21,-427.75 157.21,-439.75 157.21,-439.75 157.21,-445.75 151.21,-451.75 145.21,-451.75"/>
<text xml:space="preserve" text-anchor="middle" x="109" y="-430.62" font-family="Helvetica,sans-Serif" font-size="10.00">USB&#45;MIDI host</text>
</g>
<!-- kb&#45;&gt;midi -->
<g id="edge10" class="edge">
<title>kb&#45;&gt;midi</title>
<path fill="none" stroke="#546e7a" stroke-width="1.1" d="M109,-521.58C109,-505.94 109,-482.52 109,-463.95"/>
<polygon fill="#546e7a" stroke="#546e7a" stroke-width="1.1" points="112.5,-463.96 109,-453.96 105.5,-463.96 112.5,-463.96"/>
<text xml:space="preserve" text-anchor="middle" x="127.38" y="-496.15" font-family="Helvetica,sans-Serif" font-size="8.00">USB&#45;MIDI</text>
</g>
<!-- spk -->
<g id="node2" class="node">
<title>spk</title>
<path fill="#eceff1" stroke="#607d8b" stroke-width="1.2" d="M154.21,-36C154.21,-36 63.79,-36 63.79,-36 57.79,-36 51.79,-30 51.79,-24 51.79,-24 51.79,-12 51.79,-12 51.79,-6 57.79,0 63.79,0 63.79,0 154.21,0 154.21,0 160.21,0 166.21,-6 166.21,-12 166.21,-12 166.21,-24 166.21,-24 166.21,-30 160.21,-36 154.21,-36"/>
<text xml:space="preserve" text-anchor="middle" x="109" y="-14.88" font-family="Helvetica,sans-Serif" font-size="10.00">powered speakers</text>
</g>
<!-- alloc -->
<g id="node4" class="node">
<title>alloc</title>
<path fill="#bbdefb" stroke="#1976d2" stroke-width="1.2" d="M145.96,-367C145.96,-367 72.04,-367 72.04,-367 66.04,-367 60.04,-361 60.04,-355 60.04,-355 60.04,-343 60.04,-343 60.04,-337 66.04,-331 72.04,-331 72.04,-331 145.96,-331 145.96,-331 151.96,-331 157.96,-337 157.96,-343 157.96,-343 157.96,-355 157.96,-355 157.96,-361 151.96,-367 145.96,-367"/>
<text xml:space="preserve" text-anchor="middle" x="109" y="-345.88" font-family="Helvetica,sans-Serif" font-size="10.00">voice allocator</text>
</g>
<!-- midi&#45;&gt;alloc -->
<g id="edge1" class="edge">
<title>midi&#45;&gt;alloc</title>
<path fill="none" stroke="#546e7a" stroke-width="1.1" d="M109,-415.2C109,-404.67 109,-391.01 109,-378.92"/>
<polygon fill="#546e7a" stroke="#546e7a" stroke-width="1.1" points="112.5,-379.19 109,-369.19 105.5,-379.19 112.5,-379.19"/>
<text xml:space="preserve" text-anchor="middle" x="120.62" y="-388.65" font-family="Helvetica,sans-Serif" font-size="8.00">notes</text>
</g>
<!-- fmcm -->
<g id="node5" class="node">
<title>fmcm</title>
<path fill="#bbdefb" stroke="#1976d2" stroke-width="1.2" d="M145.59,-285.25C145.59,-285.25 72.41,-285.25 72.41,-285.25 66.41,-285.25 60.41,-279.25 60.41,-273.25 60.41,-273.25 60.41,-261.25 60.41,-261.25 60.41,-255.25 66.41,-249.25 72.41,-249.25 72.41,-249.25 145.59,-249.25 145.59,-249.25 151.59,-249.25 157.59,-255.25 157.59,-261.25 157.59,-261.25 157.59,-273.25 157.59,-273.25 157.59,-279.25 151.59,-285.25 145.59,-285.25"/>
<text xml:space="preserve" text-anchor="middle" x="109" y="-264.12" font-family="Helvetica,sans-Serif" font-size="10.00">FMC controller</text>
</g>
<!-- alloc&#45;&gt;fmcm -->
<g id="edge2" class="edge">
<title>alloc&#45;&gt;fmcm</title>
<path fill="none" stroke="#546e7a" stroke-width="1.1" d="M109,-330.7C109,-320.94 109,-308.5 109,-297.29"/>
<polygon fill="#546e7a" stroke="#546e7a" stroke-width="1.1" points="112.5,-297.46 109,-287.46 105.5,-297.46 112.5,-297.46"/>
</g>
<!-- dma -->
<g id="node6" class="node">
<title>dma</title>
<path fill="#bbdefb" stroke="#1976d2" stroke-width="1.2" d="M140.71,-201.5C140.71,-201.5 77.29,-201.5 77.29,-201.5 71.29,-201.5 65.29,-195.5 65.29,-189.5 65.29,-189.5 65.29,-177.5 65.29,-177.5 65.29,-171.5 71.29,-165.5 77.29,-165.5 77.29,-165.5 140.71,-165.5 140.71,-165.5 146.71,-165.5 152.71,-171.5 152.71,-177.5 152.71,-177.5 152.71,-189.5 152.71,-189.5 152.71,-195.5 146.71,-201.5 140.71,-201.5"/>
<text xml:space="preserve" text-anchor="middle" x="109" y="-180.38" font-family="Helvetica,sans-Serif" font-size="10.00">TIM6 + DMA</text>
</g>
<!-- fmcm&#45;&gt;dma -->
<g id="edge3" class="edge">
<title>fmcm&#45;&gt;dma</title>
<path fill="none" stroke="#546e7a" stroke-width="1.1" d="M109,-248.91C109,-238.69 109,-225.48 109,-213.68"/>
<polygon fill="#546e7a" stroke="#546e7a" stroke-width="1.1" points="112.5,-213.76 109,-203.76 105.5,-213.76 112.5,-213.76"/>
<text xml:space="preserve" text-anchor="middle" x="134.88" y="-221.65" font-family="Helvetica,sans-Serif" font-size="8.00">dac samples</text>
</g>
<!-- bridge -->
<g id="node8" class="node">
<title>bridge</title>
<path fill="#c8e6c9" stroke="#388e3c" stroke-width="1.2" d="M344.96,-557.75C344.96,-557.75 253.04,-557.75 253.04,-557.75 247.04,-557.75 241.04,-551.75 241.04,-545.75 241.04,-545.75 241.04,-533.75 241.04,-533.75 241.04,-527.75 247.04,-521.75 253.04,-521.75 253.04,-521.75 344.96,-521.75 344.96,-521.75 350.96,-521.75 356.96,-527.75 356.96,-533.75 356.96,-533.75 356.96,-545.75 356.96,-545.75 356.96,-551.75 350.96,-557.75 344.96,-557.75"/>
<text xml:space="preserve" text-anchor="middle" x="299" y="-536.62" font-family="Helvetica,sans-Serif" font-size="10.00">FMC &#45;&gt; WB bridge</text>
</g>
<!-- fmcm&#45;&gt;bridge -->
<g id="edge12" class="edge">
<title>fmcm&#45;&gt;bridge</title>
<path fill="none" stroke="#e65100" stroke-width="2.4" d="M171.28,-279.07C185.91,-281.35 201.48,-283.58 216,-285.25 271.33,-291.63 415.09,-280.66 466,-303.25 482.31,-310.49 487.99,-314.59 495,-331 529.73,-412.3 421.01,-481.13 351.81,-515.42"/>
<polygon fill="#e65100" stroke="#e65100" stroke-width="2.4" points="172.17,-275.66 161.74,-277.54 171.06,-282.58 172.17,-275.66"/>
<polygon fill="#e65100" stroke="#e65100" stroke-width="2.4" points="350.57,-512.13 343.08,-519.64 353.61,-518.44 350.57,-512.13"/>
<text xml:space="preserve" text-anchor="middle" x="544.42" y="-388.25" font-family="Helvetica,sans-Serif" font-size="10.00" fill="#e65100">FMC: 16&#45;bit muxed</text>
</g>
<!-- dac -->
<g id="node7" class="node">
<title>dac</title>
<path fill="#bbdefb" stroke="#1976d2" stroke-width="1.2" d="M137.71,-119.75C137.71,-119.75 80.29,-119.75 80.29,-119.75 74.29,-119.75 68.29,-113.75 68.29,-107.75 68.29,-107.75 68.29,-95.75 68.29,-95.75 68.29,-89.75 74.29,-83.75 80.29,-83.75 80.29,-83.75 137.71,-83.75 137.71,-83.75 143.71,-83.75 149.71,-89.75 149.71,-95.75 149.71,-95.75 149.71,-107.75 149.71,-107.75 149.71,-113.75 143.71,-119.75 137.71,-119.75"/>
<text xml:space="preserve" text-anchor="middle" x="109" y="-98.62" font-family="Helvetica,sans-Serif" font-size="10.00">DAC1 (PA4)</text>
</g>
<!-- dma&#45;&gt;dac -->
<g id="edge4" class="edge">
<title>dma&#45;&gt;dac</title>
<path fill="none" stroke="#546e7a" stroke-width="1.1" d="M109,-165.2C109,-155.44 109,-143 109,-131.79"/>
<polygon fill="#546e7a" stroke="#546e7a" stroke-width="1.1" points="112.5,-131.96 109,-121.96 105.5,-131.96 112.5,-131.96"/>
<text xml:space="preserve" text-anchor="middle" x="121" y="-139.9" font-family="Helvetica,sans-Serif" font-size="8.00">12&#45;bit</text>
</g>
<!-- dac&#45;&gt;spk -->
<g id="edge11" class="edge">
<title>dac&#45;&gt;spk</title>
<path fill="none" stroke="#546e7a" stroke-width="1.1" d="M109,-83.41C109,-73.19 109,-59.98 109,-48.18"/>
<polygon fill="#546e7a" stroke="#546e7a" stroke-width="1.1" points="112.5,-48.26 109,-38.26 105.5,-48.26 112.5,-48.26"/>
<text xml:space="preserve" text-anchor="middle" x="123.25" y="-56.15" font-family="Helvetica,sans-Serif" font-size="8.00">analog</text>
</g>
<!-- dec -->
<g id="node9" class="node">
<title>dec</title>
<path fill="#c8e6c9" stroke="#388e3c" stroke-width="1.2" d="M338.21,-451.75C338.21,-451.75 259.79,-451.75 259.79,-451.75 253.79,-451.75 247.79,-445.75 247.79,-439.75 247.79,-439.75 247.79,-427.75 247.79,-427.75 247.79,-421.75 253.79,-415.75 259.79,-415.75 259.79,-415.75 338.21,-415.75 338.21,-415.75 344.21,-415.75 350.21,-421.75 350.21,-427.75 350.21,-427.75 350.21,-439.75 350.21,-439.75 350.21,-445.75 344.21,-451.75 338.21,-451.75"/>
<text xml:space="preserve" text-anchor="middle" x="299" y="-430.62" font-family="Helvetica,sans-Serif" font-size="10.00">address decode</text>
</g>
<!-- bridge&#45;&gt;dec -->
<g id="edge5" class="edge">
<title>bridge&#45;&gt;dec</title>
<path fill="none" stroke="#6a1b9a" stroke-width="1.9" d="M299,-521.58C299,-506.24 299,-483.42 299,-465.02"/>
<polygon fill="#6a1b9a" stroke="#6a1b9a" stroke-width="1.9" points="302.5,-465.17 299,-455.17 295.5,-465.17 302.5,-465.17"/>
<text xml:space="preserve" text-anchor="middle" x="326" y="-496.15" font-family="Helvetica,sans-Serif" font-size="8.00" fill="#6a1b9a">Wishbone&#45;16</text>
</g>
<!-- core -->
<g id="node10" class="node">
<title>core</title>
<path fill="#c8e6c9" stroke="#388e3c" stroke-width="1.2" d="M291.46,-367C291.46,-367 244.54,-367 244.54,-367 238.54,-367 232.54,-361 232.54,-355 232.54,-355 232.54,-343 232.54,-343 232.54,-337 238.54,-331 244.54,-331 244.54,-331 291.46,-331 291.46,-331 297.46,-331 303.46,-337 303.46,-343 303.46,-343 303.46,-355 303.46,-355 303.46,-361 297.46,-367 291.46,-367"/>
<text xml:space="preserve" text-anchor="middle" x="268" y="-345.88" font-family="Helvetica,sans-Serif" font-size="10.00">core regs</text>
</g>
<!-- dec&#45;&gt;core -->
<g id="edge6" class="edge">
<title>dec&#45;&gt;core</title>
<path fill="none" stroke="#546e7a" stroke-width="1.1" d="M292.43,-415.2C288.4,-404.45 283.15,-390.44 278.55,-378.17"/>
<polygon fill="#546e7a" stroke="#546e7a" stroke-width="1.1" points="281.93,-377.22 275.15,-369.08 275.38,-379.68 281.93,-377.22"/>
<text xml:space="preserve" text-anchor="middle" x="291.36" y="-388.65" font-family="Helvetica,sans-Serif" font-size="8.00">wb</text>
</g>
<!-- audio -->
<g id="node11" class="node">
<title>audio</title>
<path fill="#c8e6c9" stroke="#388e3c" stroke-width="1.2" d="M472.33,-367C472.33,-367 337.67,-367 337.67,-367 331.67,-367 325.67,-361 325.67,-355 325.67,-355 325.67,-343 325.67,-343 325.67,-337 331.67,-331 337.67,-331 337.67,-331 472.33,-331 472.33,-331 478.33,-331 484.33,-337 484.33,-343 484.33,-343 484.33,-355 484.33,-355 484.33,-361 478.33,-367 472.33,-367"/>
<text xml:space="preserve" text-anchor="middle" x="405" y="-345.88" font-family="Helvetica,sans-Serif" font-size="10.00">audio regs (voice[8] + dac)</text>
</g>
<!-- dec&#45;&gt;audio -->
<g id="edge7" class="edge">
<title>dec&#45;&gt;audio</title>
<path fill="none" stroke="#546e7a" stroke-width="1.1" d="M311.33,-415.45C318.85,-405.71 329.1,-393.77 340,-385 345.18,-380.83 350.93,-376.91 356.81,-373.32"/>
<polygon fill="#546e7a" stroke="#546e7a" stroke-width="1.1" points="358.39,-376.45 365.3,-368.41 354.89,-370.38 358.39,-376.45"/>
<text xml:space="preserve" text-anchor="middle" x="346" y="-388.65" font-family="Helvetica,sans-Serif" font-size="8.00">wb</text>
</g>
<!-- dds -->
<g id="node12" class="node">
<title>dds</title>
<path fill="#c8e6c9" stroke="#388e3c" stroke-width="1.2" d="M416.21,-285.25C416.21,-285.25 295.79,-285.25 295.79,-285.25 289.79,-285.25 283.79,-279.25 283.79,-273.25 283.79,-273.25 283.79,-261.25 283.79,-261.25 283.79,-255.25 289.79,-249.25 295.79,-249.25 295.79,-249.25 416.21,-249.25 416.21,-249.25 422.21,-249.25 428.21,-255.25 428.21,-261.25 428.21,-261.25 428.21,-273.25 428.21,-273.25 428.21,-279.25 422.21,-285.25 416.21,-285.25"/>
<text xml:space="preserve" text-anchor="middle" x="356" y="-264.12" font-family="Helvetica,sans-Serif" font-size="10.00">dds_synth (8 osc + mix)</text>
</g>
<!-- audio&#45;&gt;dds -->
<g id="edge8" class="edge">
<title>audio&#45;&gt;dds</title>
<path fill="none" stroke="#546e7a" stroke-width="1.1" d="M371.68,-330.43C365.58,-325.62 360.04,-319.82 356.5,-313 354.02,-308.22 352.85,-302.74 352.45,-297.29"/>
<polygon fill="#546e7a" stroke="#546e7a" stroke-width="1.1" points="355.95,-297.43 352.61,-287.38 348.95,-297.32 355.95,-297.43"/>
<text xml:space="preserve" text-anchor="middle" x="399.25" y="-305.4" font-family="Helvetica,sans-Serif" font-size="8.00">freq/gate/wave/level</text>
</g>
<!-- dds&#45;&gt;audio -->
<g id="edge9" class="edge">
<title>dds&#45;&gt;audio</title>
<path fill="none" stroke="#546e7a" stroke-width="1.1" stroke-dasharray="5,2" d="M423.83,-285.63C431.36,-290.2 438.08,-295.97 443,-303.25 447.29,-309.61 445.78,-316.09 441.5,-322.08"/>
<polygon fill="#546e7a" stroke="#546e7a" stroke-width="1.1" points="439.08,-319.55 434.75,-329.22 444.17,-324.36 439.08,-319.55"/>
<text xml:space="preserve" text-anchor="middle" x="453.06" y="-305.4" font-family="Helvetica,sans-Serif" font-size="8.00">dac</text>
</g>
</g>
</svg>
