<?xml version="1.0" encoding="UTF-8" standalone="no"?>
<!DOCTYPE svg PUBLIC "-//W3C//DTD SVG 1.1//EN"
 "http://www.w3.org/Graphics/SVG/1.1/DTD/svg11.dtd">
<!-- Generated by graphviz version 14.1.2 (0)
 -->
<!-- Title: acm Pages: 1 -->
<svg width="1876pt" height="361pt"
 viewBox="0.00 0.00 1876.00 361.00" xmlns="http://www.w3.org/2000/svg" xmlns:xlink="http://www.w3.org/1999/xlink">
<g id="graph0" class="graph" transform="scale(1 1) rotate(0) translate(21.6 339.6)">
<title>acm</title>
<g id="clust1" class="cluster">
<title>cluster_stm32</title>
<path fill="#e3f2fd" stroke="#1976d2" stroke-width="1.6" d="M189.17,-163C189.17,-163 1235.44,-163 1235.44,-163 1241.44,-163 1247.44,-169 1247.44,-175 1247.44,-175 1247.44,-298 1247.44,-298 1247.44,-304 1241.44,-310 1235.44,-310 1235.44,-310 189.17,-310 189.17,-310 183.17,-310 177.17,-304 177.17,-298 177.17,-298 177.17,-175 177.17,-175 177.17,-169 183.17,-163 189.17,-163"/>
<text xml:space="preserve" text-anchor="middle" x="712.31" y="-294.6" font-family="Helvetica,sans-Serif" font-weight="bold" font-size="12.00" fill="#1565c0">STM32H755 &#160;&#45; &#160;control + I/O</text>
</g>
<g id="clust2" class="cluster">
<title>cluster_fpga</title>
<path fill="#e8f5e9" stroke="#388e3c" stroke-width="1.6" d="M906.35,-8C906.35,-8 1812.78,-8 1812.78,-8 1818.78,-8 1824.78,-14 1824.78,-20 1824.78,-20 1824.78,-143 1824.78,-143 1824.78,-149 1818.78,-155 1812.78,-155 1812.78,-155 906.35,-155 906.35,-155 900.35,-155 894.35,-149 894.35,-143 894.35,-143 894.35,-20 894.35,-20 894.35,-14 900.35,-8 906.35,-8"/>
<text xml:space="preserve" text-anchor="middle" x="1359.57" y="-139.6" font-family="Helvetica,sans-Serif" font-weight="bold" font-size="12.00" fill="#2e7d32">FPGA &#160;&#45; &#160;DSP</text>
</g>
<!-- kb -->
<g id="node1" class="node">
<title>kb</title>
<path fill="#eceff1" stroke="#607d8b" stroke-width="1.2" d="M84.42,-220C84.42,-220 12,-220 12,-220 6,-220 0,-214 0,-208 0,-208 0,-196 0,-196 0,-190 6,-184 12,-184 12,-184 84.42,-184 84.42,-184 90.42,-184 96.42,-190 96.42,-196 96.42,-196 96.42,-208 96.42,-208 96.42,-214 90.42,-220 84.42,-220"/>
<text xml:space="preserve" text-anchor="middle" x="48.21" y="-198.88" font-family="Helvetica,sans-Serif" font-size="10.00">MIDI keyboard</text>
</g>
<!-- usb -->
<g id="node3" class="node">
<title>usb</title>
<path fill="#bbdefb" stroke="#1976d2" stroke-width="1.2" d="M275.59,-220C275.59,-220 203.17,-220 203.17,-220 197.17,-220 191.17,-214 191.17,-208 191.17,-208 191.17,-196 191.17,-196 191.17,-190 197.17,-184 203.17,-184 203.17,-184 275.59,-184 275.59,-184 281.59,-184 287.59,-190 287.59,-196 287.59,-196 287.59,-208 287.59,-208 287.59,-214 281.59,-220 275.59,-220"/>
<text xml:space="preserve" text-anchor="middle" x="239.38" y="-198.88" font-family="Helvetica,sans-Serif" font-size="10.00">USB&#45;MIDI host</text>
</g>
<!-- kb&#45;&gt;usb -->
<g id="edge1" class="edge">
<title>kb&#45;&gt;usb</title>
<path fill="none" stroke="#546e7a" stroke-width="1.1" d="M96.95,-202C121.93,-202 152.74,-202 179.22,-202"/>
<polygon fill="#546e7a" stroke="#546e7a" stroke-width="1.1" points="178.99,-205.5 188.99,-202 178.99,-198.5 178.99,-205.5"/>
<text xml:space="preserve" text-anchor="middle" x="143.8" y="-204.15" font-family="Helvetica,sans-Serif" font-size="8.00" fill="#37474f">USB&#45;MIDI</text>
</g>
<!-- spk -->
<g id="node2" class="node">
<title>spk</title>
<path fill="#eceff1" stroke="#607d8b" stroke-width="1.2" d="M1488.74,-223C1488.74,-223 1398.32,-223 1398.32,-223 1392.32,-223 1386.32,-217 1386.32,-211 1386.32,-211 1386.32,-199 1386.32,-199 1386.32,-193 1392.32,-187 1398.32,-187 1398.32,-187 1488.74,-187 1488.74,-187 1494.74,-187 1500.74,-193 1500.74,-199 1500.74,-199 1500.74,-211 1500.74,-211 1500.74,-217 1494.74,-223 1488.74,-223"/>
<text xml:space="preserve" text-anchor="middle" x="1443.53" y="-201.88" font-family="Helvetica,sans-Serif" font-size="10.00">powered speakers</text>
</g>
<!-- parse -->
<g id="node4" class="node">
<title>parse</title>
<path fill="#bbdefb" stroke="#1976d2" stroke-width="1.2" d="M410.76,-220C410.76,-220 358.59,-220 358.59,-220 352.59,-220 346.59,-214 346.59,-208 346.59,-208 346.59,-196 346.59,-196 346.59,-190 352.59,-184 358.59,-184 358.59,-184 410.76,-184 410.76,-184 416.76,-184 422.76,-190 422.76,-196 422.76,-196 422.76,-208 422.76,-208 422.76,-214 416.76,-220 410.76,-220"/>
<text xml:space="preserve" text-anchor="middle" x="384.68" y="-198.88" font-family="Helvetica,sans-Serif" font-size="10.00">usbh_midi</text>
</g>
<!-- usb&#45;&gt;parse -->
<g id="edge2" class="edge">
<title>usb&#45;&gt;parse</title>
<path fill="none" stroke="#546e7a" stroke-width="1.1" d="M288.1,-202C303,-202 319.46,-202 334.47,-202"/>
<polygon fill="#546e7a" stroke="#546e7a" stroke-width="1.1" points="334.47,-205.5 344.47,-202 334.47,-198.5 334.47,-205.5"/>
</g>
<!-- alloc -->
<g id="node5" class="node">
<title>alloc</title>
<path fill="#bbdefb" stroke="#1976d2" stroke-width="1.2" d="M589.93,-218C589.93,-218 516.01,-218 516.01,-218 510.01,-218 504.01,-212 504.01,-206 504.01,-206 504.01,-194 504.01,-194 504.01,-188 510.01,-182 516.01,-182 516.01,-182 589.93,-182 589.93,-182 595.93,-182 601.93,-188 601.93,-194 601.93,-194 601.93,-206 601.93,-206 601.93,-212 595.93,-218 589.93,-218"/>
<text xml:space="preserve" text-anchor="middle" x="552.97" y="-196.88" font-family="Helvetica,sans-Serif" font-size="10.00">voice allocator</text>
</g>
<!-- parse&#45;&gt;alloc -->
<g id="edge3" class="edge">
<title>parse&#45;&gt;alloc</title>
<path fill="none" stroke="#546e7a" stroke-width="1.1" d="M422.99,-201.55C443.39,-201.31 469.14,-201 492.26,-200.72"/>
<polygon fill="#546e7a" stroke="#546e7a" stroke-width="1.1" points="492.09,-204.22 502.05,-200.6 492.01,-197.22 492.09,-204.22"/>
<text xml:space="preserve" text-anchor="middle" x="463.39" y="-203.33" font-family="Helvetica,sans-Serif" font-size="8.00">notes</text>
</g>
<!-- fmcm -->
<g id="node6" class="node">
<title>fmcm</title>
<path fill="#bbdefb" stroke="#1976d2" stroke-width="1.2" d="M746.1,-213C746.1,-213 672.93,-213 672.93,-213 666.93,-213 660.93,-207 660.93,-201 660.93,-201 660.93,-189 660.93,-189 660.93,-183 666.93,-177 672.93,-177 672.93,-177 746.1,-177 746.1,-177 752.1,-177 758.1,-183 758.1,-189 758.1,-189 758.1,-201 758.1,-201 758.1,-207 752.1,-213 746.1,-213"/>
<text xml:space="preserve" text-anchor="middle" x="709.52" y="-191.88" font-family="Helvetica,sans-Serif" font-size="10.00">FMC controller</text>
</g>
<!-- alloc&#45;&gt;fmcm -->
<g id="edge4" class="edge">
<title>alloc&#45;&gt;fmcm</title>
<path fill="none" stroke="#546e7a" stroke-width="1.1" d="M602.44,-198.43C617.19,-197.95 633.56,-197.42 648.95,-196.93"/>
<polygon fill="#546e7a" stroke="#546e7a" stroke-width="1.1" points="648.93,-200.43 658.81,-196.61 648.71,-193.43 648.93,-200.43"/>
</g>
<!-- dma -->
<g id="node8" class="node">
<title>dma</title>
<path fill="#bbdefb" stroke="#1976d2" stroke-width="1.2" d="M981.31,-223C981.31,-223 951.31,-223 951.31,-223 945.31,-223 939.31,-217 939.31,-211 939.31,-211 939.31,-199 939.31,-199 939.31,-193 945.31,-187 951.31,-187 951.31,-187 981.31,-187 981.31,-187 987.31,-187 993.31,-193 993.31,-199 993.31,-199 993.31,-211 993.31,-211 993.31,-217 987.31,-223 981.31,-223"/>
<text xml:space="preserve" text-anchor="middle" x="966.31" y="-201.88" font-family="Helvetica,sans-Serif" font-size="10.00">DMA</text>
</g>
<!-- fmcm&#45;&gt;dma -->
<g id="edge11" class="edge">
<title>fmcm&#45;&gt;dma</title>
<path fill="none" stroke="#546e7a" stroke-width="1.1" d="M758.44,-196.88C807.43,-198.8 882.53,-201.75 927.49,-203.52"/>
<polygon fill="#546e7a" stroke="#546e7a" stroke-width="1.1" points="927.26,-207.01 937.39,-203.9 927.53,-200.01 927.26,-207.01"/>
<text xml:space="preserve" text-anchor="middle" x="833.23" y="-203.63" font-family="Helvetica,sans-Serif" font-size="8.00">dac samples</text>
</g>
<!-- bridge -->
<g id="node10" class="node">
<title>bridge</title>
<path fill="#c8e6c9" stroke="#388e3c" stroke-width="1.2" d="M1012.27,-119C1012.27,-119 920.35,-119 920.35,-119 914.35,-119 908.35,-113 908.35,-107 908.35,-107 908.35,-95 908.35,-95 908.35,-89 914.35,-83 920.35,-83 920.35,-83 1012.27,-83 1012.27,-83 1018.27,-83 1024.27,-89 1024.27,-95 1024.27,-95 1024.27,-107 1024.27,-107 1024.27,-113 1018.27,-119 1012.27,-119"/>
<text xml:space="preserve" text-anchor="middle" x="966.31" y="-97.88" font-family="Helvetica,sans-Serif" font-size="10.00">FMC &#45;&gt; WB bridge</text>
</g>
<!-- fmcm&#45;&gt;bridge -->
<g id="edge5" class="edge">
<title>fmcm&#45;&gt;bridge</title>
<path fill="none" stroke="#e65100" stroke-width="2.4" d="M770.98,-172.69C810.6,-158.07 862.29,-139.01 902.4,-124.21"/>
<polygon fill="#e65100" stroke="#e65100" stroke-width="2.4" points="770.02,-169.32 761.85,-176.06 772.44,-175.88 770.02,-169.32"/>
<polygon fill="#e65100" stroke="#e65100" stroke-width="2.4" points="903.41,-127.57 911.58,-120.82 900.98,-121 903.41,-127.57"/>
<text xml:space="preserve" text-anchor="middle" x="833.23" y="-167.85" font-family="Helvetica,sans-Serif" font-size="10.00" fill="#e65100">FMC: 16&#45;bit muxed</text>
</g>
<!-- tim -->
<g id="node7" class="node">
<title>tim</title>
<path fill="#bbdefb" stroke="#1976d2" stroke-width="1.2" d="M724.52,-274C724.52,-274 694.52,-274 694.52,-274 688.52,-274 682.52,-268 682.52,-262 682.52,-262 682.52,-250 682.52,-250 682.52,-244 688.52,-238 694.52,-238 694.52,-238 724.52,-238 724.52,-238 730.52,-238 736.52,-244 736.52,-250 736.52,-250 736.52,-262 736.52,-262 736.52,-268 730.52,-274 724.52,-274"/>
<text xml:space="preserve" text-anchor="middle" x="709.52" y="-252.88" font-family="Helvetica,sans-Serif" font-size="10.00">TIM6</text>
</g>
<!-- tim&#45;&gt;dma -->
<g id="edge12" class="edge">
<title>tim&#45;&gt;dma</title>
<path fill="none" stroke="#546e7a" stroke-width="1.1" d="M736.82,-250.73C782.21,-241.65 875.39,-223 927.65,-212.54"/>
<polygon fill="#546e7a" stroke="#546e7a" stroke-width="1.1" points="928.01,-216.04 937.13,-210.64 926.64,-209.17 928.01,-216.04"/>
<text xml:space="preserve" text-anchor="middle" x="833.23" y="-241.65" font-family="Helvetica,sans-Serif" font-size="8.00">48 kHz</text>
</g>
<!-- dac -->
<g id="node9" class="node">
<title>dac</title>
<path fill="#bbdefb" stroke="#1976d2" stroke-width="1.2" d="M1221.44,-223C1221.44,-223 1164.02,-223 1164.02,-223 1158.02,-223 1152.02,-217 1152.02,-211 1152.02,-211 1152.02,-199 1152.02,-199 1152.02,-193 1158.02,-187 1164.02,-187 1164.02,-187 1221.44,-187 1221.44,-187 1227.44,-187 1233.44,-193 1233.44,-199 1233.44,-199 1233.44,-211 1233.44,-211 1233.44,-217 1227.44,-223 1221.44,-223"/>
<text xml:space="preserve" text-anchor="middle" x="1192.73" y="-201.88" font-family="Helvetica,sans-Serif" font-size="10.00">DAC1 (PA4)</text>
</g>
<!-- dma&#45;&gt;dac -->
<g id="edge13" class="edge">
<title>dma&#45;&gt;dac</title>
<path fill="none" stroke="#546e7a" stroke-width="1.1" d="M993.49,-205C1029.34,-205 1094.45,-205 1140.25,-205"/>
<polygon fill="#546e7a" stroke="#546e7a" stroke-width="1.1" points="1140.08,-208.5 1150.08,-205 1140.08,-201.5 1140.08,-208.5"/>
<text xml:space="preserve" text-anchor="middle" x="1082.9" y="-207.15" font-family="Helvetica,sans-Serif" font-size="8.00">12&#45;bit</text>
</g>
<!-- dac&#45;&gt;spk -->
<g id="edge14" class="edge">
<title>dac&#45;&gt;spk</title>
<path fill="none" stroke="#546e7a" stroke-width="1.1" d="M1233.98,-205C1271.93,-205 1329.56,-205 1374.63,-205"/>
<polygon fill="#546e7a" stroke="#546e7a" stroke-width="1.1" points="1374.43,-208.5 1384.43,-205 1374.43,-201.5 1374.43,-208.5"/>
<text xml:space="preserve" text-anchor="middle" x="1304.07" y="-207.15" font-family="Helvetica,sans-Serif" font-size="8.00" fill="#37474f">analog line&#45;out</text>
</g>
<!-- dec -->
<g id="node11" class="node">
<title>dec</title>
<path fill="#c8e6c9" stroke="#388e3c" stroke-width="1.2" d="M1231.94,-119C1231.94,-119 1153.52,-119 1153.52,-119 1147.52,-119 1141.52,-113 1141.52,-107 1141.52,-107 1141.52,-95 1141.52,-95 1141.52,-89 1147.52,-83 1153.52,-83 1153.52,-83 1231.94,-83 1231.94,-83 1237.94,-83 1243.94,-89 1243.94,-95 1243.94,-95 1243.94,-107 1243.94,-107 1243.94,-113 1237.94,-119 1231.94,-119"/>
<text xml:space="preserve" text-anchor="middle" x="1192.73" y="-97.88" font-family="Helvetica,sans-Serif" font-size="10.00">address decode</text>
</g>
<!-- bridge&#45;&gt;dec -->
<g id="edge6" class="edge">
<title>bridge&#45;&gt;dec</title>
<path fill="none" stroke="#6a1b9a" stroke-width="1.9" d="M1024.81,-101C1056.57,-101 1096.07,-101 1128.67,-101"/>
<polygon fill="#6a1b9a" stroke="#6a1b9a" stroke-width="1.9" points="1128.38,-104.5 1138.38,-101 1128.38,-97.5 1128.38,-104.5"/>
<text xml:space="preserve" text-anchor="middle" x="1082.9" y="-103.7" font-family="Helvetica,sans-Serif" font-size="9.00" fill="#6a1b9a">Wishbone&#45;16</text>
</g>
<!-- core -->
<g id="node12" class="node">
<title>core</title>
<path fill="#c8e6c9" stroke="#388e3c" stroke-width="1.2" d="M1466.99,-58C1466.99,-58 1420.07,-58 1420.07,-58 1414.07,-58 1408.07,-52 1408.07,-46 1408.07,-46 1408.07,-34 1408.07,-34 1408.07,-28 1414.07,-22 1420.07,-22 1420.07,-22 1466.99,-22 1466.99,-22 1472.99,-22 1478.99,-28 1478.99,-34 1478.99,-34 1478.99,-46 1478.99,-46 1478.99,-52 1472.99,-58 1466.99,-58"/>
<text xml:space="preserve" text-anchor="middle" x="1443.53" y="-36.88" font-family="Helvetica,sans-Serif" font-size="10.00">core regs</text>
</g>
<!-- dec&#45;&gt;core -->
<g id="edge7" class="edge">
<title>dec&#45;&gt;core</title>
<path fill="none" stroke="#546e7a" stroke-width="1.1" d="M1244.38,-88.58C1288.89,-77.67 1353.11,-61.92 1396.26,-51.34"/>
<polygon fill="#546e7a" stroke="#546e7a" stroke-width="1.1" points="1397.07,-54.75 1405.95,-48.97 1395.4,-47.95 1397.07,-54.75"/>
<text xml:space="preserve" text-anchor="middle" x="1304.07" y="-83.42" font-family="Helvetica,sans-Serif" font-size="8.00">wb</text>
</g>
<!-- audio -->
<g id="node13" class="node">
<title>audio</title>
<path fill="#c8e6c9" stroke="#388e3c" stroke-width="1.2" d="M1510.86,-119C1510.86,-119 1376.19,-119 1376.19,-119 1370.19,-119 1364.19,-113 1364.19,-107 1364.19,-107 1364.19,-95 1364.19,-95 1364.19,-89 1370.19,-83 1376.19,-83 1376.19,-83 1510.86,-83 1510.86,-83 1516.86,-83 1522.86,-89 1522.86,-95 1522.86,-95 1522.86,-107 1522.86,-107 1522.86,-113 1516.86,-119 1510.86,-119"/>
<text xml:space="preserve" text-anchor="middle" x="1443.53" y="-97.88" font-family="Helvetica,sans-Serif" font-size="10.00">audio regs (voice[8] + dac)</text>
</g>
<!-- dec&#45;&gt;audio -->
<g id="edge8" class="edge">
<title>dec&#45;&gt;audio</title>
<path fill="none" stroke="#546e7a" stroke-width="1.1" d="M1244.38,-101C1275.4,-101 1316.01,-101 1352.38,-101"/>
<polygon fill="#546e7a" stroke="#546e7a" stroke-width="1.1" points="1352.35,-104.5 1362.35,-101 1352.35,-97.5 1352.35,-104.5"/>
<text xml:space="preserve" text-anchor="middle" x="1304.07" y="-103.15" font-family="Helvetica,sans-Serif" font-size="8.00">wb</text>
</g>
<!-- dds -->
<g id="node14" class="node">
<title>dds</title>
<path fill="#c8e6c9" stroke="#388e3c" stroke-width="1.2" d="M1798.78,-87C1798.78,-87 1678.36,-87 1678.36,-87 1672.36,-87 1666.36,-81 1666.36,-75 1666.36,-75 1666.36,-63 1666.36,-63 1666.36,-57 1672.36,-51 1678.36,-51 1678.36,-51 1798.78,-51 1798.78,-51 1804.78,-51 1810.78,-57 1810.78,-63 1810.78,-63 1810.78,-75 1810.78,-75 1810.78,-81 1804.78,-87 1798.78,-87"/>
<text xml:space="preserve" text-anchor="middle" x="1738.57" y="-65.88" font-family="Helvetica,sans-Serif" font-size="10.00">dds_synth (8 osc + mix)</text>
</g>
<!-- audio&#45;&gt;dds -->
<g id="edge9" class="edge">
<title>audio&#45;&gt;dds</title>
<path fill="none" stroke="#546e7a" stroke-width="1.1" d="M1496.26,-82.44C1513.69,-77.07 1533.4,-71.94 1551.86,-69.25 1585.11,-64.41 1622.06,-63.47 1654.19,-64.06"/>
<polygon fill="#546e7a" stroke="#546e7a" stroke-width="1.1" points="1654.04,-67.55 1664.13,-64.3 1654.21,-60.56 1654.04,-67.55"/>
<text xml:space="preserve" text-anchor="middle" x="1594.61" y="-71.4" font-family="Helvetica,sans-Serif" font-size="8.00">freq/gate/wave/level</text>
</g>
<!-- dds&#45;&gt;audio -->
<g id="edge10" class="edge">
<title>dds&#45;&gt;audio</title>
<path fill="none" stroke="#546e7a" stroke-width="1.1" stroke-dasharray="5,2" d="M1665.86,-76.88C1656.28,-77.93 1646.58,-78.99 1637.36,-80 1603.82,-83.67 1567,-87.68 1534.6,-91.21"/>
<polygon fill="#546e7a" stroke="#546e7a" stroke-width="1.1" points="1534.55,-87.69 1524.99,-92.25 1535.31,-94.65 1534.55,-87.69"/>
<text xml:space="preserve" text-anchor="middle" x="1594.61" y="-91.38" font-family="Helvetica,sans-Serif" font-size="8.00">dac (12&#45;bit)</text>
</g>
</g>
</svg>
