<?xml version="1.0" encoding="UTF-8" standalone="no"?>
<!DOCTYPE svg PUBLIC "-//W3C//DTD SVG 1.1//EN"
 "http://www.w3.org/Graphics/SVG/1.1/DTD/svg11.dtd">
<!-- Generated by graphviz version 14.1.2 (0)
 -->
<!-- Title: apm_control Pages: 1 -->
<svg width="819pt" height="295pt"
 viewBox="0.00 0.00 819.00 295.00" xmlns="http://www.w3.org/2000/svg" xmlns:xlink="http://www.w3.org/1999/xlink">
<g id="graph0" class="graph" transform="scale(1 1) rotate(0) translate(21.6 273.6)">
<title>apm_control</title>
<polygon fill="white" stroke="none" points="-21.6,21.6 -21.6,-273.6 797.35,-273.6 797.35,21.6 -21.6,21.6"/>
<g id="clust1" class="cluster">
<title>cluster_apm</title>
<path fill="#f4f9fe" stroke="#1976d2" stroke-width="2" d="M20,-99C20,-99 519.5,-99 519.5,-99 525.5,-99 531.5,-105 531.5,-111 531.5,-111 531.5,-228 531.5,-228 531.5,-234 525.5,-240 519.5,-240 519.5,-240 20,-240 20,-240 14,-240 8,-234 8,-228 8,-228 8,-111 8,-111 8,-105 14,-99 20,-99"/>
<text xml:space="preserve" text-anchor="middle" x="62.88" y="-222.7" font-family="Helvetica,sans-Serif" font-weight="bold" font-size="14.00" fill="#1565c0">APM BOARD</text>
</g>
<g id="clust2" class="cluster">
<title>cluster_ctrl</title>
<path fill="#f5fbf6" stroke="#388e3c" stroke-width="2" d="M582.5,-8C582.5,-8 755.75,-8 755.75,-8 761.75,-8 767.75,-14 767.75,-20 767.75,-20 767.75,-232 767.75,-232 767.75,-238 761.75,-244 755.75,-244 755.75,-244 582.5,-244 582.5,-244 576.5,-244 570.5,-238 570.5,-232 570.5,-232 570.5,-20 570.5,-20 570.5,-14 576.5,-8 582.5,-8"/>
<text xml:space="preserve" text-anchor="middle" x="645.62" y="-226.7" font-family="Helvetica,sans-Serif" font-weight="bold" font-size="14.00" fill="#2e7d32">CONTROL BOARD</text>
</g>
<!-- stm32 -->
<g id="node1" class="node">
<title>stm32</title>
<polygon fill="#e3f2fd" stroke="none" points="216.25,-118.88 216.25,-195.12 348,-195.12 348,-118.88 216.25,-118.88"/>
<polygon fill="#1976d2" stroke="none" points="217.25,-169.38 217.25,-194.12 347,-194.12 347,-169.38 217.25,-169.38"/>
<text xml:space="preserve" text-anchor="start" x="249.12" y="-179.62" font-family="Helvetica,sans-Serif" font-weight="bold" font-size="10.00" fill="white">STM32H755</text>
<text xml:space="preserve" text-anchor="start" x="223.25" y="-153.88" font-family="Helvetica,sans-Serif" font-size="10.00">SPI (SCK/MOSI/MISO/CS)</text>
<text xml:space="preserve" text-anchor="start" x="297.5" y="-129.12" font-family="Helvetica,sans-Serif" font-size="10.00">ADC[7:0]</text>
<polygon fill="none" stroke="#1976d2" points="216.25,-118.88 216.25,-195.12 348,-195.12 348,-118.88 216.25,-118.88"/>
</g>
<!-- j1 -->
<g id="node2" class="node">
<title>j1</title>
<polygon fill="#ffffff" stroke="none" points="427,-143.25 427,-194.75 511.5,-194.75 511.5,-143.25 427,-143.25"/>
<polygon fill="#90caf9" stroke="none" points="428,-169 428,-193.75 510.5,-193.75 510.5,-169 428,-169"/>
<text xml:space="preserve" text-anchor="start" x="434" y="-179.25" font-family="Helvetica,sans-Serif" font-weight="bold" font-size="10.00">CTRL FFC &#160;J1</text>
<text xml:space="preserve" text-anchor="start" x="434" y="-153.5" font-family="Helvetica,sans-Serif" font-size="10.00">SPI</text>
<text xml:space="preserve" text-anchor="start" x="489.5" y="-153.5" font-family="Helvetica,sans-Serif" font-size="10.00">SPI</text>
<polygon fill="none" stroke="#1976d2" points="427,-143.25 427,-194.75 511.5,-194.75 511.5,-143.25 427,-143.25"/>
</g>
<!-- stm32&#45;&gt;j1 -->
<g id="edge1" class="edge">
<title>stm32:spi&#45;&gt;j1:i</title>
<path fill="none" stroke="#37474f" stroke-width="1.3" d="M346.98,-169C346.98,-169 419.06,-169 419.06,-169"/>
<polygon fill="#37474f" stroke="#37474f" stroke-width="1.3" points="419.06,-171.45 426.06,-169 419.06,-166.55 419.06,-171.45"/>
</g>
<!-- shift -->
<g id="node4" class="node">
<title>shift</title>
<polygon fill="#e8f5e9" stroke="none" points="590.5,-122.88 590.5,-199.12 747.75,-199.12 747.75,-122.88 590.5,-122.88"/>
<polygon fill="#388e3c" stroke="none" points="591.5,-173.38 591.5,-198.12 746.75,-198.12 746.75,-173.38 591.5,-173.38"/>
<text xml:space="preserve" text-anchor="start" x="597.5" y="-183.62" font-family="Helvetica,sans-Serif" font-weight="bold" font-size="10.00" fill="white">shift regs &#160;74HC595 / 165</text>
<text xml:space="preserve" text-anchor="start" x="597.5" y="-157.88" font-family="Helvetica,sans-Serif" font-size="10.00">SPI</text>
<text xml:space="preserve" text-anchor="start" x="716.75" y="-157.88" font-family="Helvetica,sans-Serif" font-size="10.00">LEDs</text>
<text xml:space="preserve" text-anchor="start" x="597.5" y="-133.12" font-family="Helvetica,sans-Serif" font-size="10.00">buttons / switches</text>
<text xml:space="preserve" text-anchor="start" x="737.75" y="-133.12" font-family="Helvetica,sans-Serif" font-size="10.00"> </text>
<polygon fill="none" stroke="#388e3c" points="590.5,-122.88 590.5,-199.12 747.75,-199.12 747.75,-122.88 590.5,-122.88"/>
</g>
<!-- j1&#45;&gt;shift -->
<g id="edge3" class="edge">
<title>j1:o&#45;&gt;shift:spi</title>
<path fill="none" stroke="#e65100" stroke-width="2.6" d="M522.28,-169C522.28,-169 579.66,-169 579.66,-169"/>
<polygon fill="#e65100" stroke="#e65100" stroke-width="2.6" points="522.28,-166.2 514.28,-169 522.28,-171.8 522.28,-166.2"/>
<polygon fill="#e65100" stroke="#e65100" stroke-width="2.6" points="579.66,-171.8 587.66,-169 579.66,-166.2 579.66,-171.8"/>
<text xml:space="preserve" text-anchor="middle" x="571.97" y="-160.45" font-family="Helvetica,sans-Serif" font-size="9.00">CTRL FFC</text>
</g>
<!-- j2 -->
<g id="node3" class="node">
<title>j2</title>
<polygon fill="#ffffff" stroke="none" points="28,-119.25 28,-170.75 137.25,-170.75 137.25,-119.25 28,-119.25"/>
<polygon fill="#90caf9" stroke="none" points="29,-145 29,-169.75 136.25,-169.75 136.25,-145 29,-145"/>
<text xml:space="preserve" text-anchor="start" x="40.62" y="-155.25" font-family="Helvetica,sans-Serif" font-weight="bold" font-size="10.00">PERIPH FFC &#160;J2</text>
<text xml:space="preserve" text-anchor="start" x="35" y="-129.5" font-family="Helvetica,sans-Serif" font-size="10.00">ADC[7:0]</text>
<text xml:space="preserve" text-anchor="start" x="90.5" y="-129.5" font-family="Helvetica,sans-Serif" font-size="10.00">AIN[7:0]</text>
<polygon fill="none" stroke="#1976d2" points="28,-119.25 28,-170.75 137.25,-170.75 137.25,-119.25 28,-119.25"/>
</g>
<!-- j2&#45;&gt;stm32 -->
<g id="edge2" class="edge">
<title>j2:o&#45;&gt;stm32:adc</title>
<path fill="none" stroke="#37474f" stroke-width="1.3" d="M84.39,-145C84.39,-145 273.06,-145 273.06,-145"/>
<polygon fill="#37474f" stroke="#37474f" stroke-width="1.3" points="273.06,-147.45 280.06,-145 273.06,-142.55 273.06,-147.45"/>
</g>
<!-- pots -->
<g id="node5" class="node">
<title>pots</title>
<polygon fill="#e8f5e9" stroke="none" points="613.38,-28.25 613.38,-79.75 724.88,-79.75 724.88,-28.25 613.38,-28.25"/>
<polygon fill="#388e3c" stroke="none" points="614.38,-54 614.38,-78.75 723.88,-78.75 723.88,-54 614.38,-54"/>
<text xml:space="preserve" text-anchor="start" x="620.38" y="-64.25" font-family="Helvetica,sans-Serif" font-weight="bold" font-size="10.00" fill="white">8 potentiometers</text>
<text xml:space="preserve" text-anchor="start" x="620.38" y="-38.5" font-family="Helvetica,sans-Serif" font-size="10.00">AIN[7:0]</text>
<polygon fill="none" stroke="#388e3c" points="613.38,-28.25 613.38,-79.75 724.88,-79.75 724.88,-28.25 613.38,-28.25"/>
</g>
<!-- pots&#45;&gt;j2 -->
<g id="edge4" class="edge">
<title>pots:out&#45;&gt;j2:i</title>
<path fill="none" stroke="#6a1b9a" stroke-width="2.6" d="M602.55,-54C602.55,-54 82.75,-54 82.75,-54 82.75,-54 82.75,-120.63 82.75,-120.63"/>
<polygon fill="#6a1b9a" stroke="#6a1b9a" stroke-width="2.6" points="602.55,-56.8 610.55,-54 602.55,-51.2 602.55,-56.8"/>
<polygon fill="#6a1b9a" stroke="#6a1b9a" stroke-width="2.6" points="79.95,-120.63 82.75,-128.63 85.55,-120.63 79.95,-120.63"/>
<text xml:space="preserve" text-anchor="middle" x="283.46" y="-45.45" font-family="Helvetica,sans-Serif" font-size="9.00">PERIPH FFC</text>
</g>
</g>
</svg>
