<?xml version="1.0" encoding="UTF-8" standalone="no"?>
<!DOCTYPE svg PUBLIC "-//W3C//DTD SVG 1.1//EN"
 "http://www.w3.org/Graphics/SVG/1.1/DTD/svg11.dtd">
<!-- Generated by graphviz version 14.1.2 (0)
 -->
<!-- Title: asset_map Pages: 1 -->
<svg width="948pt" height="575pt"
 viewBox="0.00 0.00 948.00 575.00" xmlns="http://www.w3.org/2000/svg" xmlns:xlink="http://www.w3.org/1999/xlink">
<g id="graph0" class="graph" transform="scale(1 1) rotate(0) translate(21.6 553.6)">
<title>asset_map</title>
<polygon fill="white" stroke="none" points="-21.6,21.6 -21.6,-553.6 926.35,-553.6 926.35,21.6 -21.6,21.6"/>
<g id="clust1" class="cluster">
<title>cluster_int</title>
<path fill="#e3f2fd" stroke="#1976d2" stroke-width="1.6" d="M272.25,-256C272.25,-256 608.5,-256 608.5,-256 614.5,-256 620.5,-262 620.5,-268 620.5,-268 620.5,-512 620.5,-512 620.5,-518 614.5,-524 608.5,-524 608.5,-524 272.25,-524 272.25,-524 266.25,-524 260.25,-518 260.25,-512 260.25,-512 260.25,-268 260.25,-268 260.25,-262 266.25,-256 272.25,-256"/>
<text xml:space="preserve" text-anchor="middle" x="440.38" y="-508.6" font-family="Helvetica,sans-Serif" font-weight="bold" font-size="12.00" fill="#1565c0">STM32H74x/H75x internal flash &#160;&#45; &#160;2 MB, dual bank</text>
</g>
<g id="clust2" class="cluster">
<title>cluster_qspi</title>
<path fill="#e8f5e9" stroke="#388e3c" stroke-width="1.6" d="M287.62,-8C287.62,-8 593.12,-8 593.12,-8 599.12,-8 605.12,-14 605.12,-20 605.12,-20 605.12,-236 605.12,-236 605.12,-242 599.12,-248 593.12,-248 593.12,-248 287.62,-248 287.62,-248 281.62,-248 275.62,-242 275.62,-236 275.62,-236 275.62,-20 275.62,-20 275.62,-14 281.62,-8 287.62,-8"/>
<text xml:space="preserve" text-anchor="middle" x="440.38" y="-232.6" font-family="Helvetica,sans-Serif" font-weight="bold" font-size="12.00" fill="#2e7d32">QSPI flash &#160;&#45; &#160;memory&#45;mapped (dual W25Q64)</text>
</g>
<!-- intflash -->
<g id="node1" class="node">
<title>intflash</title>
<polygon fill="#90caf9" stroke="none" points="329.25,-453.25 329.25,-484 550.5,-484 550.5,-453.25 329.25,-453.25"/>
<polygon fill="none" stroke="black" points="329.25,-453.25 329.25,-484 550.5,-484 550.5,-453.25 329.25,-453.25"/>
<text xml:space="preserve" text-anchor="start" x="338.25" y="-466.5" font-family="Helvetica,sans-Serif" font-weight="bold" font-size="10.00">Bank 1 &#160;@ 0x0800_0000 &#160;(1 MB)</text>
<polygon fill="#bbdefb" stroke="none" points="329.25,-409.75 329.25,-453.25 550.5,-453.25 550.5,-409.75 329.25,-409.75"/>
<polygon fill="none" stroke="black" points="329.25,-409.75 329.25,-453.25 550.5,-453.25 550.5,-409.75 329.25,-409.75"/>
<text xml:space="preserve" text-anchor="start" x="338.25" y="-434.75" font-family="Helvetica,sans-Serif" font-size="10.00">bootloader / updater core</text>
<text xml:space="preserve" text-anchor="start" x="339.38" y="-422" font-family="Helvetica,sans-Serif" font-size="10.00">(write&#45;protected sectors)</text>
<polygon fill="#e3f2fd" stroke="none" points="329.25,-379 329.25,-409.75 550.5,-409.75 550.5,-379 329.25,-379"/>
<polygon fill="none" stroke="black" points="329.25,-379 329.25,-409.75 550.5,-409.75 550.5,-379 329.25,-379"/>
<text xml:space="preserve" text-anchor="start" x="338.25" y="-392.25" font-family="Helvetica,sans-Serif" font-weight="bold" font-size="10.00">slot A</text>
<text xml:space="preserve" text-anchor="start" x="370.5" y="-392.25" font-family="Helvetica,sans-Serif" font-size="10.00"> &#160;&#45; &#160;application image A</text>
<polygon fill="#90caf9" stroke="none" points="329.25,-348.25 329.25,-379 550.5,-379 550.5,-348.25 329.25,-348.25"/>
<polygon fill="none" stroke="black" points="329.25,-348.25 329.25,-379 550.5,-379 550.5,-348.25 329.25,-348.25"/>
<text xml:space="preserve" text-anchor="start" x="338.25" y="-361.5" font-family="Helvetica,sans-Serif" font-weight="bold" font-size="10.00">Bank 2 &#160;@ 0x0810_0000 &#160;(1 MB)</text>
<polygon fill="#e3f2fd" stroke="none" points="329.25,-317.5 329.25,-348.25 550.5,-348.25 550.5,-317.5 329.25,-317.5"/>
<polygon fill="none" stroke="black" points="329.25,-317.5 329.25,-348.25 550.5,-348.25 550.5,-317.5 329.25,-317.5"/>
<text xml:space="preserve" text-anchor="start" x="338.25" y="-330.75" font-family="Helvetica,sans-Serif" font-weight="bold" font-size="10.00">slot B</text>
<text xml:space="preserve" text-anchor="start" x="370.5" y="-330.75" font-family="Helvetica,sans-Serif" font-size="10.00"> &#160;&#45; &#160;application image B</text>
<polygon fill="#fff3e0" stroke="none" points="329.25,-274 329.25,-317.5 550.5,-317.5 550.5,-274 329.25,-274"/>
<polygon fill="none" stroke="black" points="329.25,-274 329.25,-317.5 550.5,-317.5 550.5,-274 329.25,-274"/>
<text xml:space="preserve" text-anchor="start" x="338.25" y="-299" font-family="Helvetica,sans-Serif" font-size="10.00">option bytes: SWAP_BANK, BOOT_ADD0/1</text>
<text xml:space="preserve" text-anchor="start" x="366.75" y="-286.25" font-family="Helvetica,sans-Serif" font-size="10.00">(atomic A/B select + rollback)</text>
</g>
<!-- fpga -->
<g id="node4" class="node">
<title>fpga</title>
<path fill="#c8e6c9" stroke="#388e3c" d="M892.75,-294C892.75,-294 758.25,-294 758.25,-294 752.25,-294 746.25,-288 746.25,-282 746.25,-282 746.25,-270 746.25,-270 746.25,-264 752.25,-258 758.25,-258 758.25,-258 892.75,-258 892.75,-258 898.75,-258 904.75,-264 904.75,-270 904.75,-270 904.75,-282 904.75,-282 904.75,-288 898.75,-294 892.75,-294"/>
<text xml:space="preserve" text-anchor="start" x="754.25" y="-279.05" font-family="Helvetica,sans-Serif" font-weight="bold" font-size="11.00">Gowin FPGA</text>
<text xml:space="preserve" text-anchor="middle" x="825.5" y="-265.55" font-family="Helvetica,sans-Serif" font-weight="bold" font-size="11.00">(GW2AR&#45;18 / GW5A&#45;25)</text>
</g>
<!-- intflash&#45;&gt;fpga -->
<!-- qspi -->
<g id="node2" class="node">
<title>qspi</title>
<polygon fill="#a5d6a7" stroke="none" points="348.38,-176.75 348.38,-207.5 531.38,-207.5 531.38,-176.75 348.38,-176.75"/>
<polygon fill="none" stroke="black" points="348.38,-176.75 348.38,-207.5 531.38,-207.5 531.38,-176.75 348.38,-176.75"/>
<text xml:space="preserve" text-anchor="start" x="357.38" y="-190" font-family="Helvetica,sans-Serif" font-weight="bold" font-size="10.00">base @ 0x9000_0000</text>
<polygon fill="#c8e6c9" stroke="none" points="348.38,-138.75 348.38,-176.75 531.38,-176.75 531.38,-138.75 348.38,-138.75"/>
<polygon fill="none" stroke="black" points="348.38,-138.75 348.38,-176.75 531.38,-176.75 531.38,-138.75 348.38,-138.75"/>
<text xml:space="preserve" text-anchor="start" x="366.38" y="-159.25" font-family="Helvetica,sans-Serif" font-weight="bold" font-size="10.00">golden</text>
<text xml:space="preserve" text-anchor="start" x="405.38" y="-159.25" font-family="Helvetica,sans-Serif" font-size="10.00"> FPGA bitstream</text>
<text xml:space="preserve" text-anchor="start" x="357.38" y="-149.25" font-family="Helvetica,sans-Serif" font-size="10.00">(factory fallback, read&#45;only)</text>
<polygon fill="#e8f5e9" stroke="none" points="348.38,-100.75 348.38,-138.75 531.38,-138.75 531.38,-100.75 348.38,-100.75"/>
<polygon fill="none" stroke="black" points="348.38,-100.75 348.38,-138.75 531.38,-138.75 531.38,-100.75 348.38,-100.75"/>
<text xml:space="preserve" text-anchor="start" x="357.38" y="-121.25" font-family="Helvetica,sans-Serif" font-weight="bold" font-size="10.00">active</text>
<text xml:space="preserve" text-anchor="start" x="391.88" y="-121.25" font-family="Helvetica,sans-Serif" font-size="10.00"> FPGA bitstream</text>
<text xml:space="preserve" text-anchor="start" x="366" y="-111.25" font-family="Helvetica,sans-Serif" font-size="10.00">(current, updatable)</text>
<polygon fill="#fff3e0" stroke="none" points="348.38,-57.25 348.38,-100.75 531.38,-100.75 531.38,-57.25 348.38,-57.25"/>
<polygon fill="none" stroke="black" points="348.38,-57.25 348.38,-100.75 531.38,-100.75 531.38,-57.25 348.38,-57.25"/>
<text xml:space="preserve" text-anchor="start" x="388.5" y="-82.25" font-family="Helvetica,sans-Serif" font-size="10.00">STM32 golden image</text>
<text xml:space="preserve" text-anchor="start" x="357.38" y="-69.5" font-family="Helvetica,sans-Serif" font-size="10.00">(disaster&#45;recovery copy, optional)</text>
<polygon fill="#eceff1" stroke="none" points="348.38,-26.5 348.38,-57.25 531.38,-57.25 531.38,-26.5 348.38,-26.5"/>
<polygon fill="none" stroke="black" points="348.38,-26.5 348.38,-57.25 531.38,-57.25 531.38,-26.5 348.38,-26.5"/>
<text xml:space="preserve" text-anchor="start" x="357.38" y="-38.75" font-family="Helvetica,sans-Serif" font-size="10.00">params / config / cal data</text>
</g>
<!-- qspi&#45;&gt;fpga -->
<g id="edge2" class="edge">
<title>qspi&#45;&gt;fpga</title>
<path fill="none" stroke="#e65100" stroke-width="2" d="M539.17,-157.74C611.76,-187.83 708,-227.71 768.08,-252.62"/>
<polygon fill="#e65100" stroke="#e65100" stroke-width="2" points="766.59,-255.79 777.17,-256.38 769.27,-249.32 766.59,-255.79"/>
<text xml:space="preserve" text-anchor="middle" x="676.38" y="-240.92" font-family="Helvetica,sans-Serif" font-size="8.00" fill="#e65100">active bitstream</text>
<text xml:space="preserve" text-anchor="middle" x="676.38" y="-231.17" font-family="Helvetica,sans-Serif" font-size="8.00" fill="#e65100">(golden on fallback)</text>
</g>
<!-- manifest -->
<g id="node3" class="node">
<title>manifest</title>
<polygon fill="#fffde7" stroke="#f9a825" points="139.75,-268.88 0,-268.88 0,-227.12 145.75,-227.12 145.75,-262.88 139.75,-268.88"/>
<polyline fill="none" stroke="#f9a825" points="139.75,-268.88 139.75,-262.88"/>
<polyline fill="none" stroke="#f9a825" points="145.75,-262.88 139.75,-262.88"/>
<text xml:space="preserve" text-anchor="start" x="8" y="-256.32" font-family="Helvetica,sans-Serif" font-size="9.00">manifest header (per image)</text>
<text xml:space="preserve" text-anchor="start" x="8" y="-245.07" font-family="Helvetica,sans-Serif" font-size="9.00">magic | target_id | version</text>
<text xml:space="preserve" text-anchor="start" x="8" y="-233.82" font-family="Helvetica,sans-Serif" font-size="9.00">length | crc32 / sha</text>
</g>
<!-- manifest&#45;&gt;intflash -->
<g id="edge3" class="edge">
<title>manifest&#45;&gt;intflash</title>
<path fill="none" stroke="#546e7a" stroke-width="1.1" stroke-dasharray="5,2" d="M133.33,-269.34C181.26,-286.54 250.38,-311.35 310.76,-333.02"/>
<polygon fill="#546e7a" stroke="#546e7a" stroke-width="1.1" points="309.37,-336.24 319.96,-336.32 311.73,-329.65 309.37,-336.24"/>
<text xml:space="preserve" text-anchor="middle" x="210" y="-307.81" font-family="Helvetica,sans-Serif" font-size="8.00">wraps A/B</text>
</g>
<!-- manifest&#45;&gt;qspi -->
<g id="edge4" class="edge">
<title>manifest&#45;&gt;qspi</title>
<path fill="none" stroke="#546e7a" stroke-width="1.1" stroke-dasharray="5,2" d="M133.33,-226.66C186.43,-207.6 265.55,-179.21 329.97,-156.09"/>
<polygon fill="#546e7a" stroke="#546e7a" stroke-width="1.1" points="330.78,-159.51 339.01,-152.84 328.42,-152.92 330.78,-159.51"/>
<text xml:space="preserve" text-anchor="middle" x="210" y="-211.44" font-family="Helvetica,sans-Serif" font-size="8.00">wraps bitstreams</text>
</g>
</g>
</svg>
