<?xml version="1.0" encoding="UTF-8" standalone="no"?>
<!DOCTYPE svg PUBLIC "-//W3C//DTD SVG 1.1//EN"
 "http://www.w3.org/Graphics/SVG/1.1/DTD/svg11.dtd">
<!-- Generated by graphviz version 14.1.2 (0)
 -->
<!-- Title: boot_sm Pages: 1 -->
<svg width="836pt" height="1099pt"
 viewBox="0.00 0.00 836.00 1099.00" xmlns="http://www.w3.org/2000/svg" xmlns:xlink="http://www.w3.org/1999/xlink">
<g id="graph0" class="graph" transform="scale(1 1) rotate(0) translate(21.6 1077.15)">
<title>boot_sm</title>
<polygon fill="white" stroke="none" points="-21.6,21.6 -21.6,-1077.15 813.96,-1077.15 813.96,21.6 -21.6,21.6"/>
<g id="clust1" class="cluster">
<title>cluster_upd</title>
<path fill="#f3e5f5" stroke="#8e24aa" stroke-width="1.5" d="M20,-518.45C20,-518.45 357,-518.45 357,-518.45 363,-518.45 369,-524.45 369,-530.45 369,-530.45 369,-847.35 369,-847.35 369,-853.35 363,-859.35 357,-859.35 357,-859.35 20,-859.35 20,-859.35 14,-859.35 8,-853.35 8,-847.35 8,-847.35 8,-530.45 8,-530.45 8,-524.45 14,-518.45 20,-518.45"/>
<text xml:space="preserve" text-anchor="middle" x="188.5" y="-844.9" font-family="Helvetica,sans-Serif" font-weight="bold" font-size="11.00" fill="#6a1b9a">UPDATE MODE &#160;&#45; &#160;UART @ 2 Mbaud, live status on 20x04</text>
</g>
<!-- reset -->
<g id="node1" class="node">
<title>reset</title>
<ellipse fill="#eceff1" stroke="#607d8b" stroke-width="1.3" cx="360" cy="-1033.73" rx="71.98" ry="19.2"/>
<text xml:space="preserve" text-anchor="middle" x="360" y="-1030.6" font-family="Helvetica,sans-Serif" font-size="10.00">power on / reset</text>
</g>
<!-- d_host -->
<g id="node4" class="node">
<title>d_host</title>
<path fill="#fff3e0" stroke="#f9a825" stroke-width="1.3" d="M348.45,-971.66C348.45,-971.66 229.26,-938.24 229.26,-938.24 223.49,-936.62 223.49,-933.38 229.26,-931.76 229.26,-931.76 348.45,-898.34 348.45,-898.34 354.22,-896.72 365.78,-896.72 371.55,-898.34 371.55,-898.34 490.74,-931.76 490.74,-931.76 496.51,-933.38 496.51,-936.62 490.74,-938.24 490.74,-938.24 371.55,-971.66 371.55,-971.66 365.78,-973.28 354.22,-973.28 348.45,-971.66"/>
<text xml:space="preserve" text-anchor="middle" x="360" y="-938.25" font-family="Helvetica,sans-Serif" font-size="10.00">update requested?</text>
<text xml:space="preserve" text-anchor="middle" x="360" y="-925.5" font-family="Helvetica,sans-Serif" font-size="10.00">(host present / pad held)</text>
</g>
<!-- reset&#45;&gt;d_host -->
<g id="edge4" class="edge">
<title>reset&#45;&gt;d_host</title>
<path fill="none" stroke="#546e7a" stroke-width="1.1" d="M360,-1014.08C360,-1006.19 360,-996.57 360,-986.83"/>
<polygon fill="#546e7a" stroke="#546e7a" stroke-width="1.1" points="363.5,-987.08 360,-977.08 356.5,-987.08 363.5,-987.08"/>
</g>
<!-- ready -->
<g id="node2" class="node">
<title>ready</title>
<ellipse fill="#c8e6c9" stroke="#2e7d32" stroke-width="1.3" cx="705" cy="-28.21" rx="87.36" ry="28.21"/>
<text xml:space="preserve" text-anchor="middle" x="705" y="-31.46" font-family="Helvetica,sans-Serif" font-weight="bold" font-size="10.00">READY &#160;&#45; &#160;run app</text>
<text xml:space="preserve" text-anchor="middle" x="705" y="-18.71" font-family="Helvetica,sans-Serif" font-weight="bold" font-size="10.00">(DAC un&#45;muted)</text>
</g>
<!-- err -->
<g id="node3" class="node">
<title>err</title>
<ellipse fill="#ffcdd2" stroke="#c62828" stroke-width="1.3" cx="427" cy="-121.64" rx="136.15" ry="28.21"/>
<text xml:space="preserve" text-anchor="middle" x="427" y="-124.89" font-family="Helvetica,sans-Serif" font-weight="bold" font-size="10.00">ERROR &#160;&#45; &#160;halt</text>
<text xml:space="preserve" text-anchor="middle" x="427" y="-112.14" font-family="Helvetica,sans-Serif" font-weight="bold" font-size="10.00">(DAC muted, LCD shows fault)</text>
</g>
<!-- d_appok -->
<g id="node5" class="node">
<title>d_appok</title>
<path fill="#fff3e0" stroke="#f9a825" stroke-width="1.3" d="M494.59,-842.1C494.59,-842.1 394.62,-809.61 394.62,-809.61 388.92,-807.76 388.92,-804.05 394.62,-802.2 394.62,-802.2 494.59,-769.71 494.59,-769.71 500.29,-767.86 511.71,-767.86 517.41,-769.71 517.41,-769.71 617.38,-802.2 617.38,-802.2 623.08,-804.05 623.08,-807.76 617.38,-809.61 617.38,-809.61 517.41,-842.1 517.41,-842.1 511.71,-843.95 500.29,-843.95 494.59,-842.1"/>
<text xml:space="preserve" text-anchor="middle" x="506" y="-809.15" font-family="Helvetica,sans-Serif" font-size="10.00">active STM32 image</text>
<text xml:space="preserve" text-anchor="middle" x="506" y="-796.4" font-family="Helvetica,sans-Serif" font-size="10.00">confirmed valid?</text>
</g>
<!-- d_host&#45;&gt;d_appok -->
<g id="edge7" class="edge">
<title>d_host&#45;&gt;d_appok</title>
<path fill="none" stroke="#546e7a" stroke-width="1.1" d="M389.98,-903.02C406.83,-885.62 424.5,-867.35 424.5,-867.35 424.5,-867.35 441.33,-854.87 459.7,-841.25"/>
<polygon fill="#546e7a" stroke="#546e7a" stroke-width="1.1" points="461.78,-844.06 467.73,-835.29 457.61,-838.44 461.78,-844.06"/>
<text xml:space="preserve" text-anchor="middle" x="429.75" y="-869.5" font-family="Helvetica,sans-Serif" font-size="8.00">no</text>
</g>
<!-- u_rx -->
<g id="node8" class="node">
<title>u_rx</title>
<path fill="#e1bee7" stroke="#8e24aa" stroke-width="1.3" d="M342.14,-825.85C342.14,-825.85 217.86,-825.85 217.86,-825.85 211.86,-825.85 205.86,-819.85 205.86,-813.85 205.86,-813.85 205.86,-797.95 205.86,-797.95 205.86,-791.95 211.86,-785.95 217.86,-785.95 217.86,-785.95 342.14,-785.95 342.14,-785.95 348.14,-785.95 354.14,-791.95 354.14,-797.95 354.14,-797.95 354.14,-813.85 354.14,-813.85 354.14,-819.85 348.14,-825.85 342.14,-825.85"/>
<text xml:space="preserve" text-anchor="middle" x="280" y="-809.15" font-family="Helvetica,sans-Serif" font-size="10.00">receive framed image</text>
<text xml:space="preserve" text-anchor="middle" x="280" y="-796.4" font-family="Helvetica,sans-Serif" font-size="10.00">(seq + crc, per&#45;block ack)</text>
</g>
<!-- d_host&#45;&gt;u_rx -->
<g id="edge5" class="edge">
<title>d_host&#45;&gt;u_rx</title>
<path fill="none" stroke="#546e7a" stroke-width="1.1" d="M338.98,-900.61C326.35,-880.54 310.42,-855.23 298.3,-835.98"/>
<polygon fill="#546e7a" stroke="#546e7a" stroke-width="1.1" points="301.36,-834.26 293.07,-827.66 295.43,-837.99 301.36,-834.26"/>
<text xml:space="preserve" text-anchor="middle" x="329.52" y="-869.5" font-family="Helvetica,sans-Serif" font-size="8.00" fill="#8e24aa">yes</text>
</g>
<!-- d_appok&#45;&gt;err -->
<g id="edge9" class="edge">
<title>d_appok&#45;&gt;err</title>
<path fill="none" stroke="#546e7a" stroke-width="1.1" d="M476.54,-774.96C447.04,-744.97 406,-703.25 406,-703.25 406,-703.25 406,-703.25 406,-234.5 406,-234.5 413.61,-193.98 419.66,-161.72"/>
<polygon fill="#546e7a" stroke="#546e7a" stroke-width="1.1" points="423.1,-162.4 421.5,-151.93 416.22,-161.11 423.1,-162.4"/>
<text xml:space="preserve" text-anchor="middle" x="444.62" y="-502.85" font-family="Helvetica,sans-Serif" font-size="8.00" fill="#c62828">no (both slots bad)</text>
</g>
<!-- rails -->
<g id="node12" class="node">
<title>rails</title>
<path fill="#e3f2fd" stroke="#1976d2" stroke-width="1.3" d="M565.14,-720.25C565.14,-720.25 482.86,-720.25 482.86,-720.25 476.86,-720.25 470.86,-714.25 470.86,-708.25 470.86,-708.25 470.86,-696.25 470.86,-696.25 470.86,-690.25 476.86,-684.25 482.86,-684.25 482.86,-684.25 565.14,-684.25 565.14,-684.25 571.14,-684.25 577.14,-690.25 577.14,-696.25 577.14,-696.25 577.14,-708.25 577.14,-708.25 577.14,-714.25 571.14,-720.25 565.14,-720.25"/>
<text xml:space="preserve" text-anchor="middle" x="524" y="-699.13" font-family="Helvetica,sans-Serif" font-size="10.00">rails + clocks OK</text>
</g>
<!-- d_appok&#45;&gt;rails -->
<g id="edge8" class="edge">
<title>d_appok&#45;&gt;rails</title>
<path fill="none" stroke="#546e7a" stroke-width="1.1" d="M512.6,-767.63C514.68,-755.9 516.94,-743.12 518.9,-732.07"/>
<polygon fill="#546e7a" stroke="#546e7a" stroke-width="1.1" points="522.29,-732.98 520.59,-722.52 515.4,-731.76 522.29,-732.98"/>
<text xml:space="preserve" text-anchor="middle" x="524.79" y="-740.4" font-family="Helvetica,sans-Serif" font-size="8.00">yes</text>
</g>
<!-- rb -->
<g id="node17" class="node">
<title>rb</title>
<polygon fill="#fffde7" stroke="#f9a825" stroke-width="1.3" points="620.77,-1055.55 461.23,-1055.55 461.23,-1011.9 626.77,-1011.9 626.77,-1049.55 620.77,-1055.55"/>
<polyline fill="none" stroke="#f9a825" stroke-width="1.3" points="620.77,-1055.55 620.77,-1049.55"/>
<polyline fill="none" stroke="#f9a825" stroke-width="1.3" points="626.77,-1049.55 620.77,-1049.55"/>
<text xml:space="preserve" text-anchor="start" x="472.75" y="-1040.75" font-family="Helvetica,sans-Serif" font-size="8.00">rollback: new image must set</text>
<text xml:space="preserve" text-anchor="start" x="472.75" y="-1031" font-family="Helvetica,sans-Serif" font-size="8.00">&#39;boot confirmed&#39; within N boots</text>
<text xml:space="preserve" text-anchor="start" x="472.75" y="-1021.25" font-family="Helvetica,sans-Serif" font-size="8.00">(watchdog) else revert SWAP_BANK</text>
</g>
<!-- d_appok&#45;&gt;rb -->
<g id="edge10" class="edge">
<title>d_appok&#45;&gt;rb</title>
<path fill="none" stroke="#546e7a" stroke-width="1.1" stroke-dasharray="5,2" d="M512.29,-844.25C520.32,-892.03 533.98,-973.17 540.43,-1011.48"/>
</g>
<!-- d_fpga -->
<g id="node6" class="node">
<title>d_fpga</title>
<path fill="#fff3e0" stroke="#f9a825" stroke-width="1.3" d="M559.6,-478.95C559.6,-478.95 461.11,-446.55 461.11,-446.55 455.41,-444.68 455.41,-440.93 461.11,-439.05 461.11,-439.05 559.6,-406.65 559.6,-406.65 565.3,-404.78 576.7,-404.78 582.4,-406.65 582.4,-406.65 680.89,-439.05 680.89,-439.05 686.59,-440.93 686.59,-444.68 680.89,-446.55 680.89,-446.55 582.4,-478.95 582.4,-478.95 576.7,-480.83 565.3,-480.83 559.6,-478.95"/>
<text xml:space="preserve" text-anchor="middle" x="571" y="-446.05" font-family="Helvetica,sans-Serif" font-size="10.00">FPGA DONE +</text>
<text xml:space="preserve" text-anchor="middle" x="571" y="-433.3" font-family="Helvetica,sans-Serif" font-size="10.00">magic readback ok?</text>
</g>
<!-- loadg -->
<g id="node15" class="node">
<title>loadg</title>
<path fill="#fff8e1" stroke="#f9a825" stroke-width="1.3" d="M622.14,-357.15C622.14,-357.15 515.86,-357.15 515.86,-357.15 509.86,-357.15 503.86,-351.15 503.86,-345.15 503.86,-345.15 503.86,-333.15 503.86,-333.15 503.86,-327.15 509.86,-321.15 515.86,-321.15 515.86,-321.15 622.14,-321.15 622.14,-321.15 628.14,-321.15 634.14,-327.15 634.14,-333.15 634.14,-333.15 634.14,-345.15 634.14,-345.15 634.14,-351.15 628.14,-357.15 622.14,-357.15"/>
<text xml:space="preserve" text-anchor="middle" x="569" y="-336.03" font-family="Helvetica,sans-Serif" font-size="10.00">load golden bitstream</text>
</g>
<!-- d_fpga&#45;&gt;loadg -->
<g id="edge15" class="edge">
<title>d_fpga&#45;&gt;loadg</title>
<path fill="none" stroke="#546e7a" stroke-width="1.1" d="M570.23,-402.5C570.01,-391.34 569.77,-379.39 569.57,-368.98"/>
<polygon fill="#546e7a" stroke="#546e7a" stroke-width="1.1" points="573.07,-369.18 569.38,-359.25 566.07,-369.32 573.07,-369.18"/>
<text xml:space="preserve" text-anchor="middle" x="575.13" y="-377.3" font-family="Helvetica,sans-Serif" font-size="8.00" fill="#f57f17">no</text>
</g>
<!-- relf -->
<g id="node16" class="node">
<title>relf</title>
<path fill="#e3f2fd" stroke="#1976d2" stroke-width="1.3" d="M764.14,-139.64C764.14,-139.64 645.86,-139.64 645.86,-139.64 639.86,-139.64 633.86,-133.64 633.86,-127.64 633.86,-127.64 633.86,-115.64 633.86,-115.64 633.86,-109.64 639.86,-103.64 645.86,-103.64 645.86,-103.64 764.14,-103.64 764.14,-103.64 770.14,-103.64 776.14,-109.64 776.14,-115.64 776.14,-115.64 776.14,-127.64 776.14,-127.64 776.14,-133.64 770.14,-139.64 764.14,-139.64"/>
<text xml:space="preserve" text-anchor="middle" x="705" y="-118.52" font-family="Helvetica,sans-Serif" font-size="10.00">release FPGA logic reset</text>
</g>
<!-- d_fpga&#45;&gt;relf -->
<g id="edge14" class="edge">
<title>d_fpga&#45;&gt;relf</title>
<path fill="none" stroke="#546e7a" stroke-width="1.1" d="M598.72,-411.72C621.14,-387.39 649,-357.15 649,-357.15 649,-357.15 697,-275.4 697,-275.4 697,-275.4 701.16,-195.94 703.48,-151.63"/>
<polygon fill="#546e7a" stroke="#546e7a" stroke-width="1.1" points="706.97,-152 704,-141.83 699.98,-151.63 706.97,-152"/>
<text xml:space="preserve" text-anchor="middle" x="693.29" y="-295.55" font-family="Helvetica,sans-Serif" font-size="8.00">yes</text>
</g>
<!-- d_gold -->
<g id="node7" class="node">
<title>d_gold</title>
<path fill="#fff3e0" stroke="#f9a825" stroke-width="1.3" d="M554.65,-271.5C554.65,-271.5 461.31,-239.41 461.31,-239.41 455.63,-237.46 455.63,-233.55 461.31,-231.6 461.31,-231.6 554.65,-199.51 554.65,-199.51 560.33,-197.56 571.67,-197.56 577.35,-199.51 577.35,-199.51 670.69,-231.6 670.69,-231.6 676.37,-233.55 676.37,-237.46 670.69,-239.41 670.69,-239.41 577.35,-271.5 577.35,-271.5 571.67,-273.45 560.33,-273.45 554.65,-271.5"/>
<text xml:space="preserve" text-anchor="middle" x="566" y="-238.75" font-family="Helvetica,sans-Serif" font-size="10.00">golden bitstream</text>
<text xml:space="preserve" text-anchor="middle" x="566" y="-226" font-family="Helvetica,sans-Serif" font-size="10.00">DONE + magic ok?</text>
</g>
<!-- d_gold&#45;&gt;err -->
<g id="edge18" class="edge">
<title>d_gold&#45;&gt;err</title>
<path fill="none" stroke="#546e7a" stroke-width="1.1" d="M531.64,-206.85C512.82,-191.7 489.33,-172.8 469.37,-156.74"/>
<polygon fill="#546e7a" stroke="#546e7a" stroke-width="1.1" points="471.77,-154.18 461.78,-150.63 467.38,-159.63 471.77,-154.18"/>
<text xml:space="preserve" text-anchor="middle" x="497.58" y="-170" font-family="Helvetica,sans-Serif" font-size="8.00" fill="#c62828">no</text>
</g>
<!-- d_gold&#45;&gt;relf -->
<g id="edge17" class="edge">
<title>d_gold&#45;&gt;relf</title>
<path fill="none" stroke="#546e7a" stroke-width="1.1" d="M600.36,-206.85C623.01,-188.62 652.42,-164.96 674.29,-147.36"/>
<polygon fill="#546e7a" stroke="#546e7a" stroke-width="1.1" points="676.27,-150.26 681.86,-141.26 671.88,-144.8 676.27,-150.26"/>
<text xml:space="preserve" text-anchor="middle" x="655.07" y="-170" font-family="Helvetica,sans-Serif" font-size="8.00">yes</text>
</g>
<!-- u_ver -->
<g id="node9" class="node">
<title>u_ver</title>
<path fill="#e1bee7" stroke="#8e24aa" stroke-width="1.3" d="M330.89,-720.25C330.89,-720.25 229.11,-720.25 229.11,-720.25 223.11,-720.25 217.11,-714.25 217.11,-708.25 217.11,-708.25 217.11,-696.25 217.11,-696.25 217.11,-690.25 223.11,-684.25 229.11,-684.25 229.11,-684.25 330.89,-684.25 330.89,-684.25 336.89,-684.25 342.89,-690.25 342.89,-696.25 342.89,-696.25 342.89,-708.25 342.89,-708.25 342.89,-714.25 336.89,-720.25 330.89,-720.25"/>
<text xml:space="preserve" text-anchor="middle" x="280" y="-699.13" font-family="Helvetica,sans-Serif" font-size="10.00">verify manifest + crc</text>
</g>
<!-- u_rx&#45;&gt;u_ver -->
<g id="edge1" class="edge">
<title>u_rx&#45;&gt;u_ver</title>
<path fill="none" stroke="#546e7a" stroke-width="1.1" d="M280,-785.31C280,-770.26 280,-749.27 280,-732.28"/>
<polygon fill="#546e7a" stroke="#546e7a" stroke-width="1.1" points="283.5,-732.42 280,-722.42 276.5,-732.42 283.5,-732.42"/>
</g>
<!-- u_stage -->
<g id="node10" class="node">
<title>u_stage</title>
<path fill="#e1bee7" stroke="#8e24aa" stroke-width="1.3" d="M336.89,-647.25C336.89,-647.25 223.11,-647.25 223.11,-647.25 217.11,-647.25 211.11,-641.25 211.11,-635.25 211.11,-635.25 211.11,-619.35 211.11,-619.35 211.11,-613.35 217.11,-607.35 223.11,-607.35 223.11,-607.35 336.89,-607.35 336.89,-607.35 342.89,-607.35 348.89,-613.35 348.89,-619.35 348.89,-619.35 348.89,-635.25 348.89,-635.25 348.89,-641.25 342.89,-647.25 336.89,-647.25"/>
<text xml:space="preserve" text-anchor="middle" x="280" y="-630.55" font-family="Helvetica,sans-Serif" font-size="10.00">stage to inactive bank /</text>
<text xml:space="preserve" text-anchor="middle" x="280" y="-617.8" font-family="Helvetica,sans-Serif" font-size="10.00">QSPI active slot</text>
</g>
<!-- u_ver&#45;&gt;u_stage -->
<g id="edge2" class="edge">
<title>u_ver&#45;&gt;u_stage</title>
<path fill="none" stroke="#546e7a" stroke-width="1.1" d="M280,-683.97C280,-676.58 280,-667.72 280,-659.27"/>
<polygon fill="#546e7a" stroke="#546e7a" stroke-width="1.1" points="283.5,-659.45 280,-649.45 276.5,-659.45 283.5,-659.45"/>
</g>
<!-- u_commit -->
<g id="node11" class="node">
<title>u_commit</title>
<path fill="#e1bee7" stroke="#8e24aa" stroke-width="1.3" d="M336.52,-570.35C336.52,-570.35 223.48,-570.35 223.48,-570.35 217.48,-570.35 211.48,-564.35 211.48,-558.35 211.48,-558.35 211.48,-542.45 211.48,-542.45 211.48,-536.45 217.48,-530.45 223.48,-530.45 223.48,-530.45 336.52,-530.45 336.52,-530.45 342.52,-530.45 348.52,-536.45 348.52,-542.45 348.52,-542.45 348.52,-558.35 348.52,-558.35 348.52,-564.35 342.52,-570.35 336.52,-570.35"/>
<text xml:space="preserve" text-anchor="middle" x="280" y="-553.65" font-family="Helvetica,sans-Serif" font-size="10.00">commit: SWAP_BANK /</text>
<text xml:space="preserve" text-anchor="middle" x="280" y="-540.9" font-family="Helvetica,sans-Serif" font-size="10.00">mark active, then reset</text>
</g>
<!-- u_stage&#45;&gt;u_commit -->
<g id="edge3" class="edge">
<title>u_stage&#45;&gt;u_commit</title>
<path fill="none" stroke="#546e7a" stroke-width="1.1" d="M280,-607.02C280,-599.56 280,-590.84 280,-582.54"/>
<polygon fill="#546e7a" stroke="#546e7a" stroke-width="1.1" points="283.5,-582.55 280,-572.55 276.5,-582.55 283.5,-582.55"/>
</g>
<!-- u_commit&#45;&gt;reset -->
<g id="edge6" class="edge">
<title>u_commit&#45;&gt;reset</title>
<path fill="none" stroke="#8e24aa" stroke-width="1.1" stroke-dasharray="5,2" d="M349.12,-562.39C451.64,-578.69 632,-607.35 632,-607.35 632,-607.35 643,-766 643,-766 643,-766 643,-859.35 643,-859.35 643,-859.35 517,-974.9 517,-974.9 517,-974.9 457.66,-996.76 411.94,-1013.6"/>
<polygon fill="#8e24aa" stroke="#8e24aa" stroke-width="1.1" points="410.99,-1010.22 402.81,-1016.96 413.41,-1016.79 410.99,-1010.22"/>
<text xml:space="preserve" text-anchor="middle" x="652.2" y="-740.4" font-family="Helvetica,sans-Serif" font-size="8.00">reset</text>
</g>
<!-- devs -->
<g id="node13" class="node">
<title>devs</title>
<path fill="#e3f2fd" stroke="#1976d2" stroke-width="1.3" d="M605.39,-647.25C605.39,-647.25 464.61,-647.25 464.61,-647.25 458.61,-647.25 452.61,-641.25 452.61,-635.25 452.61,-635.25 452.61,-619.35 452.61,-619.35 452.61,-613.35 458.61,-607.35 464.61,-607.35 464.61,-607.35 605.39,-607.35 605.39,-607.35 611.39,-607.35 617.39,-613.35 617.39,-619.35 617.39,-619.35 617.39,-635.25 617.39,-635.25 617.39,-641.25 611.39,-647.25 605.39,-647.25"/>
<text xml:space="preserve" text-anchor="middle" x="535" y="-630.55" font-family="Helvetica,sans-Serif" font-size="10.00">init active devices</text>
<text xml:space="preserve" text-anchor="middle" x="535" y="-617.8" font-family="Helvetica,sans-Serif" font-size="10.00">(LCD, INA, OLED) &#160;&#45; &#160;lcd_ui up</text>
</g>
<!-- rails&#45;&gt;devs -->
<g id="edge11" class="edge">
<title>rails&#45;&gt;devs</title>
<path fill="none" stroke="#546e7a" stroke-width="1.1" d="M526.61,-683.97C527.72,-676.58 529.06,-667.72 530.33,-659.27"/>
<polygon fill="#546e7a" stroke="#546e7a" stroke-width="1.1" points="533.78,-659.84 531.81,-649.43 526.86,-658.8 533.78,-659.84"/>
</g>
<!-- loadf -->
<g id="node14" class="node">
<title>loadf</title>
<path fill="#e3f2fd" stroke="#1976d2" stroke-width="1.3" d="M630.39,-570.35C630.39,-570.35 477.61,-570.35 477.61,-570.35 471.61,-570.35 465.61,-564.35 465.61,-558.35 465.61,-558.35 465.61,-542.45 465.61,-542.45 465.61,-536.45 471.61,-530.45 477.61,-530.45 477.61,-530.45 630.39,-530.45 630.39,-530.45 636.39,-530.45 642.39,-536.45 642.39,-542.45 642.39,-542.45 642.39,-558.35 642.39,-558.35 642.39,-564.35 636.39,-570.35 630.39,-570.35"/>
<text xml:space="preserve" text-anchor="middle" x="554" y="-553.65" font-family="Helvetica,sans-Serif" font-size="10.00">load active FPGA bitstream</text>
<text xml:space="preserve" text-anchor="middle" x="554" y="-540.9" font-family="Helvetica,sans-Serif" font-size="10.00">(RECONFIG_N, stream via SSPI)</text>
</g>
<!-- devs&#45;&gt;loadf -->
<g id="edge12" class="edge">
<title>devs&#45;&gt;loadf</title>
<path fill="none" stroke="#546e7a" stroke-width="1.1" d="M539.89,-607.02C541.83,-599.39 544.1,-590.43 546.25,-581.96"/>
<polygon fill="#546e7a" stroke="#546e7a" stroke-width="1.1" points="549.58,-583.06 548.65,-572.5 542.8,-581.33 549.58,-583.06"/>
</g>
<!-- loadf&#45;&gt;d_fpga -->
<g id="edge13" class="edge">
<title>loadf&#45;&gt;d_fpga</title>
<path fill="none" stroke="#546e7a" stroke-width="1.1" d="M557.12,-530.04C558.82,-519.44 561.02,-505.8 563.16,-492.51"/>
<polygon fill="#546e7a" stroke="#546e7a" stroke-width="1.1" points="566.61,-493.08 564.75,-482.65 559.7,-491.96 566.61,-493.08"/>
</g>
<!-- loadg&#45;&gt;d_gold -->
<g id="edge16" class="edge">
<title>loadg&#45;&gt;d_gold</title>
<path fill="none" stroke="#546e7a" stroke-width="1.1" d="M568.49,-320.91C568.21,-311.47 567.85,-299.22 567.49,-287.01"/>
<polygon fill="#546e7a" stroke="#546e7a" stroke-width="1.1" points="570.99,-286.95 567.2,-277.06 563.99,-287.15 570.99,-286.95"/>
</g>
<!-- relf&#45;&gt;ready -->
<g id="edge19" class="edge">
<title>relf&#45;&gt;ready</title>
<path fill="none" stroke="#546e7a" stroke-width="1.1" d="M705,-103.01C705,-93.1 705,-80.32 705,-68.18"/>
<polygon fill="#546e7a" stroke="#546e7a" stroke-width="1.1" points="708.5,-68.53 705,-58.53 701.5,-68.53 708.5,-68.53"/>
</g>
</g>
</svg>
