<?xml version="1.0" encoding="UTF-8" standalone="no"?>
<!DOCTYPE svg PUBLIC "-//W3C//DTD SVG 1.1//EN"
 "http://www.w3.org/Graphics/SVG/1.1/DTD/svg11.dtd">
<!-- Generated by graphviz version 14.1.2 (0)
 -->
<!-- Title: wiring Pages: 1 -->
<svg width="630pt" height="800pt"
 viewBox="0.00 0.00 630.00 800.00" xmlns="http://www.w3.org/2000/svg" xmlns:xlink="http://www.w3.org/1999/xlink">
<g id="graph0" class="graph" transform="scale(1 1) rotate(0) translate(21.6 778.6)">
<title>wiring</title>
<polygon fill="white" stroke="none" points="-21.6,21.6 -21.6,-778.6 608.35,-778.6 608.35,21.6 -21.6,21.6"/>
<g id="clust1" class="cluster">
<title>cluster_stm32</title>
<path fill="#f4f9fe" stroke="#1976d2" stroke-width="2" d="M431,-8C431,-8 558.75,-8 558.75,-8 564.75,-8 570.75,-14 570.75,-20 570.75,-20 570.75,-305 570.75,-305 570.75,-311 564.75,-317 558.75,-317 558.75,-317 431,-317 431,-317 425,-317 419,-311 419,-305 419,-305 419,-20 419,-20 419,-14 425,-8 431,-8"/>
<text xml:space="preserve" text-anchor="middle" x="494.88" y="-300.65" font-family="Helvetica,sans-Serif" font-weight="bold" font-size="13.00" fill="#1565c0">STM32H755 (APM)</text>
</g>
<g id="clust2" class="cluster">
<title>cluster_ctrl</title>
<path fill="#f5fbf6" stroke="#388e3c" stroke-width="2" d="M20,-338C20,-338 566.75,-338 566.75,-338 572.75,-338 578.75,-344 578.75,-350 578.75,-350 578.75,-737 578.75,-737 578.75,-743 572.75,-749 566.75,-749 566.75,-749 20,-749 20,-749 14,-749 8,-743 8,-737 8,-737 8,-350 8,-350 8,-344 14,-338 20,-338"/>
<text xml:space="preserve" text-anchor="middle" x="78.62" y="-732.65" font-family="Helvetica,sans-Serif" font-weight="bold" font-size="13.00" fill="#2e7d32">CONTROL BOARD</text>
</g>
<!-- stm32 -->
<g id="node1" class="node">
<title>stm32</title>
<polygon fill="#e3f2fd" stroke="none" points="446.38,-23.88 446.38,-276.12 542.38,-276.12 542.38,-23.88 446.38,-23.88"/>
<polygon fill="#1976d2" stroke="none" points="447.38,-252.38 447.38,-275.12 541.38,-275.12 541.38,-252.38 447.38,-252.38"/>
<text xml:space="preserve" text-anchor="start" x="461.38" y="-261.62" font-family="Helvetica,sans-Serif" font-weight="bold" font-size="10.00" fill="white">STM32H755</text>
<text xml:space="preserve" text-anchor="start" x="472.62" y="-237.88" font-family="Helvetica,sans-Serif" font-size="10.00">AIN_X &#160;(ADC)</text>
<text xml:space="preserve" text-anchor="start" x="473.38" y="-215.12" font-family="Helvetica,sans-Serif" font-size="10.00">AIN_Y &#160;(ADC)</text>
<text xml:space="preserve" text-anchor="start" x="476.38" y="-192.38" font-family="Helvetica,sans-Serif" font-size="10.00">VOL1 &#160;(ADC)</text>
<text xml:space="preserve" text-anchor="start" x="476.38" y="-169.62" font-family="Helvetica,sans-Serif" font-size="10.00">VOL2 &#160;(ADC)</text>
<text xml:space="preserve" text-anchor="start" x="469.62" y="-146.88" font-family="Helvetica,sans-Serif" font-size="10.00">SEL_A &#160;(GPIO)</text>
<text xml:space="preserve" text-anchor="start" x="469.62" y="-124.12" font-family="Helvetica,sans-Serif" font-size="10.00">SEL_B &#160;(GPIO)</text>
<text xml:space="preserve" text-anchor="start" x="459.12" y="-101.38" font-family="Helvetica,sans-Serif" font-size="10.00">595 SER &#160;(GPIO)</text>
<text xml:space="preserve" text-anchor="start" x="453.12" y="-78.62" font-family="Helvetica,sans-Serif" font-size="10.00">595 SCLK &#160;(GPIO)</text>
<text xml:space="preserve" text-anchor="start" x="452.38" y="-55.88" font-family="Helvetica,sans-Serif" font-size="10.00">595 RCLK &#160;(GPIO)</text>
<text xml:space="preserve" text-anchor="start" x="467.38" y="-33.12" font-family="Helvetica,sans-Serif" font-size="10.00">SENSE &#160;(GPIO)</text>
<polygon fill="none" stroke="#1976d2" points="446.38,-23.88 446.38,-276.12 542.38,-276.12 542.38,-23.88 446.38,-23.88"/>
</g>
<!-- ffc -->
<g id="node2" class="node">
<title>ffc</title>
<polygon fill="#f3e5f5" stroke="none" points="240,-160.38 240,-321.62 340.5,-321.62 340.5,-160.38 240,-160.38"/>
<polygon fill="#6a1b9a" stroke="none" points="241,-297.88 241,-320.62 339.5,-320.62 339.5,-297.88 241,-297.88"/>
<text xml:space="preserve" text-anchor="start" x="246" y="-307.12" font-family="Helvetica,sans-Serif" font-weight="bold" font-size="10.00" fill="white">POTS FFC (10p)</text>
<text xml:space="preserve" text-anchor="start" x="246" y="-283.38" font-family="Helvetica,sans-Serif" font-size="10.00">SEL_A</text>
<text xml:space="preserve" text-anchor="start" x="305.25" y="-283.38" font-family="Helvetica,sans-Serif" font-size="10.00">SEL_A</text>
<text xml:space="preserve" text-anchor="start" x="246" y="-260.62" font-family="Helvetica,sans-Serif" font-size="10.00">SEL_B</text>
<text xml:space="preserve" text-anchor="start" x="305.25" y="-260.62" font-family="Helvetica,sans-Serif" font-size="10.00">SEL_B</text>
<text xml:space="preserve" text-anchor="start" x="246" y="-237.88" font-family="Helvetica,sans-Serif" font-size="10.00">AIN_X</text>
<text xml:space="preserve" text-anchor="start" x="305.25" y="-237.88" font-family="Helvetica,sans-Serif" font-size="10.00">AIN_X</text>
<text xml:space="preserve" text-anchor="start" x="246" y="-215.12" font-family="Helvetica,sans-Serif" font-size="10.00">AIN_Y</text>
<text xml:space="preserve" text-anchor="start" x="306" y="-215.12" font-family="Helvetica,sans-Serif" font-size="10.00">AIN_Y</text>
<text xml:space="preserve" text-anchor="start" x="246" y="-192.38" font-family="Helvetica,sans-Serif" font-size="10.00">VOL1</text>
<text xml:space="preserve" text-anchor="start" x="309" y="-192.38" font-family="Helvetica,sans-Serif" font-size="10.00">VOL1</text>
<text xml:space="preserve" text-anchor="start" x="246" y="-169.62" font-family="Helvetica,sans-Serif" font-size="10.00">VOL2</text>
<text xml:space="preserve" text-anchor="start" x="309" y="-169.62" font-family="Helvetica,sans-Serif" font-size="10.00">VOL2</text>
<polygon fill="none" stroke="#6a1b9a" points="240,-160.38 240,-321.62 340.5,-321.62 340.5,-160.38 240,-160.38"/>
</g>
<!-- stm32&#45;&gt;ffc -->
<g id="edge1" class="edge">
<title>stm32:sela&#45;&gt;ffc:l1</title>
<path fill="none" stroke="#37474f" stroke-width="1.2" d="M494.21,-176.91C494.21,-176.91 273.6,-176.91 273.6,-176.91"/>
<polygon fill="#37474f" stroke="#37474f" stroke-width="1.2" points="273.6,-174.81 267.6,-176.91 273.6,-179.01 273.6,-174.81"/>
</g>
<!-- stm32&#45;&gt;ffc -->
<g id="edge3" class="edge">
<title>stm32:selb&#45;&gt;ffc:l2</title>
<path fill="none" stroke="#37474f" stroke-width="1.2" d="M494.21,-193.45C494.21,-193.45 273.6,-193.45 273.6,-193.45"/>
<polygon fill="#37474f" stroke="#37474f" stroke-width="1.2" points="273.6,-191.35 267.6,-193.45 273.6,-195.55 273.6,-191.35"/>
</g>
<!-- sr -->
<g id="node4" class="node">
<title>sr</title>
<polygon fill="#e8f5e9" stroke="none" points="47.38,-354.5 47.38,-447.5 138.12,-447.5 138.12,-354.5 47.38,-354.5"/>
<polygon fill="#388e3c" stroke="none" points="48.38,-423.75 48.38,-446.5 137.12,-446.5 137.12,-423.75 48.38,-423.75"/>
<text xml:space="preserve" text-anchor="start" x="53.38" y="-433" font-family="Helvetica,sans-Serif" font-weight="bold" font-size="10.00" fill="white">74HC595 scan</text>
<text xml:space="preserve" text-anchor="start" x="53.38" y="-409.25" font-family="Helvetica,sans-Serif" font-size="10.00">SER</text>
<text xml:space="preserve" text-anchor="start" x="101.38" y="-409.25" font-family="Helvetica,sans-Serif" font-size="10.00">Q0&#45;Q2</text>
<text xml:space="preserve" text-anchor="start" x="53.38" y="-386.5" font-family="Helvetica,sans-Serif" font-size="10.00">SCLK</text>
<text xml:space="preserve" text-anchor="start" x="101.38" y="-386.5" font-family="Helvetica,sans-Serif" font-size="10.00">Q3&#45;Q5</text>
<text xml:space="preserve" text-anchor="start" x="53.38" y="-363.75" font-family="Helvetica,sans-Serif" font-size="10.00">RCLK</text>
<text xml:space="preserve" text-anchor="start" x="129.12" y="-363.75" font-family="Helvetica,sans-Serif" font-size="10.00"> </text>
<polygon fill="none" stroke="#388e3c" points="47.38,-354.5 47.38,-447.5 138.12,-447.5 138.12,-354.5 47.38,-354.5"/>
</g>
<!-- stm32&#45;&gt;sr -->
<g id="edge15" class="edge">
<title>stm32:ser&#45;&gt;sr:ser</title>
<path fill="none" stroke="#e65100" stroke-width="1.2" stroke-dasharray="5,2" d="M494.3,-58C487.77,-58 69.75,-58 69.75,-58 69.75,-58 69.75,-393.56 69.75,-393.56"/>
<polygon fill="#e65100" stroke="#e65100" stroke-width="1.2" points="67.65,-393.56 69.75,-399.56 71.85,-393.56 67.65,-393.56"/>
</g>
<!-- stm32&#45;&gt;sr -->
<g id="edge16" class="edge">
<title>stm32:sck&#45;&gt;sr:sck</title>
<path fill="none" stroke="#e65100" stroke-width="1.2" stroke-dasharray="5,2" d="M447.52,-92.12C341.57,-92.12 92.75,-92.12 92.75,-92.12 92.75,-92.12 92.75,-381.75 92.75,-381.75"/>
<polygon fill="#e65100" stroke="#e65100" stroke-width="1.2" points="90.65,-381.75 92.75,-387.75 94.85,-381.75 90.65,-381.75"/>
</g>
<!-- stm32&#45;&gt;sr -->
<g id="edge17" class="edge">
<title>stm32:rck&#45;&gt;sr:rck</title>
<path fill="none" stroke="#e65100" stroke-width="1.2" stroke-dasharray="5,2" d="M494.31,-126.25C488.48,-126.25 115.75,-126.25 115.75,-126.25 115.75,-126.25 115.75,-359.01 115.75,-359.01"/>
<polygon fill="#e65100" stroke="#e65100" stroke-width="1.2" points="113.65,-359.01 115.75,-365.01 117.85,-359.01 113.65,-359.01"/>
</g>
<!-- ffc&#45;&gt;stm32 -->
<g id="edge6" class="edge">
<title>ffc:l3&#45;&gt;stm32:ainx</title>
<path fill="none" stroke="#37474f" stroke-width="1.2" d="M265.79,-209.98C265.79,-209.98 486.4,-209.98 486.4,-209.98"/>
<polygon fill="#37474f" stroke="#37474f" stroke-width="1.2" points="486.4,-212.08 492.4,-209.98 486.4,-207.88 486.4,-212.08"/>
</g>
<!-- ffc&#45;&gt;stm32 -->
<g id="edge8" class="edge">
<title>ffc:l4&#45;&gt;stm32:ainy</title>
<path fill="none" stroke="#37474f" stroke-width="1.2" d="M290.11,-226.52C290.11,-226.52 439.71,-226.52 439.71,-226.52"/>
<polygon fill="#37474f" stroke="#37474f" stroke-width="1.2" points="439.71,-228.62 445.71,-226.52 439.71,-224.42 439.71,-228.62"/>
</g>
<!-- ffc&#45;&gt;stm32 -->
<g id="edge10" class="edge">
<title>ffc:l5&#45;&gt;stm32:vol1</title>
<path fill="none" stroke="#37474f" stroke-width="1.2" d="M265.79,-243.05C265.79,-243.05 486.4,-243.05 486.4,-243.05"/>
<polygon fill="#37474f" stroke="#37474f" stroke-width="1.2" points="486.4,-245.15 492.4,-243.05 486.4,-240.95 486.4,-245.15"/>
</g>
<!-- ffc&#45;&gt;stm32 -->
<g id="edge12" class="edge">
<title>ffc:l6&#45;&gt;stm32:vol2</title>
<path fill="none" stroke="#37474f" stroke-width="1.2" d="M265.79,-259.59C265.79,-259.59 486.4,-259.59 486.4,-259.59"/>
<polygon fill="#37474f" stroke="#37474f" stroke-width="1.2" points="486.4,-261.69 492.4,-259.59 486.4,-257.49 486.4,-261.69"/>
</g>
<!-- mux -->
<g id="node3" class="node">
<title>mux</title>
<polygon fill="#e8f5e9" stroke="none" points="242.25,-538.12 242.25,-653.88 338.25,-653.88 338.25,-538.12 242.25,-538.12"/>
<polygon fill="#388e3c" stroke="none" points="243.25,-630.12 243.25,-652.88 337.25,-652.88 337.25,-630.12 243.25,-630.12"/>
<text xml:space="preserve" text-anchor="start" x="248.25" y="-639.38" font-family="Helvetica,sans-Serif" font-weight="bold" font-size="10.00" fill="white">74HC4052 mux</text>
<text xml:space="preserve" text-anchor="start" x="248.25" y="-615.62" font-family="Helvetica,sans-Serif" font-size="10.00">A (sel)</text>
<text xml:space="preserve" text-anchor="start" x="304.5" y="-615.62" font-family="Helvetica,sans-Serif" font-size="10.00">Xcom</text>
<text xml:space="preserve" text-anchor="start" x="248.25" y="-592.88" font-family="Helvetica,sans-Serif" font-size="10.00">B (sel)</text>
<text xml:space="preserve" text-anchor="start" x="305.25" y="-592.88" font-family="Helvetica,sans-Serif" font-size="10.00">Ycom</text>
<text xml:space="preserve" text-anchor="start" x="248.25" y="-570.12" font-family="Helvetica,sans-Serif" font-size="10.00">X0&#45;X3</text>
<text xml:space="preserve" text-anchor="start" x="329.25" y="-570.12" font-family="Helvetica,sans-Serif" font-size="10.00"> </text>
<text xml:space="preserve" text-anchor="start" x="248.25" y="-547.38" font-family="Helvetica,sans-Serif" font-size="10.00">Y0&#45;Y3</text>
<text xml:space="preserve" text-anchor="start" x="329.25" y="-547.38" font-family="Helvetica,sans-Serif" font-size="10.00"> </text>
<polygon fill="none" stroke="#388e3c" points="242.25,-538.12 242.25,-653.88 338.25,-653.88 338.25,-538.12 242.25,-538.12"/>
</g>
<!-- ffc&#45;&gt;mux -->
<g id="edge2" class="edge">
<title>ffc:r1&#45;&gt;mux:a</title>
<path fill="none" stroke="#37474f" stroke-width="1.2" d="M315.01,-312.52C317.82,-312.52 362.75,-312.52 362.75,-312.52 362.75,-312.52 362.75,-561.27 362.75,-561.27 362.75,-561.27 275.57,-561.27 275.57,-561.27"/>
<polygon fill="#37474f" stroke="#37474f" stroke-width="1.2" points="275.57,-559.18 269.57,-561.28 275.57,-563.38 275.57,-559.18"/>
</g>
<!-- ffc&#45;&gt;mux -->
<g id="edge4" class="edge">
<title>ffc:r2&#45;&gt;mux:b</title>
<path fill="none" stroke="#37474f" stroke-width="1.2" d="M314.92,-303.43C316.86,-303.43 378.75,-303.43 378.75,-303.43 378.75,-303.43 378.75,-584.42 378.75,-584.42 378.75,-584.42 275.58,-584.42 275.58,-584.42"/>
<polygon fill="#37474f" stroke="#37474f" stroke-width="1.2" points="275.58,-582.33 269.58,-584.43 275.58,-586.53 275.58,-582.33"/>
</g>
<!-- mux&#45;&gt;ffc -->
<g id="edge5" class="edge">
<title>mux:xcom&#45;&gt;ffc:r3</title>
<path fill="none" stroke="#37474f" stroke-width="1.2" d="M336.99,-607.58C360.68,-607.58 394.75,-607.58 394.75,-607.58 394.75,-607.58 394.75,-294.32 394.75,-294.32 394.75,-294.32 322.75,-294.32 322.75,-294.32"/>
<polygon fill="#37474f" stroke="#37474f" stroke-width="1.2" points="322.75,-292.23 316.75,-294.33 322.75,-296.43 322.75,-292.23"/>
</g>
<!-- mux&#45;&gt;ffc -->
<g id="edge7" class="edge">
<title>mux:ycom&#45;&gt;ffc:r4</title>
<path fill="none" stroke="#37474f" stroke-width="1.2" d="M314.76,-630.73C317.63,-630.73 409.75,-630.73 409.75,-630.73 409.75,-630.73 409.75,-285.23 409.75,-285.23 409.75,-285.23 322.76,-285.23 322.76,-285.23"/>
<polygon fill="#37474f" stroke="#37474f" stroke-width="1.2" points="322.76,-283.13 316.76,-285.23 322.76,-287.33 322.76,-283.13"/>
</g>
<!-- dip1 -->
<g id="node9" class="node">
<title>dip1</title>
<path fill="white" stroke="#388e3c" d="M335,-455C335,-455 245.5,-455 245.5,-455 239.5,-455 233.5,-449 233.5,-443 233.5,-443 233.5,-431 233.5,-431 233.5,-425 239.5,-419 245.5,-419 245.5,-419 335,-419 335,-419 341,-419 347,-425 347,-431 347,-431 347,-443 347,-443 347,-449 341,-455 335,-455"/>
<text xml:space="preserve" text-anchor="middle" x="290.25" y="-433.88" font-family="Helvetica,sans-Serif" font-size="10.00">osc1 DIP: waveform</text>
</g>
<!-- sr&#45;&gt;dip1 -->
<g id="edge18" class="edge">
<title>sr:q02&#45;&gt;dip1</title>
<path fill="none" stroke="#37474f" stroke-width="1.2" d="M113.75,-433.25C113.75,-433.25 225.61,-433.25 225.61,-433.25"/>
<polygon fill="#37474f" stroke="#37474f" stroke-width="1.2" points="225.61,-435.35 231.61,-433.25 225.61,-431.15 225.61,-435.35"/>
</g>
<!-- dip2 -->
<g id="node10" class="node">
<title>dip2</title>
<path fill="white" stroke="#388e3c" d="M335,-390C335,-390 245.5,-390 245.5,-390 239.5,-390 233.5,-384 233.5,-378 233.5,-378 233.5,-366 233.5,-366 233.5,-360 239.5,-354 245.5,-354 245.5,-354 335,-354 335,-354 341,-354 347,-360 347,-366 347,-366 347,-378 347,-378 347,-384 341,-390 335,-390"/>
<text xml:space="preserve" text-anchor="middle" x="290.25" y="-368.88" font-family="Helvetica,sans-Serif" font-size="10.00">osc2 DIP: waveform</text>
</g>
<!-- sr&#45;&gt;dip2 -->
<g id="edge19" class="edge">
<title>sr:q35&#45;&gt;dip2</title>
<path fill="none" stroke="#37474f" stroke-width="1.2" d="M113.75,-372.25C113.75,-372.25 225.61,-372.25 225.61,-372.25"/>
<polygon fill="#37474f" stroke="#37474f" stroke-width="1.2" points="225.61,-374.35 231.61,-372.25 225.61,-370.15 225.61,-374.35"/>
</g>
<!-- adsr1 -->
<g id="node5" class="node">
<title>adsr1</title>
<path fill="white" stroke="#388e3c" d="M149.5,-708C149.5,-708 36,-708 36,-708 30,-708 24,-702 24,-696 24,-696 24,-684 24,-684 24,-678 30,-672 36,-672 36,-672 149.5,-672 149.5,-672 155.5,-672 161.5,-678 161.5,-684 161.5,-684 161.5,-696 161.5,-696 161.5,-702 155.5,-708 149.5,-708"/>
<text xml:space="preserve" text-anchor="middle" x="92.75" y="-686.88" font-family="Helvetica,sans-Serif" font-size="10.00">osc1 ADSR: 4x 10k slider</text>
</g>
<!-- adsr1&#45;&gt;mux -->
<g id="edge13" class="edge">
<title>adsr1&#45;&gt;mux:xb</title>
<path fill="none" stroke="#37474f" stroke-width="1.2" d="M161.93,-690C218.69,-690 289.75,-690 289.75,-690 289.75,-690 289.75,-592.26 289.75,-592.26"/>
<polygon fill="#37474f" stroke="#37474f" stroke-width="1.2" points="291.85,-592.26 289.75,-586.26 287.65,-592.26 291.85,-592.26"/>
<text xml:space="preserve" text-anchor="middle" x="255.21" y="-682.4" font-family="Helvetica,sans-Serif" font-size="8.00">x4 wipers</text>
</g>
<!-- adsr2 -->
<g id="node6" class="node">
<title>adsr2</title>
<path fill="white" stroke="#388e3c" d="M149.5,-643C149.5,-643 36,-643 36,-643 30,-643 24,-637 24,-631 24,-631 24,-619 24,-619 24,-613 30,-607 36,-607 36,-607 149.5,-607 149.5,-607 155.5,-607 161.5,-613 161.5,-619 161.5,-619 161.5,-631 161.5,-631 161.5,-637 155.5,-643 149.5,-643"/>
<text xml:space="preserve" text-anchor="middle" x="92.75" y="-621.88" font-family="Helvetica,sans-Serif" font-size="10.00">osc2 ADSR: 4x 10k slider</text>
</g>
<!-- adsr2&#45;&gt;mux -->
<g id="edge14" class="edge">
<title>adsr2&#45;&gt;mux:yb</title>
<path fill="none" stroke="#37474f" stroke-width="1.2" d="M161.89,-625C161.89,-625 259.71,-625 259.71,-625"/>
<polygon fill="#37474f" stroke="#37474f" stroke-width="1.2" points="259.71,-627.1 265.71,-625 259.71,-622.9 259.71,-627.1"/>
<text xml:space="preserve" text-anchor="middle" x="191.3" y="-617.4" font-family="Helvetica,sans-Serif" font-size="8.00">x4 wipers</text>
</g>
<!-- volpot1 -->
<g id="node7" class="node">
<title>volpot1</title>
<path fill="white" stroke="#388e3c" d="M134.88,-578C134.88,-578 50.62,-578 50.62,-578 44.62,-578 38.62,-572 38.62,-566 38.62,-566 38.62,-554 38.62,-554 38.62,-548 44.62,-542 50.62,-542 50.62,-542 134.88,-542 134.88,-542 140.88,-542 146.88,-548 146.88,-554 146.88,-554 146.88,-566 146.88,-566 146.88,-572 140.88,-578 134.88,-578"/>
<text xml:space="preserve" text-anchor="middle" x="92.75" y="-556.88" font-family="Helvetica,sans-Serif" font-size="10.00">osc1 volume: 250k</text>
</g>
<!-- volpot1&#45;&gt;ffc -->
<g id="edge9" class="edge">
<title>volpot1&#45;&gt;ffc:r5</title>
<path fill="none" stroke="#37474f" stroke-width="1.2" d="M147.22,-560C151.23,-560 153.75,-560 153.75,-560 153.75,-560 153.75,-267.88 153.75,-267.88 153.75,-267.88 306.94,-267.88 306.94,-267.88"/>
<polygon fill="#37474f" stroke="#37474f" stroke-width="1.2" points="306.94,-269.98 312.94,-267.88 306.94,-265.78 306.94,-269.98"/>
</g>
<!-- volpot2 -->
<g id="node8" class="node">
<title>volpot2</title>
<path fill="white" stroke="#388e3c" d="M134.88,-513C134.88,-513 50.62,-513 50.62,-513 44.62,-513 38.62,-507 38.62,-501 38.62,-501 38.62,-489 38.62,-489 38.62,-483 44.62,-477 50.62,-477 50.62,-477 134.88,-477 134.88,-477 140.88,-477 146.88,-483 146.88,-489 146.88,-489 146.88,-501 146.88,-501 146.88,-507 140.88,-513 134.88,-513"/>
<text xml:space="preserve" text-anchor="middle" x="92.75" y="-491.88" font-family="Helvetica,sans-Serif" font-size="10.00">osc2 volume: 250k</text>
</g>
<!-- volpot2&#45;&gt;ffc -->
<g id="edge11" class="edge">
<title>volpot2&#45;&gt;ffc:r6</title>
<path fill="none" stroke="#37474f" stroke-width="1.2" d="M142.75,-476.57C142.75,-414.08 142.75,-214.12 142.75,-214.12 142.75,-214.12 306.93,-214.12 306.93,-214.12"/>
<polygon fill="#37474f" stroke="#37474f" stroke-width="1.2" points="306.93,-216.23 312.93,-214.13 306.93,-212.03 306.93,-216.23"/>
</g>
<!-- sense -->
<g id="node11" class="node">
<title>sense</title>
<path fill="#fff3e0" stroke="#e65100" d="M550.75,-390C550.75,-390 438,-390 438,-390 432,-390 426,-384 426,-378 426,-378 426,-366 426,-366 426,-360 432,-354 438,-354 438,-354 550.75,-354 550.75,-354 556.75,-354 562.75,-360 562.75,-366 562.75,-366 562.75,-378 562.75,-378 562.75,-384 556.75,-390 550.75,-390"/>
<text xml:space="preserve" text-anchor="middle" x="494.38" y="-368.88" font-family="Helvetica,sans-Serif" font-size="10.00">sense node (10k pull&#45;up)</text>
</g>
<!-- dip1&#45;&gt;sense -->
<g id="edge20" class="edge">
<title>dip1&#45;&gt;sense</title>
<path fill="none" stroke="#37474f" stroke-width="1.2" d="M347.49,-437C407.98,-437 494.75,-437 494.75,-437 494.75,-437 494.75,-398.27 494.75,-398.27"/>
<polygon fill="#37474f" stroke="#37474f" stroke-width="1.2" points="496.85,-398.27 494.75,-392.27 492.65,-398.27 496.85,-398.27"/>
</g>
<!-- dip2&#45;&gt;sense -->
<g id="edge21" class="edge">
<title>dip2&#45;&gt;sense</title>
<path fill="none" stroke="#37474f" stroke-width="1.2" d="M347.38,-372C347.38,-372 417.84,-372 417.84,-372"/>
<polygon fill="#37474f" stroke="#37474f" stroke-width="1.2" points="417.84,-374.1 423.84,-372 417.84,-369.9 417.84,-374.1"/>
</g>
<!-- sense&#45;&gt;stm32 -->
<g id="edge22" class="edge">
<title>sense&#45;&gt;stm32:sense</title>
<path fill="none" stroke="#e65100" stroke-width="1.2" stroke-dasharray="5,2" d="M494.75,-353.95C494.75,-353.95 494.75,-55.18 494.75,-55.18"/>
<polygon fill="#e65100" stroke="#e65100" stroke-width="1.2" points="496.85,-55.18 494.75,-49.18 492.65,-55.18 496.85,-55.18"/>
</g>
</g>
</svg>
