M48
; DRILL file {KiCad 9.0.2+dfsg-1} date 2025-06-27T18:37:09-0700
; FORMAT={-:-/ absolute / inch / decimal}
; #@! TF.CreationDate,2025-06-27T18:37:09-07:00
; #@! TF.GenerationSoftware,Kicad,Pcbnew,9.0.2+dfsg-1
; #@! TF.FileFunction,Plated,1,4,PTH
FMAT,2
INCH
; #@! TA.AperFunction,Plated,PTH,ViaDrill
T1C0.0118
; #@! TA.AperFunction,Plated,PTH,ComponentDrill
T2C0.0197
; #@! TA.AperFunction,Plated,PTH,ComponentDrill
T3C0.0315
; #@! TA.AperFunction,Plated,PTH,ComponentDrill
T4C0.0394
; #@! TA.AperFunction,Plated,PTH,ComponentDrill
T5C0.0402
; #@! TA.AperFunction,Plated,PTH,ComponentDrill
T6C0.0421
%
G90
G05
T1
X19.2146Y-5.6693
X19.2165Y-5.8465
X19.2165Y-6.0079
X19.5433Y-5.6378
X19.5433Y-5.8031
X19.5433Y-5.9724
X19.5433Y-6.1378
X20.1693Y-5.689
X20.1693Y-5.7913
X20.1693Y-5.8425
X20.1693Y-6.0
X20.1693Y-6.0512
X20.1693Y-6.1024
X20.1693Y-6.1496
X20.5039Y-5.7976
X20.5039Y-5.8449
X20.5039Y-6.1063
X20.5039Y-6.1535
X20.8109Y-6.4449
X20.8129Y-6.7047
X20.8129Y-7.2264
X20.8148Y-6.1811
X20.8148Y-6.9665
X20.8169Y-7.4843
X20.8543Y-5.7087
X21.2165Y-5.7087
X21.2244Y-6.4433
X21.2268Y-6.6953
X21.2268Y-6.9591
X21.2268Y-7.215
X21.2283Y-6.3921
X21.2283Y-6.652
X21.2283Y-6.9079
X21.2283Y-7.1677
X21.2307Y-7.4827
X21.2323Y-6.1299
X21.2323Y-6.1795
X21.2323Y-7.4354
X21.3504Y-6.3189
X21.3504Y-6.3701
X21.3504Y-6.5787
X21.3504Y-6.6299
X21.3504Y-6.8386
X21.3504Y-6.8898
X21.3504Y-7.0984
X21.3504Y-7.1496
X21.3504Y-7.3622
X21.3504Y-7.4134
X21.3543Y-6.0591
X21.3543Y-6.1102
X21.4171Y-6.4197
X21.4171Y-7.1992
X21.4211Y-6.1417
X21.4211Y-6.6795
X21.4211Y-6.9394
X21.4213Y-7.4646
X21.6417Y-5.5079
X21.6417Y-6.3071
X21.6417Y-6.5709
X21.6417Y-6.8307
X21.6417Y-7.0984
X21.6417Y-7.3622
X21.6417Y-7.6102
X21.6457Y-3.563
X21.6457Y-3.6614
X21.6457Y-6.0709
X21.7165Y-7.5669
X21.7173Y-6.2524
X21.7173Y-6.5043
X21.7173Y-6.7681
X21.7173Y-7.0201
X21.7173Y-7.2917
X21.748Y-7.3268
X21.7657Y-6.4016
X21.7717Y-6.2795
X21.7717Y-6.7835
X21.7717Y-7.0433
X21.7724Y-6.5244
X21.7795Y-6.0236
X21.7874Y-6.1417
X21.7894Y-7.1673
X21.7913Y-6.6457
X21.7913Y-6.9055
X21.7913Y-7.4488
T2
X13.9665Y-2.1181
X14.0059Y-2.1181
X14.0453Y-2.1181
X14.4606Y-2.1181
X14.5Y-2.1181
X14.5394Y-2.1181
X14.9488Y-2.1181
X14.9882Y-2.1181
X15.0276Y-2.1181
X15.4429Y-2.1211
X15.4823Y-2.1211
X15.5217Y-2.1211
X15.9331Y-2.1181
X15.9724Y-2.1181
X16.0118Y-2.1181
X21.9222Y-6.1341
X21.9222Y-6.1734
X21.9222Y-6.385
X21.9222Y-6.4244
X21.9222Y-6.636
X21.9222Y-6.6754
X21.9222Y-6.887
X21.9222Y-6.9264
X21.9222Y-7.138
X21.9222Y-7.1774
X21.9222Y-7.4016
X21.9222Y-7.4409
T3
X9.037Y-3.1197
X9.037Y-3.2197
X9.037Y-3.3197
X9.037Y-3.4197
X9.037Y-3.5197
X9.237Y-3.1197
X9.237Y-3.2197
X9.237Y-3.3197
X9.237Y-3.4197
X9.237Y-3.5197
X9.3827Y-3.1197
X9.3827Y-3.2197
X9.3827Y-3.3197
X9.3827Y-3.4197
X9.3827Y-3.5197
X9.5827Y-3.1197
X9.5827Y-3.2197
X9.5827Y-3.3197
X9.5827Y-3.4197
X9.5827Y-3.5197
X9.7213Y-3.1197
X9.7213Y-3.2197
X9.7213Y-3.3197
X9.7213Y-3.4197
X9.7213Y-3.5197
X9.9213Y-3.1197
X9.9213Y-3.2197
X9.9213Y-3.3197
X9.9213Y-3.4197
X9.9213Y-3.5197
X19.4362Y-7.1457
X19.4362Y-7.2457
X19.4362Y-7.3457
X19.4362Y-7.4457
X19.4366Y-6.4732
X19.4366Y-6.5732
X19.4366Y-6.6732
X19.4366Y-6.7732
X19.7362Y-7.1457
X19.7362Y-7.2457
X19.7362Y-7.3457
X19.7362Y-7.4457
X19.7366Y-6.4732
X19.7366Y-6.5732
X19.7366Y-6.6732
X19.7366Y-6.7732
X20.0465Y-6.4567
X20.0465Y-6.7567
X20.0465Y-7.1535
X20.0465Y-7.4535
X20.1465Y-6.4567
X20.1465Y-6.7567
X20.1465Y-7.1535
X20.1465Y-7.4535
X20.2465Y-6.4567
X20.2465Y-6.7567
X20.2465Y-7.1535
X20.2465Y-7.4535
X20.3465Y-6.4567
X20.3465Y-6.7567
X20.3465Y-7.1535
X20.3465Y-7.4535
X21.9157Y-5.5157
X22.0157Y-5.5157
T4
X7.9819Y-2.2307
X7.9819Y-2.8307
X8.0819Y-2.2307
X8.0819Y-2.8307
X8.1319Y-2.3808
X8.1319Y-2.4808
X8.1319Y-2.5808
X8.1319Y-2.6808
X8.1819Y-2.2307
X8.1819Y-2.8307
X8.2819Y-2.2307
X8.2819Y-2.8307
X8.3819Y-2.2307
X8.3819Y-2.8307
X8.4819Y-2.2307
X8.4819Y-2.8307
X8.5819Y-2.2307
X8.5819Y-2.8307
X8.6819Y-2.2307
X8.6819Y-2.8307
X8.7819Y-2.2307
X8.7819Y-2.8307
X8.8819Y-2.2307
X8.8819Y-2.8307
X8.9819Y-2.2307
X8.9819Y-2.8307
X9.0819Y-2.2307
X9.0819Y-2.8307
X9.1819Y-2.2307
X9.1819Y-2.8307
X9.2819Y-2.2307
X9.2819Y-2.8307
X9.3819Y-2.2307
X9.3819Y-2.8307
X9.4819Y-2.2307
X9.4819Y-2.8307
X9.5819Y-2.2307
X9.5819Y-2.8307
X9.6819Y-2.2307
X9.6819Y-2.8307
X9.7819Y-2.2307
X9.7819Y-2.8307
X9.8819Y-2.2307
X9.8819Y-2.8307
X11.089Y-3.4571
X11.089Y-3.5571
X11.089Y-3.6571
X11.089Y-3.7571
X11.089Y-3.8571
X11.089Y-3.9571
X11.089Y-4.0571
X11.089Y-4.1571
X11.089Y-4.2571
X11.089Y-4.3571
X11.089Y-4.4571
X11.089Y-4.5571
X11.089Y-4.6571
X11.089Y-4.7571
X11.089Y-4.8571
X11.089Y-4.9571
X11.089Y-5.0571
X11.089Y-5.1571
X11.089Y-5.2571
X11.089Y-5.3571
X11.089Y-5.4571
X11.089Y-5.5571
X11.089Y-5.6571
X11.089Y-5.7571
X11.089Y-5.8571
X11.089Y-5.9571
X11.089Y-6.0571
X11.089Y-6.1571
X11.089Y-6.2571
X11.089Y-6.3571
X11.089Y-6.4571
X11.089Y-6.5571
X11.089Y-6.6571
X11.089Y-6.7571
X11.089Y-6.8571
X11.089Y-6.9571
X11.189Y-3.4571
X11.189Y-3.5571
X11.189Y-3.6571
X11.189Y-3.7571
X11.189Y-3.8571
X11.189Y-3.9571
X11.189Y-4.0571
X11.189Y-4.1571
X11.189Y-4.2571
X11.189Y-4.3571
X11.189Y-4.4571
X11.189Y-4.5571
X11.189Y-4.6571
X11.189Y-4.7571
X11.189Y-4.8571
X11.189Y-4.9571
X11.189Y-5.0571
X11.189Y-5.1571
X11.189Y-5.2571
X11.189Y-5.3571
X11.189Y-5.4571
X11.189Y-5.5571
X11.189Y-5.6571
X11.189Y-5.7571
X11.189Y-5.8571
X11.189Y-5.9571
X11.189Y-6.0571
X11.189Y-6.1571
X11.189Y-6.2571
X11.189Y-6.3571
X11.189Y-6.4571
X11.189Y-6.5571
X11.189Y-6.6571
X11.189Y-6.7571
X11.189Y-6.8571
X11.189Y-6.9571
X11.389Y-3.8571
X11.389Y-3.9571
X11.389Y-4.0571
X11.389Y-4.1571
X11.389Y-4.2571
X11.389Y-4.3571
X11.389Y-4.4571
X11.389Y-4.5571
X11.389Y-4.7571
X11.389Y-4.8571
X11.389Y-4.9571
X11.389Y-5.0571
X11.389Y-5.1571
X11.389Y-5.2571
X11.389Y-5.3571
X11.389Y-5.4571
X11.389Y-5.5571
X11.389Y-5.6571
X11.389Y-5.7571
X11.389Y-5.8571
X11.389Y-5.9571
X11.389Y-6.0571
X11.389Y-6.1571
X11.489Y-3.8571
X11.489Y-3.9571
X11.489Y-4.0571
X11.489Y-4.1571
X11.489Y-4.2571
X11.489Y-4.3571
X11.489Y-4.4571
X11.489Y-4.5571
X11.489Y-4.7571
X11.489Y-4.8571
X11.489Y-4.9571
X11.489Y-5.0571
X11.489Y-5.1571
X11.489Y-5.2571
X11.489Y-5.3571
X11.489Y-5.4571
X11.489Y-5.5571
X11.489Y-5.6571
X11.489Y-5.7571
X11.489Y-5.8571
X11.489Y-5.9571
X11.489Y-6.0571
X11.489Y-6.1571
X13.189Y-3.4971
X13.189Y-3.5971
X13.189Y-3.6971
X13.189Y-3.7971
X13.189Y-3.8971
X13.189Y-3.9971
X13.189Y-4.0971
X13.189Y-4.1971
X13.189Y-4.2971
X13.189Y-4.3971
X13.189Y-4.5571
X13.189Y-4.6571
X13.189Y-4.7571
X13.189Y-4.8571
X13.189Y-4.9571
X13.189Y-5.0571
X13.189Y-5.1571
X13.189Y-5.2571
X13.189Y-5.3571
X13.189Y-5.4571
X13.189Y-5.5571
X13.189Y-5.6571
X13.189Y-5.7571
X13.189Y-5.8571
X13.189Y-5.9571
X13.189Y-6.0571
X13.189Y-6.1571
X13.289Y-3.4971
X13.289Y-3.5971
X13.289Y-3.6971
X13.289Y-3.7971
X13.289Y-3.8971
X13.289Y-3.9971
X13.289Y-4.0971
X13.289Y-4.1971
X13.289Y-4.2971
X13.289Y-4.3971
X13.289Y-4.5571
X13.289Y-4.6571
X13.289Y-4.7571
X13.289Y-4.8571
X13.289Y-4.9571
X13.289Y-5.0571
X13.289Y-5.1571
X13.289Y-5.2571
X13.289Y-5.3571
X13.289Y-5.4571
X13.289Y-5.5571
X13.289Y-5.6571
X13.289Y-5.7571
X13.289Y-5.8571
X13.289Y-5.9571
X13.289Y-6.0571
X13.289Y-6.1571
X13.489Y-3.4579
X13.489Y-3.5579
X13.489Y-3.6579
X13.489Y-3.7579
X13.489Y-3.8579
X13.489Y-3.9579
X13.489Y-4.0579
X13.489Y-4.1579
X13.489Y-4.2579
X13.489Y-4.3579
X13.489Y-4.4579
X13.489Y-4.5579
X13.489Y-4.6579
X13.489Y-4.7579
X13.489Y-4.8579
X13.489Y-4.9579
X13.489Y-5.0579
X13.489Y-5.1579
X13.489Y-5.2579
X13.489Y-5.3579
X13.489Y-5.4579
X13.489Y-5.5579
X13.489Y-5.6579
X13.489Y-5.7579
X13.489Y-5.8579
X13.489Y-5.9579
X13.489Y-6.0579
X13.489Y-6.1579
X13.489Y-6.2579
X13.489Y-6.3579
X13.489Y-6.4579
X13.489Y-6.5579
X13.489Y-6.6579
X13.489Y-6.7579
X13.489Y-6.8579
X13.489Y-6.9579
X13.589Y-3.4579
X13.589Y-3.5579
X13.589Y-3.6579
X13.589Y-3.7579
X13.589Y-3.8579
X13.589Y-3.9579
X13.589Y-4.0579
X13.589Y-4.1579
X13.589Y-4.2579
X13.589Y-4.3579
X13.589Y-4.4579
X13.589Y-4.5579
X13.589Y-4.6579
X13.589Y-4.7579
X13.589Y-4.8579
X13.589Y-4.9579
X13.589Y-5.0579
X13.589Y-5.1579
X13.589Y-5.2579
X13.589Y-5.3579
X13.589Y-5.4579
X13.589Y-5.5579
X13.589Y-5.6579
X13.589Y-5.7579
X13.589Y-5.8579
X13.589Y-5.9579
X13.589Y-6.0579
X13.589Y-6.1579
X13.589Y-6.2579
X13.589Y-6.3579
X13.589Y-6.4579
X13.589Y-6.5579
X13.589Y-6.6579
X13.589Y-6.7579
X13.589Y-6.8579
X13.589Y-6.9579
X14.1614Y-4.0543
X14.1614Y-4.1543
X14.1614Y-4.2543
X14.1614Y-4.3543
X14.1614Y-4.4543
X14.1614Y-4.5543
X14.1614Y-4.6543
X14.1614Y-4.7543
X14.1614Y-4.8543
X14.1614Y-4.9543
X14.1614Y-5.0543
X14.1614Y-5.1543
X14.1614Y-5.2543
X14.1614Y-5.3543
X14.1614Y-5.4543
X14.1614Y-5.5543
X14.1614Y-5.6543
X14.1614Y-5.7543
X14.1614Y-5.8543
X14.1614Y-5.9543
X14.1614Y-6.0543
X14.1614Y-6.1543
X14.1614Y-6.2543
X14.1614Y-6.3543
X14.5157Y-4.0543
X14.5157Y-4.1543
X14.5157Y-4.2543
X14.5157Y-4.3543
X14.5157Y-4.4543
X14.5157Y-4.5543
X14.5157Y-4.6543
X14.5157Y-4.7543
X14.5157Y-4.8543
X14.5157Y-4.9543
X14.5157Y-5.0543
X14.5157Y-5.1543
X14.5157Y-5.2543
X14.5157Y-5.3543
X14.5157Y-5.4543
X14.5157Y-5.5543
X14.5157Y-5.6543
X14.5157Y-5.7543
X14.5157Y-5.8543
X14.5157Y-5.9543
X14.5157Y-6.0543
X14.5157Y-6.1543
X14.5157Y-6.2543
X14.5157Y-6.3543
X15.4335Y-4.0543
X15.4335Y-4.1543
X15.4335Y-4.2543
X15.4335Y-4.3543
X15.4335Y-4.4543
X15.4335Y-4.5543
X15.4335Y-4.6543
X15.4335Y-4.7543
X15.4335Y-4.8543
X15.4335Y-4.9543
X15.4335Y-5.0543
X15.4335Y-5.1543
X15.4335Y-5.2543
X15.4335Y-5.3543
X15.4335Y-5.4543
X15.4335Y-5.5543
X15.4335Y-5.6543
X15.4335Y-5.7543
X15.4335Y-5.8543
X15.4335Y-5.9543
X15.4335Y-6.0543
X15.4335Y-6.1543
X15.4335Y-6.2543
X15.4335Y-6.3543
X15.7878Y-4.0528
X15.7878Y-4.1528
X15.7878Y-4.2528
X15.7878Y-4.3528
X15.7878Y-4.4528
X15.7878Y-4.5528
X15.7878Y-4.6528
X15.7878Y-4.7528
X15.7878Y-4.8528
X15.7878Y-4.9528
X15.7878Y-5.0528
X15.7878Y-5.1528
X15.7878Y-5.2528
X15.7878Y-5.3528
X15.7878Y-5.4528
X15.7878Y-5.5528
X15.7878Y-5.6528
X15.7878Y-5.7528
X15.7878Y-5.8528
X15.7878Y-5.9528
X15.7878Y-6.0528
X15.7878Y-6.1528
X15.7878Y-6.2528
X15.7878Y-6.3528
X16.3929Y-3.4598
X16.3929Y-3.5598
X16.3929Y-3.6598
X16.3929Y-3.7598
X16.3929Y-3.8598
X16.3929Y-3.9598
X16.3929Y-4.0598
X16.3929Y-4.1598
X16.3929Y-4.2598
X16.3929Y-4.3598
X16.3929Y-4.4598
X16.3929Y-4.5598
X16.3929Y-4.6598
X16.3929Y-4.7598
X16.3929Y-4.8598
X16.3929Y-4.9598
X16.3929Y-5.0598
X16.3929Y-5.1598
X16.3929Y-5.2598
X16.3929Y-5.3598
X16.3929Y-5.4598
X16.3929Y-5.5598
X16.3929Y-5.6598
X16.3929Y-5.7598
X16.3929Y-5.8598
X16.3929Y-5.9598
X16.3929Y-6.0598
X16.3929Y-6.1598
X16.3929Y-6.2598
X16.3929Y-6.3598
X16.3929Y-6.4598
X16.3929Y-6.5598
X16.3929Y-6.6598
X16.3929Y-6.7598
X16.3929Y-6.8598
X16.3929Y-6.9598
X16.4929Y-3.4598
X16.4929Y-3.5598
X16.4929Y-3.6598
X16.4929Y-3.7598
X16.4929Y-3.8598
X16.4929Y-3.9598
X16.4929Y-4.0598
X16.4929Y-4.1598
X16.4929Y-4.2598
X16.4929Y-4.3598
X16.4929Y-4.4598
X16.4929Y-4.5598
X16.4929Y-4.6598
X16.4929Y-4.7598
X16.4929Y-4.8598
X16.4929Y-4.9598
X16.4929Y-5.0598
X16.4929Y-5.1598
X16.4929Y-5.2598
X16.4929Y-5.3598
X16.4929Y-5.4598
X16.4929Y-5.5598
X16.4929Y-5.6598
X16.4929Y-5.7598
X16.4929Y-5.8598
X16.4929Y-5.9598
X16.4929Y-6.0598
X16.4929Y-6.1598
X16.4929Y-6.2598
X16.4929Y-6.3598
X16.4929Y-6.4598
X16.4929Y-6.5598
X16.4929Y-6.6598
X16.4929Y-6.7598
X16.4929Y-6.8598
X16.4929Y-6.9598
X16.6929Y-3.8598
X16.6929Y-3.9598
X16.6929Y-4.0598
X16.6929Y-4.1598
X16.6929Y-4.2598
X16.6929Y-4.3598
X16.6929Y-4.4598
X16.6929Y-4.5598
X16.6929Y-4.7598
X16.6929Y-4.8598
X16.6929Y-4.9598
X16.6929Y-5.0598
X16.6929Y-5.1598
X16.6929Y-5.2598
X16.6929Y-5.3598
X16.6929Y-5.4598
X16.6929Y-5.5598
X16.6929Y-5.6598
X16.6929Y-5.7598
X16.6929Y-5.8598
X16.6929Y-5.9598
X16.6929Y-6.0598
X16.6929Y-6.1598
X16.7929Y-3.8598
X16.7929Y-3.9598
X16.7929Y-4.0598
X16.7929Y-4.1598
X16.7929Y-4.2598
X16.7929Y-4.3598
X16.7929Y-4.4598
X16.7929Y-4.5598
X16.7929Y-4.7598
X16.7929Y-4.8598
X16.7929Y-4.9598
X16.7929Y-5.0598
X16.7929Y-5.1598
X16.7929Y-5.2598
X16.7929Y-5.3598
X16.7929Y-5.4598
X16.7929Y-5.5598
X16.7929Y-5.6598
X16.7929Y-5.7598
X16.7929Y-5.8598
X16.7929Y-5.9598
X16.7929Y-6.0598
X16.7929Y-6.1598
X18.4929Y-3.4998
X18.4929Y-3.5998
X18.4929Y-3.6998
X18.4929Y-3.7998
X18.4929Y-3.8998
X18.4929Y-3.9998
X18.4929Y-4.0998
X18.4929Y-4.1998
X18.4929Y-4.2998
X18.4929Y-4.3998
X18.4929Y-4.5598
X18.4929Y-4.6598
X18.4929Y-4.7598
X18.4929Y-4.8598
X18.4929Y-4.9598
X18.4929Y-5.0598
X18.4929Y-5.1598
X18.4929Y-5.2598
X18.4929Y-5.3598
X18.4929Y-5.4598
X18.4929Y-5.5598
X18.4929Y-5.6598
X18.4929Y-5.7598
X18.4929Y-5.8598
X18.4929Y-5.9598
X18.4929Y-6.0598
X18.4929Y-6.1598
X18.5929Y-3.4998
X18.5929Y-3.5998
X18.5929Y-3.6998
X18.5929Y-3.7998
X18.5929Y-3.8998
X18.5929Y-3.9998
X18.5929Y-4.0998
X18.5929Y-4.1998
X18.5929Y-4.2998
X18.5929Y-4.3998
X18.5929Y-4.5598
X18.5929Y-4.6598
X18.5929Y-4.7598
X18.5929Y-4.8598
X18.5929Y-4.9598
X18.5929Y-5.0598
X18.5929Y-5.1598
X18.5929Y-5.2598
X18.5929Y-5.3598
X18.5929Y-5.4598
X18.5929Y-5.5598
X18.5929Y-5.6598
X18.5929Y-5.7598
X18.5929Y-5.8598
X18.5929Y-5.9598
X18.5929Y-6.0598
X18.5929Y-6.1598
X18.7929Y-3.4606
X18.7929Y-3.5606
X18.7929Y-3.6606
X18.7929Y-3.7606
X18.7929Y-3.8606
X18.7929Y-3.9606
X18.7929Y-4.0606
X18.7929Y-4.1606
X18.7929Y-4.2606
X18.7929Y-4.3606
X18.7929Y-4.4606
X18.7929Y-4.5606
X18.7929Y-4.6606
X18.7929Y-4.7606
X18.7929Y-4.8606
X18.7929Y-4.9606
X18.7929Y-5.0606
X18.7929Y-5.1606
X18.7929Y-5.2606
X18.7929Y-5.3606
X18.7929Y-5.4606
X18.7929Y-5.5606
X18.7929Y-5.6606
X18.7929Y-5.7606
X18.7929Y-5.8606
X18.7929Y-5.9606
X18.7929Y-6.0606
X18.7929Y-6.1606
X18.7929Y-6.2606
X18.7929Y-6.3606
X18.7929Y-6.4606
X18.7929Y-6.5606
X18.7929Y-6.6606
X18.7929Y-6.7606
X18.7929Y-6.8606
X18.7929Y-6.9606
X18.8929Y-3.4606
X18.8929Y-3.5606
X18.8929Y-3.6606
X18.8929Y-3.7606
X18.8929Y-3.8606
X18.8929Y-3.9606
X18.8929Y-4.0606
X18.8929Y-4.1606
X18.8929Y-4.2606
X18.8929Y-4.3606
X18.8929Y-4.4606
X18.8929Y-4.5606
X18.8929Y-4.6606
X18.8929Y-4.7606
X18.8929Y-4.8606
X18.8929Y-4.9606
X18.8929Y-5.0606
X18.8929Y-5.1606
X18.8929Y-5.2606
X18.8929Y-5.3606
X18.8929Y-5.4606
X18.8929Y-5.5606
X18.8929Y-5.6606
X18.8929Y-5.7606
X18.8929Y-5.8606
X18.8929Y-5.9606
X18.8929Y-6.0606
X18.8929Y-6.1606
X18.8929Y-6.2606
X18.8929Y-6.3606
X18.8929Y-6.4606
X18.8929Y-6.5606
X18.8929Y-6.6606
X18.8929Y-6.7606
X18.8929Y-6.8606
X18.8929Y-6.9606
T5
X7.8181Y-5.5831
X7.8181Y-5.6831
X7.8181Y-5.7831
X7.8181Y-5.8831
X7.8181Y-5.9831
X7.8181Y-6.0831
X7.8181Y-6.1831
X7.8181Y-6.2831
X7.8181Y-6.3831
X7.8181Y-6.4831
X7.8181Y-6.5831
X7.8181Y-6.6831
X7.8181Y-6.7831
X7.8181Y-6.8831
X7.8181Y-6.9831
X7.8181Y-7.0831
X7.8181Y-7.1831
X7.8181Y-7.2831
X7.8181Y-7.3831
X7.9181Y-5.5831
X7.9181Y-5.6831
X7.9181Y-5.7831
X7.9181Y-5.8831
X7.9181Y-5.9831
X7.9181Y-6.0831
X7.9181Y-6.1831
X7.9181Y-6.2831
X7.9181Y-6.3831
X7.9181Y-6.4831
X7.9181Y-6.5831
X7.9181Y-6.6831
X7.9181Y-6.7831
X7.9181Y-6.8831
X7.9181Y-6.9831
X7.9181Y-7.0831
X7.9181Y-7.1831
X7.9181Y-7.2831
X7.9181Y-7.3831
X10.2181Y-5.5831
X10.2181Y-5.6831
X10.2181Y-5.7831
X10.2181Y-5.8831
X10.2181Y-5.9831
X10.2181Y-6.0831
X10.2181Y-6.1831
X10.2181Y-6.2831
X10.2181Y-6.3831
X10.2181Y-6.4831
X10.2181Y-6.5831
X10.2181Y-6.6831
X10.2181Y-6.7831
X10.2181Y-6.8831
X10.2181Y-6.9831
X10.2181Y-7.0831
X10.2181Y-7.1831
X10.2181Y-7.2831
X10.2181Y-7.3831
X10.3181Y-5.5831
X10.3181Y-5.6831
X10.3181Y-5.7831
X10.3181Y-5.8831
X10.3181Y-5.9831
X10.3181Y-6.0831
X10.3181Y-6.1831
X10.3181Y-6.2831
X10.3181Y-6.3831
X10.3181Y-6.4831
X10.3181Y-6.5831
X10.3181Y-6.6831
X10.3181Y-6.7831
X10.3181Y-6.8831
X10.3181Y-6.9831
X10.3181Y-7.0831
X10.3181Y-7.1831
X10.3181Y-7.2831
X10.3181Y-7.3831
X19.3449Y-3.4252
X19.3449Y-3.5252
X19.3449Y-3.6252
X19.3449Y-3.7252
X19.3449Y-3.8252
X19.3449Y-3.9252
X19.3449Y-4.0252
X19.3449Y-4.1252
X19.3449Y-4.2252
X19.3449Y-4.3252
X19.3449Y-4.4252
X19.3449Y-4.5252
X19.3449Y-4.6252
X19.3449Y-4.7252
X19.3449Y-4.8252
X19.3449Y-4.9252
X19.3449Y-5.0252
X19.3449Y-5.1252
X19.3449Y-5.2252
X19.4449Y-3.4252
X19.4449Y-3.5252
X19.4449Y-3.6252
X19.4449Y-3.7252
X19.4449Y-3.8252
X19.4449Y-3.9252
X19.4449Y-4.0252
X19.4449Y-4.1252
X19.4449Y-4.2252
X19.4449Y-4.3252
X19.4449Y-4.4252
X19.4449Y-4.5252
X19.4449Y-4.6252
X19.4449Y-4.7252
X19.4449Y-4.8252
X19.4449Y-4.9252
X19.4449Y-5.0252
X19.4449Y-5.1252
X19.4449Y-5.2252
X21.7449Y-3.4252
X21.7449Y-3.5252
X21.7449Y-3.6252
X21.7449Y-3.7252
X21.7449Y-3.8252
X21.7449Y-3.9252
X21.7449Y-4.0252
X21.7449Y-4.1252
X21.7449Y-4.2252
X21.7449Y-4.3252
X21.7449Y-4.4252
X21.7449Y-4.5252
X21.7449Y-4.6252
X21.7449Y-4.7252
X21.7449Y-4.8252
X21.7449Y-4.9252
X21.7449Y-5.0252
X21.7449Y-5.1252
X21.7449Y-5.2252
X21.8449Y-3.4252
X21.8449Y-3.5252
X21.8449Y-3.6252
X21.8449Y-3.7252
X21.8449Y-3.8252
X21.8449Y-3.9252
X21.8449Y-4.0252
X21.8449Y-4.1252
X21.8449Y-4.2252
X21.8449Y-4.3252
X21.8449Y-4.4252
X21.8449Y-4.5252
X21.8449Y-4.6252
X21.8449Y-4.7252
X21.8449Y-4.8252
X21.8449Y-4.9252
X21.8449Y-5.0252
X21.8449Y-5.1252
X21.8449Y-5.2252
T6
X8.1181Y-5.9831
X8.1181Y-6.0831
X8.1181Y-6.1831
X8.1181Y-6.2831
X8.1181Y-6.3831
X8.1181Y-6.4831
X8.1181Y-6.5831
X8.1181Y-6.6831
X8.1181Y-6.8831
X8.1181Y-6.9831
X8.1181Y-7.0831
X8.1181Y-7.1831
X8.1181Y-7.2831
X8.1181Y-7.3831
X10.0181Y-5.6232
X10.0181Y-5.7232
X10.0181Y-5.8232
X10.0181Y-5.9232
X10.0181Y-6.0232
X10.0181Y-6.1232
X10.0181Y-6.2232
X10.0181Y-6.3232
X10.0181Y-6.4232
X10.0181Y-6.5232
X10.0181Y-6.6831
X10.0181Y-6.7831
X10.0181Y-6.8831
X10.0181Y-6.9831
X10.0181Y-7.0831
X10.0181Y-7.1831
X10.0181Y-7.2831
X10.0181Y-7.3831
X19.6449Y-3.8252
X19.6449Y-3.9252
X19.6449Y-4.0252
X19.6449Y-4.1252
X19.6449Y-4.2252
X19.6449Y-4.3252
X19.6449Y-4.4252
X19.6449Y-4.5252
X19.6449Y-4.7252
X19.6449Y-4.8252
X19.6449Y-4.9252
X19.6449Y-5.0252
X19.6449Y-5.1252
X19.6449Y-5.2252
X21.5449Y-3.4654
X21.5449Y-3.5654
X21.5449Y-3.6654
X21.5449Y-3.7654
X21.5449Y-3.8654
X21.5449Y-3.9654
X21.5449Y-4.0654
X21.5449Y-4.1654
X21.5449Y-4.2654
X21.5449Y-4.3654
X21.5449Y-4.5252
X21.5449Y-4.6252
X21.5449Y-4.7252
X21.5449Y-4.8252
X21.5449Y-4.9252
X21.5449Y-5.0252
X21.5449Y-5.1252
X21.5449Y-5.2252
M30
