%TF.GenerationSoftware,KiCad,Pcbnew,9.0.2+dfsg-1*%
%TF.CreationDate,2025-06-27T18:37:09-07:00*%
%TF.ProjectId,signalmesh,7369676e-616c-46d6-9573-682e6b696361,rev?*%
%TF.SameCoordinates,Original*%
%TF.FileFunction,Copper,L2,Inr*%
%TF.FilePolarity,Positive*%
%FSLAX46Y46*%
G04 Gerber Fmt 4.6, Leading zero omitted, Abs format (unit mm)*
G04 Created by KiCad (PCBNEW 9.0.2+dfsg-1) date 2025-06-27 18:37:09*
%MOMM*%
%LPD*%
G01*
G04 APERTURE LIST*
G04 Aperture macros list*
%AMRoundRect*
0 Rectangle with rounded corners*
0 $1 Rounding radius*
0 $2 $3 $4 $5 $6 $7 $8 $9 X,Y pos of 4 corners*
0 Add a 4 corners polygon primitive as box body*
4,1,4,$2,$3,$4,$5,$6,$7,$8,$9,$2,$3,0*
0 Add four circle primitives for the rounded corners*
1,1,$1+$1,$2,$3*
1,1,$1+$1,$4,$5*
1,1,$1+$1,$6,$7*
1,1,$1+$1,$8,$9*
0 Add four rect primitives between the rounded corners*
20,1,$1+$1,$2,$3,$4,$5,0*
20,1,$1+$1,$4,$5,$6,$7,0*
20,1,$1+$1,$6,$7,$8,$9,0*
20,1,$1+$1,$8,$9,$2,$3,0*%
G04 Aperture macros list end*
%TA.AperFunction,ComponentPad*%
%ADD10C,0.850000*%
%TD*%
%TA.AperFunction,ComponentPad*%
%ADD11R,0.850000X0.850000*%
%TD*%
%TA.AperFunction,ComponentPad*%
%ADD12C,1.600000*%
%TD*%
%TA.AperFunction,ComponentPad*%
%ADD13RoundRect,0.250000X0.550000X-0.550000X0.550000X0.550000X-0.550000X0.550000X-0.550000X-0.550000X0*%
%TD*%
%TA.AperFunction,ComponentPad*%
%ADD14C,1.508000*%
%TD*%
%TA.AperFunction,ComponentPad*%
%ADD15R,1.508000X1.508000*%
%TD*%
%TA.AperFunction,ComponentPad*%
%ADD16RoundRect,0.250000X-0.550000X0.550000X-0.550000X-0.550000X0.550000X-0.550000X0.550000X0.550000X0*%
%TD*%
%TA.AperFunction,ComponentPad*%
%ADD17C,1.530000*%
%TD*%
%TA.AperFunction,ComponentPad*%
%ADD18R,1.530000X1.530000*%
%TD*%
%TA.AperFunction,ComponentPad*%
%ADD19C,1.605000*%
%TD*%
%TA.AperFunction,ComponentPad*%
%ADD20R,1.605000X1.605000*%
%TD*%
%TA.AperFunction,ComponentPad*%
%ADD21C,1.700000*%
%TD*%
%TA.AperFunction,ComponentPad*%
%ADD22R,1.700000X1.700000*%
%TD*%
%TA.AperFunction,ComponentPad*%
%ADD23RoundRect,0.250000X-0.550000X-0.550000X0.550000X-0.550000X0.550000X0.550000X-0.550000X0.550000X0*%
%TD*%
%TA.AperFunction,ComponentPad*%
%ADD24R,1.600000X1.600000*%
%TD*%
%TA.AperFunction,ComponentPad*%
%ADD25RoundRect,0.250000X0.550000X0.550000X-0.550000X0.550000X-0.550000X-0.550000X0.550000X-0.550000X0*%
%TD*%
%TA.AperFunction,ViaPad*%
%ADD26C,0.600000*%
%TD*%
%TA.AperFunction,Conductor*%
%ADD27C,0.300000*%
%TD*%
G04 APERTURE END LIST*
D10*
%TO.N,Net-(J7-Pin_1)*%
%TO.C,J7*%
X556825000Y-169555000D03*
D11*
X556825000Y-168555000D03*
%TD*%
D12*
%TO.N,unconnected-(U30-Rs-Pad8)*%
%TO.C,U30*%
X509180000Y-164000000D03*
%TO.N,/CAN+*%
X511720000Y-164000000D03*
%TO.N,/CAN-*%
X514260000Y-164000000D03*
%TO.N,unconnected-(U30-Vref-Pad5)*%
X516800000Y-164000000D03*
%TO.N,DSM_CAN_TD*%
X516800000Y-171620000D03*
%TO.N,VDD_DSM*%
X514260000Y-171620000D03*
%TO.N,GND*%
X511720000Y-171620000D03*
D13*
%TO.N,DSM_CAN_RD*%
X509180000Y-171620000D03*
%TD*%
D10*
%TO.N,Net-(J5-Pin_1)*%
%TO.C,J5*%
X556825000Y-156805000D03*
D11*
X556825000Y-155805000D03*
%TD*%
D14*
%TO.N,Net-(U17B-GND_CN12-PadCN12_20)*%
%TO.C,U17*%
X479880000Y-176800000D03*
X477340000Y-176800000D03*
%TO.N,unconnected-(U17B-PG6-PadCN12_70)*%
X479880000Y-174260000D03*
%TO.N,unconnected-(U17B-PG4-PadCN12_69)*%
X477340000Y-174260000D03*
%TO.N,unconnected-(U17B-PG5-PadCN12_68)*%
X479880000Y-171720000D03*
%TO.N,unconnected-(U17B-PG7-PadCN12_67)*%
X477340000Y-171720000D03*
%TO.N,unconnected-(U17B-PG8-PadCN12_66)*%
X479880000Y-169180000D03*
%TO.N,unconnected-(U17B-PD10-PadCN12_65)*%
X477340000Y-169180000D03*
%TO.N,unconnected-(U17B-PE0-PadCN12_64)*%
X479880000Y-166640000D03*
%TO.N,Net-(U17B-GND_CN12-PadCN12_20)*%
X477340000Y-166640000D03*
%TO.N,unconnected-(U17B-PF11-PadCN12_62)*%
X479880000Y-164100000D03*
%TO.N,unconnected-(U17B-PG14-PadCN12_61)*%
X477340000Y-164100000D03*
%TO.N,unconnected-(U17B-PF15-PadCN12_60)*%
X479880000Y-161560000D03*
%TO.N,unconnected-(U17B-PF12-PadCN12_59)*%
X477340000Y-161560000D03*
%TO.N,unconnected-(U17B-PF3-PadCN12_58)*%
X479880000Y-159020000D03*
%TO.N,unconnected-(U17B-PF13-PadCN12_57)*%
X477340000Y-159020000D03*
%TO.N,unconnected-(U17B-PE11-PadCN12_56)*%
X479880000Y-156480000D03*
%TO.N,unconnected-(U17B-PE13-PadCN12_55)*%
X477340000Y-156480000D03*
%TO.N,Net-(U17B-GND_CN12-PadCN12_20)*%
X479880000Y-153940000D03*
%TO.N,unconnected-(U17B-PE15-PadCN12_53)*%
X477340000Y-153940000D03*
%TO.N,unconnected-(U17B-PE9-PadCN12_52)*%
X479880000Y-151400000D03*
%TO.N,unconnected-(U17B-PE14-PadCN12_51)*%
X477340000Y-151400000D03*
%TO.N,unconnected-(U17B-PF14-PadCN12_50)*%
X479880000Y-148860000D03*
%TO.N,unconnected-(U17B-PE12-PadCN12_49)*%
X477340000Y-148860000D03*
%TO.N,unconnected-(U17B-PD15-PadCN12_48)*%
X479880000Y-146320000D03*
%TO.N,unconnected-(U17B-PE10-PadCN12_47)*%
X477340000Y-146320000D03*
%TO.N,unconnected-(U17B-PD14-PadCN12_46)*%
X479880000Y-143780000D03*
%TO.N,unconnected-(U17B-PD11-PadCN12_45)*%
X477340000Y-143780000D03*
%TO.N,unconnected-(U17B-PE7-PadCN12_44)*%
X479880000Y-141240000D03*
%TO.N,unconnected-(U17B-PD12-PadCN12_43)*%
X477340000Y-141240000D03*
%TO.N,unconnected-(U17B-PF10-PadCN12_42)*%
X479880000Y-138700000D03*
%TO.N,unconnected-(U17B-PD13-PadCN12_41)*%
X477340000Y-138700000D03*
%TO.N,unconnected-(U17B-PE8-PadCN12_40)*%
X479880000Y-136160000D03*
%TO.N,Net-(U17B-GND_CN12-PadCN12_20)*%
X477340000Y-136160000D03*
%TO.N,unconnected-(U17B-PF4-PadCN12_38)*%
X479880000Y-133620000D03*
%TO.N,unconnected-(U17B-PA3-PadCN12_37)*%
X477340000Y-133620000D03*
%TO.N,unconnected-(U17B-PF5-PadCN12_36)*%
X479880000Y-131080000D03*
%TO.N,unconnected-(U17B-PA2-PadCN12_35)*%
X477340000Y-131080000D03*
%TO.N,unconnected-(U17B-PC4-PadCN12_34)*%
X479880000Y-128540000D03*
%TO.N,unconnected-(U17B-PA10-PadCN12_33)*%
X477340000Y-128540000D03*
%TO.N,unconnected-(U17B-AGND_CN12-PadCN12_32)*%
X479880000Y-126000000D03*
%TO.N,unconnected-(U17B-PB3-PadCN12_31)*%
X477340000Y-126000000D03*
%TO.N,unconnected-(U17B-PB13-PadCN12_30)*%
X479880000Y-123460000D03*
%TO.N,unconnected-(U17B-PB5-PadCN12_29)*%
X477340000Y-123460000D03*
%TO.N,unconnected-(U17B-PB14-PadCN12_28)*%
X479880000Y-120920000D03*
%TO.N,unconnected-(U17B-PB4-PadCN12_27)*%
X477340000Y-120920000D03*
%TO.N,unconnected-(U17B-PB15-PadCN12_26)*%
X479880000Y-118380000D03*
%TO.N,unconnected-(U17B-PB10-PadCN12_25)*%
X477340000Y-118380000D03*
%TO.N,unconnected-(U17B-PB1-PadCN12_24)*%
X479880000Y-115840000D03*
%TO.N,unconnected-(U17B-PA8-PadCN12_23)*%
X477340000Y-115840000D03*
%TO.N,unconnected-(U17B-PB2-PadCN12_22)*%
X479880000Y-113300000D03*
%TO.N,unconnected-(U17B-PA9-PadCN12_21)*%
X477340000Y-113300000D03*
%TO.N,Net-(U17B-GND_CN12-PadCN12_20)*%
X479880000Y-110760000D03*
%TO.N,unconnected-(U17B-PC7-PadCN12_19)*%
X477340000Y-110760000D03*
%TO.N,unconnected-(U17B-PB11-PadCN12_18)*%
X479880000Y-108220000D03*
%TO.N,unconnected-(U17B-PB6-PadCN12_17)*%
X477340000Y-108220000D03*
%TO.N,unconnected-(U17B-PB12-PadCN12_16)*%
X479880000Y-105680000D03*
%TO.N,unconnected-(U17B-PA7-PadCN12_15)*%
X477340000Y-105680000D03*
%TO.N,unconnected-(U17B-PA11-PadCN12_14)*%
X479880000Y-103140000D03*
%TO.N,unconnected-(U17B-PA6-PadCN12_13)*%
X477340000Y-103140000D03*
%TO.N,unconnected-(U17B-PA12-PadCN12_12)*%
X479880000Y-100600000D03*
%TO.N,AAM_DAC_L*%
X477340000Y-100600000D03*
%TO.N,unconnected-(U17B-PD8-PadCN12_10)*%
X479880000Y-98060000D03*
%TO.N,Net-(U17B-GND_CN12-PadCN12_20)*%
X477340000Y-98060000D03*
%TO.N,unconnected-(U17B-5V_USB_STLK-PadCN12_8)*%
X479880000Y-95520000D03*
%TO.N,unconnected-(U17B-VREFP-PadCN12_7)*%
X477340000Y-95520000D03*
%TO.N,unconnected-(U17B-PC5-PadCN12_6)*%
X479880000Y-92980000D03*
%TO.N,DSM_CAN_TD*%
X477340000Y-92980000D03*
%TO.N,unconnected-(U17B-PC6-PadCN12_4)*%
X479880000Y-90440000D03*
%TO.N,DSM_CAN_RD*%
X477340000Y-90440000D03*
%TO.N,unconnected-(U17B-PC8-PadCN12_2)*%
X479880000Y-87900000D03*
D15*
%TO.N,unconnected-(U17B-PC9-PadCN12_1)*%
X477340000Y-87900000D03*
D14*
%TO.N,GND*%
X418920000Y-176780000D03*
X416380000Y-176780000D03*
%TO.N,unconnected-(U17A-PG11-PadCN11_70)*%
X418920000Y-174240000D03*
%TO.N,unconnected-(U17A-PD9-PadCN11_69)*%
X416380000Y-174240000D03*
%TO.N,unconnected-(U17A-PG13-PadCN11_68)*%
X418920000Y-171700000D03*
%TO.N,unconnected-(U17A-NC-PadCN11_67)*%
X416380000Y-171700000D03*
%TO.N,unconnected-(U17A-PG10-PadCN11_66)*%
X418920000Y-169160000D03*
%TO.N,unconnected-(U17A-PG12-PadCN11_65)*%
X416380000Y-169160000D03*
%TO.N,unconnected-(U17A-PG15-PadCN11_64)*%
X418920000Y-166620000D03*
%TO.N,unconnected-(U17A-PG9-PadCN11_63)*%
X416380000Y-166620000D03*
%TO.N,AAM_INTRPT_RX*%
X418920000Y-164080000D03*
%TO.N,unconnected-(U17A-PE1-PadCN11_61)*%
X416380000Y-164080000D03*
%TO.N,GND*%
X418920000Y-161540000D03*
%TO.N,unconnected-(U17A-PG0-PadCN11_59)*%
X416380000Y-161540000D03*
%TO.N,unconnected-(U17A-PG1-PadCN11_58)*%
X418920000Y-159000000D03*
%TO.N,unconnected-(U17A-PD0-PadCN11_57)*%
X416380000Y-159000000D03*
%TO.N,unconnected-(U17A-PF9-PadCN11_56)*%
X418920000Y-156460000D03*
%TO.N,unconnected-(U17A-PD1-PadCN11_55)*%
X416380000Y-156460000D03*
%TO.N,unconnected-(U17A-PF8-PadCN11_54)*%
X418920000Y-153920000D03*
%TO.N,unconnected-(U17A-PF0-PadCN11_53)*%
X416380000Y-153920000D03*
%TO.N,unconnected-(U17A-PF2-PadCN11_52)*%
X418920000Y-151380000D03*
%TO.N,unconnected-(U17A-PF1-PadCN11_51)*%
X416380000Y-151380000D03*
%TO.N,unconnected-(U17A-PE5-PadCN11_50)*%
X418920000Y-148840000D03*
%TO.N,GND*%
X416380000Y-148840000D03*
%TO.N,unconnected-(U17A-PE4-PadCN11_48)*%
X418920000Y-146300000D03*
%TO.N,AAM_INTRPT_TX*%
X416380000Y-146300000D03*
%TO.N,unconnected-(U17A-PE2-PadCN11_46)*%
X418920000Y-143760000D03*
%TO.N,unconnected-(U17A-PD7-PadCN11_45)*%
X416380000Y-143760000D03*
%TO.N,unconnected-(U17A-PG3-PadCN11_44)*%
X418920000Y-141220000D03*
%TO.N,unconnected-(U17A-PD6-PadCN11_43)*%
X416380000Y-141220000D03*
%TO.N,unconnected-(U17A-PG2-PadCN11_42)*%
X418920000Y-138680000D03*
%TO.N,unconnected-(U17A-PD5-PadCN11_41)*%
X416380000Y-138680000D03*
%TO.N,unconnected-(U17A-PD3-PadCN11_40)*%
X418920000Y-136140000D03*
%TO.N,unconnected-(U17A-PD4-PadCN11_39)*%
X416380000Y-136140000D03*
%TO.N,unconnected-(U17A-PC0-PadCN11_38)*%
X418920000Y-133600000D03*
%TO.N,unconnected-(U17A-PC3-PadCN11_37)*%
X416380000Y-133600000D03*
%TO.N,unconnected-(U17A-PC1-PadCN11_36)*%
X418920000Y-131060000D03*
%TO.N,unconnected-(U17A-PC2-PadCN11_35)*%
X416380000Y-131060000D03*
%TO.N,unconnected-(U17A-PB0-PadCN11_34)*%
X418920000Y-128520000D03*
%TO.N,unconnected-(U17A-VBAT-PadCN11_33)*%
X416380000Y-128520000D03*
%TO.N,AAM_DAC_R*%
X418920000Y-125980000D03*
%TO.N,unconnected-(U17A-PH1-PadCN11_31)*%
X416380000Y-125980000D03*
%TO.N,unconnected-(U17A-PA1-PadCN11_30)*%
X418920000Y-123440000D03*
%TO.N,unconnected-(U17A-PH0-PadCN11_29)*%
X416380000Y-123440000D03*
%TO.N,unconnected-(U17A-PA0-PadCN11_28)*%
X418920000Y-120900000D03*
%TO.N,unconnected-(U17A-PC15-PadCN11_27)*%
X416380000Y-120900000D03*
%TO.N,unconnected-(U17A-NC-PadCN11_26)*%
X418920000Y-118360000D03*
%TO.N,unconnected-(U17A-PC14-PadCN11_25)*%
X416380000Y-118360000D03*
%TO.N,unconnected-(U17A-VIN-PadCN11_24)*%
X418920000Y-115820000D03*
%TO.N,unconnected-(U17A-PC13-PadCN11_23)*%
X416380000Y-115820000D03*
%TO.N,GND*%
X418920000Y-113280000D03*
%TO.N,unconnected-(U17A-PB7-PadCN11_21)*%
X416380000Y-113280000D03*
%TO.N,GND*%
X418920000Y-110740000D03*
X416380000Y-110740000D03*
%TO.N,5V_AAM*%
X418920000Y-108200000D03*
%TO.N,unconnected-(U17A-PA15-PadCN11_17)*%
X416380000Y-108200000D03*
%TO.N,unconnected-(U17A-3V3-PadCN11_16)*%
X418920000Y-105660000D03*
%TO.N,unconnected-(U17A-PA14-PadCN11_15)*%
X416380000Y-105660000D03*
%TO.N,unconnected-(U17A-NRST-PadCN11_14)*%
X418920000Y-103120000D03*
%TO.N,unconnected-(U17A-PA13-PadCN11_13)*%
X416380000Y-103120000D03*
%TO.N,unconnected-(U17A-IOREF-PadCN11_12)*%
X418920000Y-100580000D03*
%TO.N,unconnected-(U17A-PF7-PadCN11_11)*%
X416380000Y-100580000D03*
%TO.N,unconnected-(U17A-NC-PadCN11_10)*%
X418920000Y-98040000D03*
%TO.N,unconnected-(U17A-PF6-PadCN11_9)*%
X416380000Y-98040000D03*
%TO.N,GND*%
X418920000Y-95500000D03*
%TO.N,unconnected-(U17A-BOOT0-PadCN11_7)*%
X416380000Y-95500000D03*
%TO.N,unconnected-(U17A-5V_EXT-PadCN11_6)*%
X418920000Y-92960000D03*
%TO.N,unconnected-(U17A-3V3_VDD-PadCN11_5)*%
X416380000Y-92960000D03*
%TO.N,DSM_DBG_RX*%
X418920000Y-90420000D03*
%TO.N,DSM_DBG_TX*%
X416380000Y-90420000D03*
%TO.N,unconnected-(U17A-PC11-PadCN11_2)*%
X418920000Y-87880000D03*
D15*
%TO.N,unconnected-(U17A-PC10-PadCN11_1)*%
X416380000Y-87880000D03*
D14*
%TO.N,unconnected-(U17F-D35{slash}TIMER_C_PWM3-PadCN10_34)*%
X472260000Y-156460000D03*
%TO.N,unconnected-(U17F-D34{slash}TIMER_B_ETR-PadCN10_33)*%
X469720000Y-156460000D03*
%TO.N,unconnected-(U17F-D36{slash}TIMER_C_PWM2-PadCN10_32)*%
X472260000Y-153920000D03*
%TO.N,unconnected-(U17F-D33{slash}TIMER_D_PWM1-PadCN10_31)*%
X469720000Y-153920000D03*
%TO.N,unconnected-(U17F-D37{slash}TIMER_A_BKIN1-PadCN10_30)*%
X472260000Y-151380000D03*
%TO.N,unconnected-(U17F-D32{slash}TIMER_C_PWM1-PadCN10_29)*%
X469720000Y-151380000D03*
%TO.N,unconnected-(U17F-D38{slash}TIMER_A_BKIN2-PadCN10_28)*%
X472260000Y-148840000D03*
%TO.N,Net-(U17F-GND_CN10-PadCN10_17)*%
X469720000Y-148840000D03*
%TO.N,unconnected-(U17F-D39{slash}TIMER_A_PWM3N-PadCN10_26)*%
X472260000Y-146300000D03*
%TO.N,unconnected-(U17F-D31{slash}QSPI_BK1_IO2-PadCN10_25)*%
X469720000Y-146300000D03*
%TO.N,unconnected-(U17F-D40{slash}TIMER_A_PWM2N-PadCN10_24)*%
X472260000Y-143760000D03*
%TO.N,unconnected-(U17F-D30{slash}QSPI_BK1_IO0-PadCN10_23)*%
X469720000Y-143760000D03*
%TO.N,Net-(U17F-GND_CN10-PadCN10_17)*%
X472260000Y-141220000D03*
%TO.N,unconnected-(U17F-D29{slash}QSPI_BK1_IO1-PadCN10_21)*%
X469720000Y-141220000D03*
%TO.N,unconnected-(U17F-D41{slash}TIMER_A_ETR-PadCN10_20)*%
X472260000Y-138680000D03*
%TO.N,unconnected-(U17F-D28{slash}QSPI_BK1_IO3-PadCN10_19)*%
X469720000Y-138680000D03*
%TO.N,unconnected-(U17F-D42{slash}TIMER_A_PWM1N-PadCN10_18)*%
X472260000Y-136140000D03*
%TO.N,Net-(U17F-GND_CN10-PadCN10_17)*%
X469720000Y-136140000D03*
%TO.N,unconnected-(U17F-D0{slash}USART_A_RX-PadCN10_16)*%
X472260000Y-133600000D03*
%TO.N,unconnected-(U17F-D27{slash}QSPI_CLK-PadCN10_15)*%
X469720000Y-133600000D03*
%TO.N,unconnected-(U17F-D1{slash}USART_A_TX-PadCN10_14)*%
X472260000Y-131060000D03*
%TO.N,unconnected-(U17F-D26{slash}QSPI_CS-PadCN10_13)*%
X469720000Y-131060000D03*
%TO.N,unconnected-(U17F-D2{slash}IO-PadCN10_12)*%
X472260000Y-128520000D03*
%TO.N,unconnected-(U17F-A8{slash}ADC_C_IN-PadCN10_11)*%
X469720000Y-128520000D03*
%TO.N,unconnected-(U17F-D3{slash}TIMER_A_PWM3-PadCN10_10)*%
X472260000Y-125980000D03*
%TO.N,unconnected-(U17F-A7{slash}ADC_B_IN-PadCN10_9)*%
X469720000Y-125980000D03*
%TO.N,unconnected-(U17F-D4{slash}IO-PadCN10_8)*%
X472260000Y-123440000D03*
%TO.N,unconnected-(U17F-A6{slash}ADC_A_IN-PadCN10_7)*%
X469720000Y-123440000D03*
%TO.N,unconnected-(U17F-D5{slash}TIMER_A_PWM2-PadCN10_6)*%
X472260000Y-120900000D03*
%TO.N,Net-(U17F-GND_CN10-PadCN10_17)*%
X469720000Y-120900000D03*
%TO.N,unconnected-(U17F-D6{slash}TIMER_A_PWM1-PadCN10_4)*%
X472260000Y-118360000D03*
%TO.N,unconnected-(U17F-AGND_CN10-PadCN10_3)*%
X469720000Y-118360000D03*
%TO.N,unconnected-(U17F-D7{slash}IO-PadCN10_2)*%
X472260000Y-115820000D03*
D15*
%TO.N,unconnected-(U17F-AVDD-PadCN10_1)*%
X469720000Y-115820000D03*
D14*
%TO.N,unconnected-(U17D-D64{slash}IO-PadCN9_30)*%
X426540000Y-156460000D03*
%TO.N,unconnected-(U17D-D65{slash}IO-PadCN9_29)*%
X424000000Y-156460000D03*
%TO.N,unconnected-(U17D-D63{slash}SAI_B_FS-PadCN9_28)*%
X426540000Y-153920000D03*
%TO.N,unconnected-(U17D-D66{slash}CAN_TX-PadCN9_27)*%
X424000000Y-153920000D03*
%TO.N,unconnected-(U17D-D62{slash}SAI_B_MCLK-PadCN9_26)*%
X426540000Y-151380000D03*
%TO.N,unconnected-(U17D-D67{slash}CAN_RX-PadCN9_25)*%
X424000000Y-151380000D03*
%TO.N,unconnected-(U17D-D61{slash}SAI_B_SCK-PadCN9_24)*%
X426540000Y-148840000D03*
%TO.N,Net-(U17D-GND_CN9-PadCN9_12)*%
X424000000Y-148840000D03*
%TO.N,unconnected-(U17D-D60{slash}SAI_B_SD-PadCN9_22)*%
X426540000Y-146300000D03*
%TO.N,unconnected-(U17D-D68{slash}I2C_B_SDA-PadCN9_21)*%
X424000000Y-146300000D03*
%TO.N,unconnected-(U17D-D59{slash}SAI_A_SD-PadCN9_20)*%
X426540000Y-143760000D03*
%TO.N,unconnected-(U17D-D69{slash}I2C_B_SCL-PadCN9_19)*%
X424000000Y-143760000D03*
%TO.N,unconnected-(U17D-D58{slash}SAI_A_SCK-PadCN9_18)*%
X426540000Y-141220000D03*
%TO.N,unconnected-(U17D-D70{slash}I2C_B_SMBA-PadCN9_17)*%
X424000000Y-141220000D03*
%TO.N,unconnected-(U17D-D57{slash}SAI_A_FS-PadCN9_16)*%
X426540000Y-138680000D03*
%TO.N,unconnected-(U17D-D71{slash}COMP2_INP-PadCN9_15)*%
X424000000Y-138680000D03*
%TO.N,unconnected-(U17D-D56{slash}SAI_A_MCLK-PadCN9_14)*%
X426540000Y-136140000D03*
%TO.N,unconnected-(U17D-D72{slash}COMP1_INP-PadCN9_13)*%
X424000000Y-136140000D03*
%TO.N,Net-(U17D-GND_CN9-PadCN9_12)*%
X426540000Y-133600000D03*
%TO.N,unconnected-(U17D-A5{slash}ADC3_INP6{slash}I2C1_SCL-PadCN9_11)*%
X424000000Y-133600000D03*
%TO.N,unconnected-(U17D-D55{slash}USART_B_CTS-PadCN9_10)*%
X426540000Y-131060000D03*
%TO.N,unconnected-(U17D-A4{slash}ADC123_INP12{slash}I2C1_SDA-PadCN9_9)*%
X424000000Y-131060000D03*
%TO.N,unconnected-(U17D-D54{slash}USART_B_RTS-PadCN9_8)*%
X426540000Y-128520000D03*
%TO.N,unconnected-(U17D-A3{slash}ADC12_INP5-PadCN9_7)*%
X424000000Y-128520000D03*
%TO.N,unconnected-(U17D-D53{slash}USART_B_TX-PadCN9_6)*%
X426540000Y-125980000D03*
%TO.N,unconnected-(U17D-A2{slash}ADC12_INP13-PadCN9_5)*%
X424000000Y-125980000D03*
%TO.N,unconnected-(U17D-D52{slash}USART_B_RX-PadCN9_4)*%
X426540000Y-123440000D03*
%TO.N,unconnected-(U17D-A1{slash}ADC123_INP10-PadCN9_3)*%
X424000000Y-123440000D03*
%TO.N,unconnected-(U17D-D51{slash}USART_B_SCLK-PadCN9_2)*%
X426540000Y-120900000D03*
D15*
%TO.N,unconnected-(U17D-A0{slash}ADC12_INP15-PadCN9_1)*%
X424000000Y-120900000D03*
D14*
%TO.N,unconnected-(U17C-D50{slash}IO-PadCN8_16)*%
X426540000Y-115820000D03*
%TO.N,unconnected-(U17C-VIN_CN8-PadCN8_15)*%
X424000000Y-115820000D03*
%TO.N,unconnected-(U17C-D49{slash}IO-PadCN8_14)*%
X426540000Y-113280000D03*
%TO.N,Net-(U17C-GND_CN8-PadCN8_11)*%
X424000000Y-113280000D03*
%TO.N,unconnected-(U17C-D48{slash}SDMMC_CMD-PadCN8_12)*%
X426540000Y-110740000D03*
%TO.N,Net-(U17C-GND_CN8-PadCN8_11)*%
X424000000Y-110740000D03*
%TO.N,unconnected-(U17C-D47{slash}SDMMC_CK-PadCN8_10)*%
X426540000Y-108200000D03*
%TO.N,unconnected-(U17C-5V_CN8-PadCN8_9)*%
X424000000Y-108200000D03*
%TO.N,unconnected-(U17C-D46{slash}SDMMC_D3-PadCN8_8)*%
X426540000Y-105660000D03*
%TO.N,unconnected-(U17C-3V3_CN8-PadCN8_7)*%
X424000000Y-105660000D03*
%TO.N,unconnected-(U17C-D45{slash}SDMMC_D2-PadCN8_6)*%
X426540000Y-103120000D03*
%TO.N,unconnected-(U17C-NRST_CN8-PadCN8_5)*%
X424000000Y-103120000D03*
%TO.N,unconnected-(U17C-D44{slash}SDMMC_D1{slash}I2S_A_CKIN-PadCN8_4)*%
X426540000Y-100580000D03*
%TO.N,unconnected-(U17C-IOREF_CN8-PadCN8_3)*%
X424000000Y-100580000D03*
%TO.N,unconnected-(U17C-D43{slash}SDMMC_D0-PadCN8_2)*%
X426540000Y-98040000D03*
D15*
%TO.N,unconnected-(U17C-NC_CN8-PadCN8_1)*%
X424000000Y-98040000D03*
D14*
%TO.N,unconnected-(U17E-D8{slash}IO-PadCN7_20)*%
X472260000Y-111756000D03*
%TO.N,unconnected-(U17E-D25{slash}SPI_B_MISO-PadCN7_19)*%
X469720000Y-111756000D03*
%TO.N,unconnected-(U17E-D9{slash}TIMER_B_PWM2-PadCN7_18)*%
X472260000Y-109216000D03*
%TO.N,unconnected-(U17E-D24{slash}SPI_B_NSS-PadCN7_17)*%
X469720000Y-109216000D03*
%TO.N,unconnected-(U17E-D10{slash}SPI_A_CS{slash}TIM_B_PWM3-PadCN7_16)*%
X472260000Y-106676000D03*
%TO.N,unconnected-(U17E-D23{slash}I2S_B_CK{slash}SPI_B_SCK-PadCN7_15)*%
X469720000Y-106676000D03*
%TO.N,unconnected-(U17E-D11{slash}SPI_A_MOSI{slash}TIM_E_PWM1-PadCN7_14)*%
X472260000Y-104136000D03*
%TO.N,unconnected-(U17E-D22{slash}I2S_B_SD{slash}SPI_B_MOSI-PadCN7_13)*%
X469720000Y-104136000D03*
%TO.N,unconnected-(U17E-D12{slash}SPI_A_MISO-PadCN7_12)*%
X472260000Y-101596000D03*
%TO.N,unconnected-(U17E-D21{slash}I2S_B_MCK-PadCN7_11)*%
X469720000Y-101596000D03*
%TO.N,unconnected-(U17E-D13{slash}SPI_A_SCK-PadCN7_10)*%
X472260000Y-99056000D03*
%TO.N,unconnected-(U17E-D20{slash}I2S_B_WS-PadCN7_9)*%
X469720000Y-99056000D03*
%TO.N,unconnected-(U17E-GND_CN7-PadCN7_8)*%
X472260000Y-96516000D03*
%TO.N,unconnected-(U17E-D19{slash}I2S_A_WS-PadCN7_7)*%
X469720000Y-96516000D03*
%TO.N,unconnected-(U17E-VREFP_CN7-PadCN7_6)*%
X472260000Y-93976000D03*
%TO.N,unconnected-(U17E-D18{slash}I2S_A_CK-PadCN7_5)*%
X469720000Y-93976000D03*
%TO.N,unconnected-(U17E-D14{slash}I2C_A_SDA-PadCN7_4)*%
X472260000Y-91436000D03*
%TO.N,unconnected-(U17E-D17{slash}I2S_A_SD-PadCN7_3)*%
X469720000Y-91436000D03*
%TO.N,unconnected-(U17E-D15{slash}I2C_A_SCL-PadCN7_2)*%
X472260000Y-88896000D03*
D15*
%TO.N,unconnected-(U17E-D16{slash}I2S_A_MCK-PadCN7_1)*%
X469720000Y-88896000D03*
%TD*%
D12*
%TO.N,unconnected-(U31-Rs-Pad8)*%
%TO.C,U31*%
X516800000Y-189320000D03*
%TO.N,/CAN+*%
X514260000Y-189320000D03*
%TO.N,/CAN-*%
X511720000Y-189320000D03*
%TO.N,unconnected-(U31-Vref-Pad5)*%
X509180000Y-189320000D03*
%TO.N,TDM_CAN_TD*%
X509180000Y-181700000D03*
%TO.N,VDD_TDM*%
X511720000Y-181700000D03*
%TO.N,GND*%
X514260000Y-181700000D03*
D16*
%TO.N,TDM_CAN_RD*%
X516800000Y-181700000D03*
%TD*%
D10*
%TO.N,GND*%
%TO.C,J13*%
X356750000Y-53800000D03*
%TO.N,UUM_DBG_RX*%
X355750000Y-53800000D03*
D11*
%TO.N,UUM_DBG_TX*%
X354750000Y-53800000D03*
%TD*%
D17*
%TO.N,N/C*%
%TO.C,U3*%
X262080000Y-187530000D03*
%TO.N,UUM_DBG_RX*%
X259540000Y-187530000D03*
%TO.N,N/C*%
X262080000Y-184990000D03*
%TO.N,UUM_DBG_TX*%
X259540000Y-184990000D03*
%TO.N,unconnected-(U3B-PC4-PadCN10_34)*%
X262080000Y-182450000D03*
%TO.N,unconnected-(U3B-PA10-PadCN10_33)*%
X259540000Y-182450000D03*
%TO.N,unconnected-(U3B-AGND-PadCN10_32)*%
X262080000Y-179910000D03*
%TO.N,unconnected-(U3B-PB3-PadCN10_31)*%
X259540000Y-179910000D03*
%TO.N,unconnected-(U3B-PB13-PadCN10_30)*%
X262080000Y-177370000D03*
%TO.N,unconnected-(U3B-PB5-PadCN10_29)*%
X259540000Y-177370000D03*
%TO.N,unconnected-(U3B-PB14-PadCN10_28)*%
X262080000Y-174830000D03*
%TO.N,unconnected-(U3B-PB4-PadCN10_27)*%
X259540000Y-174830000D03*
%TO.N,unconnected-(U3B-PB15-PadCN10_26)*%
X262080000Y-172290000D03*
%TO.N,unconnected-(U3B-PB10-PadCN10_25)*%
X259540000Y-172290000D03*
%TO.N,unconnected-(U3B-PB1-PadCN10_24)*%
X262080000Y-169750000D03*
%TO.N,UUM_SPI1_CS*%
X259540000Y-169750000D03*
%TO.N,unconnected-(U3B-PB2-PadCN10_22)*%
X262080000Y-167210000D03*
%TO.N,UUM_SPI2_CS*%
X259540000Y-167210000D03*
%TO.N,GND*%
X262080000Y-164670000D03*
%TO.N,unconnected-(U3B-PC7-PadCN10_19)*%
X259540000Y-164670000D03*
%TO.N,unconnected-(U3B-PB11-PadCN10_18)*%
X262080000Y-162130000D03*
%TO.N,unconnected-(U3B-PB6-PadCN10_17)*%
X259540000Y-162130000D03*
%TO.N,unconnected-(U3B-PB12-PadCN10_16)*%
X262080000Y-159590000D03*
%TO.N,UUM_SPI1_MOSI*%
X259540000Y-159590000D03*
%TO.N,UUM_CAN_RD*%
X262080000Y-157050000D03*
%TO.N,UUM_SPI1_MISO*%
X259540000Y-157050000D03*
%TO.N,UUM_CAN_TD*%
X262080000Y-154510000D03*
%TO.N,UUM_SPI1_SCK*%
X259540000Y-154510000D03*
%TO.N,N/C*%
X262080000Y-151970000D03*
%TO.N,GND*%
X259540000Y-151970000D03*
%TO.N,5V_UUM*%
X262080000Y-149430000D03*
%TO.N,unconnected-(U3B-AVDD-PadCN10_7)*%
X259540000Y-149430000D03*
%TO.N,unconnected-(U3B-PC5-PadCN10_6)*%
X262080000Y-146890000D03*
%TO.N,UUM_CAN_TD*%
X259540000Y-146890000D03*
%TO.N,unconnected-(U3B-PC6-PadCN10_4)*%
X262080000Y-144350000D03*
%TO.N,UUM_CAN_RD*%
X259540000Y-144350000D03*
%TO.N,unconnected-(U3B-PC8-PadCN10_2)*%
X262080000Y-141810000D03*
D18*
%TO.N,unconnected-(U3B-PC9-PadCN10_1)*%
X259540000Y-141810000D03*
D19*
%TO.N,unconnected-(U3D-D7-PadCN9_8)*%
X254460000Y-169750000D03*
%TO.N,unconnected-(U3D-D6-PadCN9_7)*%
X254460000Y-172290000D03*
%TO.N,unconnected-(U3D-D5-PadCN9_6)*%
X254460000Y-174830000D03*
%TO.N,unconnected-(U3D-D4-PadCN9_5)*%
X254460000Y-177370000D03*
%TO.N,unconnected-(U3D-D3-PadCN9_4)*%
X254460000Y-179910000D03*
%TO.N,unconnected-(U3D-D2-PadCN9_3)*%
X254460000Y-182450000D03*
%TO.N,unconnected-(U3D-D1-PadCN9_2)*%
X254460000Y-184990000D03*
D20*
%TO.N,unconnected-(U3D-D0-PadCN9_1)*%
X254460000Y-187530000D03*
D19*
%TO.N,unconnected-(U3E-A5-PadCN8_6)*%
X206200000Y-187530000D03*
%TO.N,unconnected-(U3E-A4-PadCN8_5)*%
X206200000Y-184990000D03*
%TO.N,unconnected-(U3E-A3-PadCN8_4)*%
X206200000Y-182450000D03*
%TO.N,unconnected-(U3E-A2-PadCN8_3)*%
X206200000Y-179910000D03*
%TO.N,unconnected-(U3E-A1-PadCN8_2)*%
X206200000Y-177370000D03*
D20*
%TO.N,unconnected-(U3E-A0-PadCN8_1)*%
X206200000Y-174830000D03*
D17*
%TO.N,unconnected-(U3A-PC0-PadCN7_38)*%
X201120000Y-187530000D03*
%TO.N,unconnected-(U3A-PC3-PadCN7_37)*%
X198580000Y-187530000D03*
%TO.N,unconnected-(U3A-PC1-PadCN7_36)*%
X201120000Y-184990000D03*
%TO.N,unconnected-(U3A-PC2-PadCN7_35)*%
X198580000Y-184990000D03*
%TO.N,unconnected-(U3A-PB0-PadCN7_34)*%
X201120000Y-182450000D03*
%TO.N,unconnected-(U3A-VBAT-PadCN7_33)*%
X198580000Y-182450000D03*
%TO.N,unconnected-(U3A-PA4-PadCN7_32)*%
X201120000Y-179910000D03*
%TO.N,unconnected-(U3A-PF1-PadCN7_31)*%
X198580000Y-179910000D03*
%TO.N,unconnected-(U3A-PA1-PadCN7_30)*%
X201120000Y-177370000D03*
%TO.N,unconnected-(U3A-PF0-PadCN7_29)*%
X198580000Y-177370000D03*
%TO.N,unconnected-(U3A-PA0-PadCN7_28)*%
X201120000Y-174830000D03*
%TO.N,unconnected-(U3A-PC15-PadCN7_27)*%
X198580000Y-174830000D03*
%TO.N,N/C*%
X201120000Y-172290000D03*
%TO.N,UUM_SPI_SEL*%
X198580000Y-172290000D03*
%TO.N,unconnected-(U3A-VIN_S1-PadCN7_24)*%
X201120000Y-169750000D03*
%TO.N,unconnected-(U3A-PC13-PadCN7_23)*%
X198580000Y-169750000D03*
%TO.N,Net-(U3A-GND_S1-PadCN7_19)*%
X201120000Y-167210000D03*
%TO.N,unconnected-(U3A-PB7-PadCN7_21)*%
X198580000Y-167210000D03*
%TO.N,Net-(U3A-GND_S1-PadCN7_19)*%
X201120000Y-164670000D03*
X198580000Y-164670000D03*
%TO.N,unconnected-(U3A-+5V_S1-PadCN7_18)*%
X201120000Y-162130000D03*
%TO.N,unconnected-(U3A-PA15-PadCN7_17)*%
X198580000Y-162130000D03*
%TO.N,3V3_UUM*%
X201120000Y-159590000D03*
%TO.N,unconnected-(U3A-PA14-PadCN7_15)*%
X198580000Y-159590000D03*
%TO.N,unconnected-(U3A-RESET_S1-PadCN7_14)*%
X201120000Y-157050000D03*
%TO.N,unconnected-(U3A-PA13-PadCN7_13)*%
X198580000Y-157050000D03*
%TO.N,unconnected-(U3A-IOREF_S1-PadCN7_12)*%
X201120000Y-154510000D03*
%TO.N,N/C*%
X198580000Y-154510000D03*
X201120000Y-151970000D03*
X198580000Y-151970000D03*
%TO.N,Net-(U3A-GND_S1-PadCN7_19)*%
X201120000Y-149430000D03*
%TO.N,unconnected-(U3A-BOOT0-PadCN7_7)*%
X198580000Y-149430000D03*
%TO.N,unconnected-(U3A-E5V-PadCN7_6)*%
X201120000Y-146890000D03*
%TO.N,unconnected-(U3A-VDD-PadCN7_5)*%
X198580000Y-146890000D03*
%TO.N,unconnected-(U3A-PD2-PadCN7_4)*%
X201120000Y-144350000D03*
%TO.N,unconnected-(U3A-PC12-PadCN7_3)*%
X198580000Y-144350000D03*
%TO.N,unconnected-(U3A-PC11-PadCN7_2)*%
X201120000Y-141810000D03*
D18*
%TO.N,unconnected-(U3A-PC10-PadCN7_1)*%
X198580000Y-141810000D03*
D19*
%TO.N,unconnected-(U3C-VIN-PadCN6_8)*%
X206200000Y-169750000D03*
%TO.N,Net-(U3C-GND-PadCN6_6)*%
X206200000Y-167210000D03*
X206200000Y-164670000D03*
%TO.N,unconnected-(U3C-+5V-PadCN6_5)*%
X206200000Y-162130000D03*
%TO.N,unconnected-(U3C-+3V3-PadCN6_4)*%
X206200000Y-159590000D03*
%TO.N,unconnected-(U3C-RESET-PadCN6_3)*%
X206200000Y-157050000D03*
%TO.N,unconnected-(U3C-IOREF-PadCN6_2)*%
X206200000Y-154510000D03*
D20*
%TO.N,N/C*%
X206200000Y-151970000D03*
D19*
%TO.N,unconnected-(U3F-D15-PadCN5_10)*%
X254460000Y-142830000D03*
%TO.N,unconnected-(U3F-D14-PadCN5_9)*%
X254460000Y-145370000D03*
%TO.N,unconnected-(U3F-AVDD_S6-PadCN5_8)*%
X254460000Y-147910000D03*
%TO.N,unconnected-(U3F-GND_S6-PadCN5_7)*%
X254460000Y-150450000D03*
%TO.N,unconnected-(U3F-D13-PadCN5_6)*%
X254460000Y-152990000D03*
%TO.N,unconnected-(U3F-D12-PadCN5_5)*%
X254460000Y-155530000D03*
%TO.N,unconnected-(U3F-D11-PadCN5_4)*%
X254460000Y-158070000D03*
%TO.N,unconnected-(U3F-D10-PadCN5_3)*%
X254460000Y-160610000D03*
%TO.N,unconnected-(U3F-D9-PadCN5_2)*%
X254460000Y-163150000D03*
D20*
%TO.N,unconnected-(U3F-D8-PadCN5_1)*%
X254460000Y-165690000D03*
%TD*%
D10*
%TO.N,GND*%
%TO.C,J12*%
X381700000Y-53800000D03*
%TO.N,AAM_DBG_RX*%
X380700000Y-53800000D03*
D11*
%TO.N,AAM_DBG_TX*%
X379700000Y-53800000D03*
%TD*%
D21*
%TO.N,N/C*%
%TO.C,U4*%
X206551000Y-60472000D03*
X206551000Y-63012000D03*
X206551000Y-65552000D03*
X206551000Y-68092000D03*
%TO.N,unconnected-(U4-GND-Pad40)*%
X251000000Y-71900000D03*
%TO.N,GND*%
X248460000Y-71900000D03*
%TO.N,unconnected-(U4-3V3-Pad38)*%
X245920000Y-71900000D03*
%TO.N,unconnected-(U4-RST-Pad37)*%
X243380000Y-71900000D03*
%TO.N,Net-(U19-A)*%
X240840000Y-71900000D03*
%TO.N,Net-(U19-B)*%
X238300000Y-71900000D03*
%TO.N,Net-(U19-C)*%
X235760000Y-71900000D03*
%TO.N,Net-(U19-D)*%
X233220000Y-71900000D03*
%TO.N,Net-(U19-E)*%
X230680000Y-71900000D03*
%TO.N,Net-(U19-F)*%
X228140000Y-71900000D03*
%TO.N,Net-(U19-G)*%
X225600000Y-71900000D03*
%TO.N,Net-(U19-DP)*%
X223060000Y-71900000D03*
%TO.N,Net-(U18-A)*%
X220520000Y-71900000D03*
%TO.N,Net-(U18-B)*%
X217980000Y-71900000D03*
%TO.N,Net-(U18-C)*%
X215440000Y-71900000D03*
%TO.N,Net-(U18-D)*%
X212900000Y-71900000D03*
%TO.N,Net-(U18-E)*%
X210360000Y-71900000D03*
%TO.N,Net-(U18-F)*%
X207820000Y-71900000D03*
%TO.N,unconnected-(U4-PC13-Pad22)*%
X205280000Y-71900000D03*
%TO.N,unconnected-(U4-VBat-Pad21)*%
X202740000Y-71900000D03*
%TO.N,unconnected-(U4-3V3-Pad20)*%
X202740000Y-56660000D03*
%TO.N,unconnected-(U4-GND-Pad19)*%
X205280000Y-56660000D03*
%TO.N,5V_7SDD*%
X207820000Y-56660000D03*
%TO.N,Net-(U18-G)*%
X210360000Y-56660000D03*
%TO.N,Net-(U18-DP)*%
X212900000Y-56660000D03*
%TO.N,Net-(U2-A)*%
X215440000Y-56660000D03*
%TO.N,Net-(U2-B)*%
X217980000Y-56660000D03*
%TO.N,Net-(U2-C)*%
X220520000Y-56660000D03*
%TO.N,Net-(U2-D)*%
X223060000Y-56660000D03*
%TO.N,Net-(U2-E)*%
X225600000Y-56660000D03*
%TO.N,Net-(U2-F)*%
X228140000Y-56660000D03*
%TO.N,Net-(U2-G)*%
X230680000Y-56660000D03*
%TO.N,Net-(U2-DP)*%
X233220000Y-56660000D03*
%TO.N,7SDD_CMD_RX*%
X235760000Y-56660000D03*
%TO.N,7SDD_CMD_TX*%
X238300000Y-56660000D03*
%TO.N,unconnected-(U4-PA8-Pad5)*%
X240840000Y-56660000D03*
%TO.N,unconnected-(U4-PB15-Pad4)*%
X243380000Y-56660000D03*
%TO.N,unconnected-(U4-PB14-Pad3)*%
X245920000Y-56660000D03*
%TO.N,unconnected-(U4-PB13-Pad2)*%
X248460000Y-56660000D03*
D22*
%TO.N,unconnected-(U4-PB12-Pad1)*%
X251000000Y-56660000D03*
%TD*%
D10*
%TO.N,Net-(J10-Pin_1)*%
%TO.C,J10*%
X556825000Y-175930000D03*
D11*
X556825000Y-174930000D03*
%TD*%
D10*
%TO.N,Net-(J6-Pin_1)*%
%TO.C,J6*%
X556825000Y-163180000D03*
D11*
X556825000Y-162180000D03*
%TD*%
D10*
%TO.N,GND*%
%TO.C,J16*%
X394250000Y-53875000D03*
%TO.N,DSM_DBG_RX*%
X393250000Y-53875000D03*
D11*
%TO.N,DSM_DBG_TX*%
X392250000Y-53875000D03*
%TD*%
D10*
%TO.N,Net-(J11-Pin_1)*%
%TO.C,J11*%
X556825000Y-182305000D03*
D11*
X556825000Y-181305000D03*
%TD*%
D10*
%TO.N,GND*%
%TO.C,J14*%
X369300000Y-53800000D03*
%TO.N,ACM_DBG_RX*%
X368300000Y-53800000D03*
D11*
%TO.N,ACM_DBG_TX*%
X367300000Y-53800000D03*
%TD*%
D17*
%TO.N,N/C*%
%TO.C,U9*%
X554860000Y-132720000D03*
%TO.N,TDM_DBG_RX*%
X552320000Y-132720000D03*
%TO.N,N/C*%
X554860000Y-130180000D03*
%TO.N,TDM_DBG_TX*%
X552320000Y-130180000D03*
%TO.N,TDM_LED_WARN*%
X554860000Y-127640000D03*
%TO.N,unconnected-(U9B-PA10-PadCN10_33)*%
X552320000Y-127640000D03*
%TO.N,unconnected-(U9B-AGND-PadCN10_32)*%
X554860000Y-125100000D03*
%TO.N,unconnected-(U9B-PB3-PadCN10_31)*%
X552320000Y-125100000D03*
%TO.N,unconnected-(U9B-PB13-PadCN10_30)*%
X554860000Y-122560000D03*
%TO.N,unconnected-(U9B-PB5-PadCN10_29)*%
X552320000Y-122560000D03*
%TO.N,unconnected-(U9B-PB14-PadCN10_28)*%
X554860000Y-120020000D03*
%TO.N,unconnected-(U9B-PB4-PadCN10_27)*%
X552320000Y-120020000D03*
%TO.N,unconnected-(U9B-PB15-PadCN10_26)*%
X554860000Y-117480000D03*
%TO.N,unconnected-(U9B-PB10-PadCN10_25)*%
X552320000Y-117480000D03*
%TO.N,unconnected-(U9B-PB1-PadCN10_24)*%
X554860000Y-114940000D03*
%TO.N,unconnected-(U9B-PA8-PadCN10_23)*%
X552320000Y-114940000D03*
%TO.N,unconnected-(U9B-PB2-PadCN10_22)*%
X554860000Y-112400000D03*
%TO.N,unconnected-(U9B-PA9-PadCN10_21)*%
X552320000Y-112400000D03*
%TO.N,GND*%
X554860000Y-109860000D03*
%TO.N,Net-(U9B-PC7)*%
X552320000Y-109860000D03*
%TO.N,N/C*%
X554860000Y-107320000D03*
%TO.N,unconnected-(U9B-PB6-PadCN10_17)*%
X552320000Y-107320000D03*
%TO.N,unconnected-(U9B-PB12-PadCN10_16)*%
X554860000Y-104780000D03*
%TO.N,unconnected-(U9B-PA7-PadCN10_15)*%
X552320000Y-104780000D03*
%TO.N,TDM_CAN_RD*%
X554860000Y-102240000D03*
%TO.N,unconnected-(U9B-PA6-PadCN10_13)*%
X552320000Y-102240000D03*
%TO.N,TDM_CAN_TD*%
X554860000Y-99700000D03*
%TO.N,TDM_LED_OK*%
X552320000Y-99700000D03*
%TO.N,N/C*%
X554860000Y-97160000D03*
%TO.N,GND*%
X552320000Y-97160000D03*
%TO.N,5V_TDM*%
X554860000Y-94620000D03*
%TO.N,unconnected-(U9B-AVDD-PadCN10_7)*%
X552320000Y-94620000D03*
%TO.N,TDM_LED_FAIL*%
X554860000Y-92080000D03*
%TO.N,TDM_I2C1_SDA*%
X552320000Y-92080000D03*
%TO.N,unconnected-(U9B-PC6-PadCN10_4)*%
X554860000Y-89540000D03*
%TO.N,TDM_I2C1_SCL*%
X552320000Y-89540000D03*
%TO.N,unconnected-(U9B-PC8-PadCN10_2)*%
X554860000Y-87000000D03*
D18*
%TO.N,unconnected-(U9B-PC9-PadCN10_1)*%
X552320000Y-87000000D03*
D19*
%TO.N,N/C*%
X547240000Y-114940000D03*
X547240000Y-117480000D03*
X547240000Y-120020000D03*
X547240000Y-122560000D03*
X547240000Y-125100000D03*
X547240000Y-127640000D03*
X547240000Y-130180000D03*
D20*
X547240000Y-132720000D03*
D19*
X498980000Y-132720000D03*
X498980000Y-130180000D03*
X498980000Y-127640000D03*
X498980000Y-125100000D03*
X498980000Y-122560000D03*
D20*
X498980000Y-120020000D03*
D17*
X493900000Y-132720000D03*
X491360000Y-132720000D03*
X493900000Y-130180000D03*
X491360000Y-130180000D03*
X493900000Y-127640000D03*
X491360000Y-127640000D03*
X493900000Y-125100000D03*
X491360000Y-125100000D03*
X493900000Y-122560000D03*
X491360000Y-122560000D03*
X493900000Y-120020000D03*
X491360000Y-120020000D03*
X493900000Y-117480000D03*
X491360000Y-117480000D03*
X493900000Y-114940000D03*
X491360000Y-114940000D03*
X493900000Y-112400000D03*
X491360000Y-112400000D03*
X493900000Y-109860000D03*
X491360000Y-109860000D03*
X493900000Y-107320000D03*
X491360000Y-107320000D03*
X493900000Y-104780000D03*
X491360000Y-104780000D03*
X493900000Y-102240000D03*
X491360000Y-102240000D03*
X493900000Y-99700000D03*
X491360000Y-99700000D03*
X493900000Y-97160000D03*
X491360000Y-97160000D03*
X493900000Y-94620000D03*
X491360000Y-94620000D03*
X493900000Y-92080000D03*
X491360000Y-92080000D03*
X493900000Y-89540000D03*
X491360000Y-89540000D03*
X493900000Y-87000000D03*
D18*
X491360000Y-87000000D03*
D19*
X498980000Y-114940000D03*
X498980000Y-112400000D03*
X498980000Y-109860000D03*
X498980000Y-107320000D03*
X498980000Y-104780000D03*
X498980000Y-102240000D03*
X498980000Y-99700000D03*
D20*
X498980000Y-97160000D03*
D19*
X547240000Y-88020000D03*
X547240000Y-90560000D03*
X547240000Y-93100000D03*
X547240000Y-95640000D03*
X547240000Y-98180000D03*
X547240000Y-100720000D03*
X547240000Y-103260000D03*
X547240000Y-105800000D03*
X547240000Y-108340000D03*
D20*
X547240000Y-110880000D03*
%TD*%
D21*
%TO.N,3V3_ACM*%
%TO.C,J2*%
X392010000Y-161400000D03*
%TO.N,GND*%
X392010000Y-158860000D03*
%TO.N,unconnected-(J2-Pin_22-Pad22)*%
X392010000Y-156320000D03*
%TO.N,unconnected-(J2-Pin_21-Pad21)*%
X392010000Y-153780000D03*
%TO.N,unconnected-(J2-Pin_20-Pad20)*%
X392010000Y-151240000D03*
%TO.N,unconnected-(J2-Pin_19-Pad19)*%
X392010000Y-148700000D03*
%TO.N,5V_ACM*%
X392010000Y-146160000D03*
%TO.N,unconnected-(J2-Pin_17-Pad17)*%
X392010000Y-143620000D03*
%TO.N,ACM_FMC_D15*%
X392010000Y-141080000D03*
%TO.N,ACM_FMC_D14*%
X392010000Y-138540000D03*
%TO.N,AAM_FMC_D13*%
X392010000Y-136000000D03*
%TO.N,AAM_FMC_D12*%
X392010000Y-133460000D03*
%TO.N,AAM_FMC_D11*%
X392010000Y-130920000D03*
%TO.N,AAM_FMC_D10*%
X392010000Y-128380000D03*
%TO.N,AAM_FMC_D9*%
X392010000Y-125840000D03*
%TO.N,AAM_FMC_D8*%
X392010000Y-123300000D03*
%TO.N,AAM_FMC_D7*%
X392010000Y-120760000D03*
%TO.N,AAM_FMC_D6*%
X392010000Y-118220000D03*
%TO.N,AAM_FMC_D5*%
X392010000Y-115680000D03*
%TO.N,AAM_FMC_D4*%
X392010000Y-113140000D03*
%TO.N,AAM_FMC_D3*%
X392010000Y-110600000D03*
%TO.N,AAM_FMC_D2*%
X392010000Y-108060000D03*
%TO.N,AAM_FMC_D1*%
X392010000Y-105520000D03*
D22*
%TO.N,AAM_FMC_D0*%
X392010000Y-102980000D03*
%TD*%
D12*
%TO.N,unconnected-(U29-Rs-Pad8)*%
%TO.C,U29*%
X501310000Y-164420000D03*
%TO.N,/CAN+*%
X501310000Y-166960000D03*
%TO.N,/CAN-*%
X501310000Y-169500000D03*
%TO.N,unconnected-(U29-Vref-Pad5)*%
X501310000Y-172040000D03*
%TO.N,AAM_CAN_TD*%
X493690000Y-172040000D03*
%TO.N,VDD_AAM*%
X493690000Y-169500000D03*
%TO.N,GND*%
X493690000Y-166960000D03*
D23*
%TO.N,AAM_CAN_RD*%
X493690000Y-164420000D03*
%TD*%
D21*
%TO.N,AAM_FMC_NBL1*%
%TO.C,J8*%
X359700000Y-161400000D03*
%TO.N,AAM_FMC_NBL0*%
X359700000Y-158860000D03*
%TO.N,AAM_FMC_NL*%
X359700000Y-156320000D03*
%TO.N,AAM_FMC_NE*%
X359700000Y-153780000D03*
%TO.N,AAM_FMC_NOE*%
X359700000Y-151240000D03*
%TO.N,AAM_FMC_NWE*%
X359700000Y-148700000D03*
%TO.N,AAM_FMC_CLK*%
X359700000Y-146160000D03*
%TO.N,unconnected-(J1-Pin_17-Pad17)*%
X359700000Y-143620000D03*
%TO.N,unconnected-(J1-Pin_16-Pad16)*%
X359700000Y-141080000D03*
%TO.N,unconnected-(J1-Pin_15-Pad15)*%
X359700000Y-138540000D03*
%TO.N,unconnected-(J1-Pin_14-Pad14)*%
X359700000Y-136000000D03*
%TO.N,unconnected-(J1-Pin_13-Pad13)*%
X359700000Y-133460000D03*
%TO.N,unconnected-(J1-Pin_12-Pad12)*%
X359700000Y-130920000D03*
%TO.N,ACM_LED_WARN*%
X359700000Y-128380000D03*
%TO.N,ACM_LED_OK*%
X359700000Y-125840000D03*
%TO.N,ACM_LED_FAIL*%
X359700000Y-123300000D03*
%TO.N,AAM_CMD_TX*%
X359700000Y-120760000D03*
%TO.N,AAM_CMD_RX*%
X359700000Y-118220000D03*
%TO.N,ACM_DBG_RX*%
X359700000Y-115680000D03*
%TO.N,ACM_DBG_TX*%
X359700000Y-113140000D03*
%TO.N,ACM_SPI_MISO*%
X359700000Y-110600000D03*
%TO.N,ACM_SPI_SCLK*%
X359700000Y-108060000D03*
%TO.N,ACM_SPI_MOSI*%
X359700000Y-105520000D03*
D22*
%TO.N,ACM_SPI_CS*%
X359700000Y-102980000D03*
%TD*%
D21*
%TO.N,AAM_FMC_NBL1*%
%TO.C,J1*%
X368700000Y-161400000D03*
%TO.N,AAM_FMC_NBL0*%
X368700000Y-158860000D03*
%TO.N,AAM_FMC_NL*%
X368700000Y-156320000D03*
%TO.N,AAM_FMC_NE*%
X368700000Y-153780000D03*
%TO.N,AAM_FMC_NOE*%
X368700000Y-151240000D03*
%TO.N,AAM_FMC_NWE*%
X368700000Y-148700000D03*
%TO.N,AAM_FMC_CLK*%
X368700000Y-146160000D03*
%TO.N,unconnected-(J1-Pin_17-Pad17)*%
X368700000Y-143620000D03*
%TO.N,unconnected-(J1-Pin_16-Pad16)*%
X368700000Y-141080000D03*
%TO.N,unconnected-(J1-Pin_15-Pad15)*%
X368700000Y-138540000D03*
%TO.N,unconnected-(J1-Pin_14-Pad14)*%
X368700000Y-136000000D03*
%TO.N,unconnected-(J1-Pin_13-Pad13)*%
X368700000Y-133460000D03*
%TO.N,unconnected-(J1-Pin_12-Pad12)*%
X368700000Y-130920000D03*
%TO.N,ACM_LED_WARN*%
X368700000Y-128380000D03*
%TO.N,ACM_LED_OK*%
X368700000Y-125840000D03*
%TO.N,ACM_LED_FAIL*%
X368700000Y-123300000D03*
%TO.N,AAM_CMD_TX*%
X368700000Y-120760000D03*
%TO.N,AAM_CMD_RX*%
X368700000Y-118220000D03*
%TO.N,ACM_DBG_RX*%
X368700000Y-115680000D03*
%TO.N,ACM_DBG_TX*%
X368700000Y-113140000D03*
%TO.N,ACM_SPI_MISO*%
X368700000Y-110600000D03*
%TO.N,ACM_SPI_SCLK*%
X368700000Y-108060000D03*
%TO.N,ACM_SPI_MOSI*%
X368700000Y-105520000D03*
D22*
%TO.N,ACM_SPI_CS*%
X368700000Y-102980000D03*
%TD*%
D12*
%TO.N,Net-(U2-A)*%
%TO.C,U2*%
X243400000Y-79240000D03*
%TO.N,Net-(U2-B)*%
X243400000Y-81780000D03*
%TO.N,Net-(U2-C)*%
X243400000Y-84320000D03*
%TO.N,Net-(U2-DP)*%
X243400000Y-86860000D03*
%TO.N,GND*%
X243400000Y-89400000D03*
%TO.N,Net-(U2-D)*%
X238320000Y-89400000D03*
%TO.N,Net-(U2-E)*%
X238320000Y-86860000D03*
%TO.N,Net-(U2-G)*%
X238320000Y-84320000D03*
%TO.N,Net-(U2-F)*%
X238320000Y-81780000D03*
D24*
%TO.N,GND*%
X238320000Y-79240000D03*
%TD*%
D12*
%TO.N,Net-(U9B-PC7)*%
%TO.C,TH1*%
X559200000Y-140100000D03*
%TO.N,GND*%
X556660000Y-140100000D03*
%TD*%
D21*
%TO.N,3V3_ACM*%
%TO.C,J9*%
X401010000Y-161360000D03*
%TO.N,GND*%
X401010000Y-158820000D03*
%TO.N,unconnected-(J2-Pin_22-Pad22)*%
X401010000Y-156280000D03*
%TO.N,unconnected-(J2-Pin_21-Pad21)*%
X401010000Y-153740000D03*
%TO.N,unconnected-(J2-Pin_20-Pad20)*%
X401010000Y-151200000D03*
%TO.N,unconnected-(J2-Pin_19-Pad19)*%
X401010000Y-148660000D03*
%TO.N,5V_ACM*%
X401010000Y-146120000D03*
%TO.N,unconnected-(J9-Pin_17-Pad17)*%
X401010000Y-143580000D03*
%TO.N,ACM_FMC_D15*%
X401010000Y-141040000D03*
%TO.N,ACM_FMC_D14*%
X401010000Y-138500000D03*
%TO.N,AAM_FMC_D13*%
X401010000Y-135960000D03*
%TO.N,AAM_FMC_D12*%
X401010000Y-133420000D03*
%TO.N,AAM_FMC_D11*%
X401010000Y-130880000D03*
%TO.N,AAM_FMC_D10*%
X401010000Y-128340000D03*
%TO.N,AAM_FMC_D9*%
X401010000Y-125800000D03*
%TO.N,AAM_FMC_D8*%
X401010000Y-123260000D03*
%TO.N,AAM_FMC_D7*%
X401010000Y-120720000D03*
%TO.N,AAM_FMC_D6*%
X401010000Y-118180000D03*
%TO.N,AAM_FMC_D5*%
X401010000Y-115640000D03*
%TO.N,AAM_FMC_D4*%
X401010000Y-113100000D03*
%TO.N,AAM_FMC_D3*%
X401010000Y-110560000D03*
%TO.N,AAM_FMC_D2*%
X401010000Y-108020000D03*
%TO.N,AAM_FMC_D1*%
X401010000Y-105480000D03*
D22*
%TO.N,AAM_FMC_D0*%
X401010000Y-102940000D03*
%TD*%
D14*
%TO.N,Net-(U1B-GND_CN12-PadCN12_20)*%
%TO.C,U1*%
X345160000Y-176730000D03*
X342620000Y-176730000D03*
%TO.N,unconnected-(U1B-PG6-PadCN12_70)*%
X345160000Y-174190000D03*
%TO.N,unconnected-(U1B-PG4-PadCN12_69)*%
X342620000Y-174190000D03*
%TO.N,unconnected-(U1B-PG5-PadCN12_68)*%
X345160000Y-171650000D03*
%TO.N,unconnected-(U1B-PG7-PadCN12_67)*%
X342620000Y-171650000D03*
%TO.N,unconnected-(U1B-PG8-PadCN12_66)*%
X345160000Y-169110000D03*
%TO.N,ACM_FMC_D15*%
X342620000Y-169110000D03*
%TO.N,AAM_FMC_NBL0*%
X345160000Y-166570000D03*
%TO.N,Net-(U1B-GND_CN12-PadCN12_20)*%
X342620000Y-166570000D03*
%TO.N,unconnected-(U1B-PF11-PadCN12_62)*%
X345160000Y-164030000D03*
%TO.N,unconnected-(U1B-PG14-PadCN12_61)*%
X342620000Y-164030000D03*
%TO.N,unconnected-(U1B-PF15-PadCN12_60)*%
X345160000Y-161490000D03*
%TO.N,unconnected-(U1B-PF12-PadCN12_59)*%
X342620000Y-161490000D03*
%TO.N,unconnected-(U1B-PF3-PadCN12_58)*%
X345160000Y-158950000D03*
%TO.N,unconnected-(U1B-PF13-PadCN12_57)*%
X342620000Y-158950000D03*
%TO.N,AAM_FMC_D8*%
X345160000Y-156410000D03*
%TO.N,AAM_FMC_D10*%
X342620000Y-156410000D03*
%TO.N,Net-(U1B-GND_CN12-PadCN12_20)*%
X345160000Y-153870000D03*
%TO.N,AAM_FMC_D12*%
X342620000Y-153870000D03*
%TO.N,AAM_FMC_D6*%
X345160000Y-151330000D03*
%TO.N,AAM_FMC_D11*%
X342620000Y-151330000D03*
%TO.N,unconnected-(U1B-PF14-PadCN12_50)*%
X345160000Y-148790000D03*
%TO.N,AAM_FMC_D9*%
X342620000Y-148790000D03*
%TO.N,AAM_FMC_D1*%
X345160000Y-146250000D03*
%TO.N,AAM_FMC_D7*%
X342620000Y-146250000D03*
%TO.N,AAM_FMC_D0*%
X345160000Y-143710000D03*
%TO.N,unconnected-(U1B-PD11-PadCN12_45)*%
X342620000Y-143710000D03*
%TO.N,AAM_FMC_D4*%
X345160000Y-141170000D03*
%TO.N,unconnected-(U1B-PD12-PadCN12_43)*%
X342620000Y-141170000D03*
%TO.N,unconnected-(U1B-PF10-PadCN12_42)*%
X345160000Y-138630000D03*
%TO.N,unconnected-(U1B-PD13-PadCN12_41)*%
X342620000Y-138630000D03*
%TO.N,AAM_FMC_D5*%
X345160000Y-136090000D03*
%TO.N,Net-(U1B-GND_CN12-PadCN12_20)*%
X342620000Y-136090000D03*
%TO.N,unconnected-(U1B-PF4-PadCN12_38)*%
X345160000Y-133550000D03*
%TO.N,unconnected-(U1B-PA3-PadCN12_37)*%
X342620000Y-133550000D03*
%TO.N,unconnected-(U1B-PF5-PadCN12_36)*%
X345160000Y-131010000D03*
%TO.N,unconnected-(U1B-PA2-PadCN12_35)*%
X342620000Y-131010000D03*
%TO.N,unconnected-(U1B-PC4-PadCN12_34)*%
X345160000Y-128470000D03*
%TO.N,unconnected-(U1B-PA10-PadCN12_33)*%
X342620000Y-128470000D03*
%TO.N,unconnected-(U1B-AGND_CN12-PadCN12_32)*%
X345160000Y-125930000D03*
%TO.N,unconnected-(U1B-PB3-PadCN12_31)*%
X342620000Y-125930000D03*
%TO.N,unconnected-(U1B-PB13-PadCN12_30)*%
X345160000Y-123390000D03*
%TO.N,unconnected-(U1B-PB5-PadCN12_29)*%
X342620000Y-123390000D03*
%TO.N,unconnected-(U1B-PB14-PadCN12_28)*%
X345160000Y-120850000D03*
%TO.N,unconnected-(U1B-PB4-PadCN12_27)*%
X342620000Y-120850000D03*
%TO.N,unconnected-(U1B-PB15-PadCN12_26)*%
X345160000Y-118310000D03*
%TO.N,unconnected-(U1B-PB10-PadCN12_25)*%
X342620000Y-118310000D03*
%TO.N,unconnected-(U1B-PB1-PadCN12_24)*%
X345160000Y-115770000D03*
%TO.N,unconnected-(U1B-PA8-PadCN12_23)*%
X342620000Y-115770000D03*
%TO.N,unconnected-(U1B-PB2-PadCN12_22)*%
X345160000Y-113230000D03*
%TO.N,unconnected-(U1B-PA9-PadCN12_21)*%
X342620000Y-113230000D03*
%TO.N,Net-(U1B-GND_CN12-PadCN12_20)*%
X345160000Y-110690000D03*
%TO.N,AAM_FMC_NE*%
X342620000Y-110690000D03*
%TO.N,unconnected-(U1B-PB11-PadCN12_18)*%
X345160000Y-108150000D03*
%TO.N,unconnected-(U1B-PB6-PadCN12_17)*%
X342620000Y-108150000D03*
%TO.N,unconnected-(U1B-PB12-PadCN12_16)*%
X345160000Y-105610000D03*
%TO.N,unconnected-(U1B-PA7-PadCN12_15)*%
X342620000Y-105610000D03*
%TO.N,unconnected-(U1B-PA11-PadCN12_14)*%
X345160000Y-103070000D03*
%TO.N,unconnected-(U1B-PA6-PadCN12_13)*%
X342620000Y-103070000D03*
%TO.N,unconnected-(U1B-PA12-PadCN12_12)*%
X345160000Y-100530000D03*
%TO.N,AAM_DAC_L*%
X342620000Y-100530000D03*
%TO.N,AAM_FMC_D13*%
X345160000Y-97990000D03*
%TO.N,Net-(U1B-GND_CN12-PadCN12_20)*%
X342620000Y-97990000D03*
%TO.N,unconnected-(U1B-5V_USB_STLK-PadCN12_8)*%
X345160000Y-95450000D03*
%TO.N,unconnected-(U1B-VREFP-PadCN12_7)*%
X342620000Y-95450000D03*
%TO.N,unconnected-(U1B-PC5-PadCN12_6)*%
X345160000Y-92910000D03*
%TO.N,AAM_CAN_TD*%
X342620000Y-92910000D03*
%TO.N,unconnected-(U1B-PC6-PadCN12_4)*%
X345160000Y-90370000D03*
%TO.N,AAM_CAN_RD*%
X342620000Y-90370000D03*
%TO.N,unconnected-(U1B-PC8-PadCN12_2)*%
X345160000Y-87830000D03*
D15*
%TO.N,unconnected-(U1B-PC9-PadCN12_1)*%
X342620000Y-87830000D03*
D14*
%TO.N,GND*%
X284200000Y-176710000D03*
X281660000Y-176710000D03*
%TO.N,unconnected-(U1A-PG11-PadCN11_70)*%
X284200000Y-174170000D03*
%TO.N,ACM_FMC_D14*%
X281660000Y-174170000D03*
%TO.N,unconnected-(U1A-PG13-PadCN11_68)*%
X284200000Y-171630000D03*
%TO.N,unconnected-(U1A-NC-PadCN11_67)*%
X281660000Y-171630000D03*
%TO.N,unconnected-(U1A-PG10-PadCN11_66)*%
X284200000Y-169090000D03*
%TO.N,unconnected-(U1A-PG12-PadCN11_65)*%
X281660000Y-169090000D03*
%TO.N,unconnected-(U1A-PG15-PadCN11_64)*%
X284200000Y-166550000D03*
%TO.N,unconnected-(U1A-PG9-PadCN11_63)*%
X281660000Y-166550000D03*
%TO.N,AAM_INTRPT_TX*%
X284200000Y-164010000D03*
%TO.N,AAM_FMC_NBL1*%
X281660000Y-164010000D03*
%TO.N,GND*%
X284200000Y-161470000D03*
%TO.N,unconnected-(U1A-PG0-PadCN11_59)*%
X281660000Y-161470000D03*
%TO.N,unconnected-(U1A-PG1-PadCN11_58)*%
X284200000Y-158930000D03*
%TO.N,AAM_FMC_D2*%
X281660000Y-158930000D03*
%TO.N,unconnected-(U1A-PF9-PadCN11_56)*%
X284200000Y-156390000D03*
%TO.N,AAM_FMC_D3*%
X281660000Y-156390000D03*
%TO.N,unconnected-(U1A-PF8-PadCN11_54)*%
X284200000Y-153850000D03*
%TO.N,unconnected-(U1A-PF0-PadCN11_53)*%
X281660000Y-153850000D03*
%TO.N,unconnected-(U1A-PF2-PadCN11_52)*%
X284200000Y-151310000D03*
%TO.N,unconnected-(U1A-PF1-PadCN11_51)*%
X281660000Y-151310000D03*
%TO.N,unconnected-(U1A-PE5-PadCN11_50)*%
X284200000Y-148770000D03*
%TO.N,GND*%
X281660000Y-148770000D03*
%TO.N,unconnected-(U1A-PE4-PadCN11_48)*%
X284200000Y-146230000D03*
%TO.N,AAM_INTRPT_RX*%
X281660000Y-146230000D03*
%TO.N,unconnected-(U1A-PE2-PadCN11_46)*%
X284200000Y-143690000D03*
%TO.N,unconnected-(U1A-PD7-PadCN11_45)*%
X281660000Y-143690000D03*
%TO.N,unconnected-(U1A-PG3-PadCN11_44)*%
X284200000Y-141150000D03*
%TO.N,unconnected-(U1A-PD6-PadCN11_43)*%
X281660000Y-141150000D03*
%TO.N,unconnected-(U1A-PG2-PadCN11_42)*%
X284200000Y-138610000D03*
%TO.N,AAM_FMC_NWE*%
X281660000Y-138610000D03*
%TO.N,AAM_FMC_CLK*%
X284200000Y-136070000D03*
%TO.N,AAM_FMC_NOE*%
X281660000Y-136070000D03*
%TO.N,unconnected-(U1A-PC0-PadCN11_38)*%
X284200000Y-133530000D03*
%TO.N,unconnected-(U1A-PC3-PadCN11_37)*%
X281660000Y-133530000D03*
%TO.N,unconnected-(U1A-PC1-PadCN11_36)*%
X284200000Y-130990000D03*
%TO.N,unconnected-(U1A-PC2-PadCN11_35)*%
X281660000Y-130990000D03*
%TO.N,unconnected-(U1A-PB0-PadCN11_34)*%
X284200000Y-128450000D03*
%TO.N,unconnected-(U1A-VBAT-PadCN11_33)*%
X281660000Y-128450000D03*
%TO.N,AAM_DAC_R*%
X284200000Y-125910000D03*
%TO.N,unconnected-(U1A-PH1-PadCN11_31)*%
X281660000Y-125910000D03*
%TO.N,unconnected-(U1A-PA1-PadCN11_30)*%
X284200000Y-123370000D03*
%TO.N,unconnected-(U1A-PH0-PadCN11_29)*%
X281660000Y-123370000D03*
%TO.N,unconnected-(U1A-PA0-PadCN11_28)*%
X284200000Y-120830000D03*
%TO.N,unconnected-(U1A-PC15-PadCN11_27)*%
X281660000Y-120830000D03*
%TO.N,unconnected-(U1A-NC-PadCN11_26)*%
X284200000Y-118290000D03*
%TO.N,unconnected-(U1A-PC14-PadCN11_25)*%
X281660000Y-118290000D03*
%TO.N,unconnected-(U1A-VIN-PadCN11_24)*%
X284200000Y-115750000D03*
%TO.N,unconnected-(U1A-PC13-PadCN11_23)*%
X281660000Y-115750000D03*
%TO.N,GND*%
X284200000Y-113210000D03*
%TO.N,AAM_FMC_NL*%
X281660000Y-113210000D03*
%TO.N,GND*%
X284200000Y-110670000D03*
X281660000Y-110670000D03*
%TO.N,5V_AAM*%
X284200000Y-108130000D03*
%TO.N,unconnected-(U1A-PA15-PadCN11_17)*%
X281660000Y-108130000D03*
%TO.N,unconnected-(U1A-3V3-PadCN11_16)*%
X284200000Y-105590000D03*
%TO.N,unconnected-(U1A-PA14-PadCN11_15)*%
X281660000Y-105590000D03*
%TO.N,unconnected-(U1A-NRST-PadCN11_14)*%
X284200000Y-103050000D03*
%TO.N,unconnected-(U1A-PA13-PadCN11_13)*%
X281660000Y-103050000D03*
%TO.N,unconnected-(U1A-IOREF-PadCN11_12)*%
X284200000Y-100510000D03*
%TO.N,unconnected-(U1A-PF7-PadCN11_11)*%
X281660000Y-100510000D03*
%TO.N,unconnected-(U1A-NC-PadCN11_10)*%
X284200000Y-97970000D03*
%TO.N,unconnected-(U1A-PF6-PadCN11_9)*%
X281660000Y-97970000D03*
%TO.N,GND*%
X284200000Y-95430000D03*
%TO.N,unconnected-(U1A-BOOT0-PadCN11_7)*%
X281660000Y-95430000D03*
%TO.N,unconnected-(U1A-5V_EXT-PadCN11_6)*%
X284200000Y-92890000D03*
%TO.N,unconnected-(U1A-3V3_VDD-PadCN11_5)*%
X281660000Y-92890000D03*
%TO.N,AAM_DBG_RX*%
X284200000Y-90350000D03*
%TO.N,AAM_DBG_TX*%
X281660000Y-90350000D03*
%TO.N,AAM_CMD_RX*%
X284200000Y-87810000D03*
D15*
%TO.N,AAM_CMD_TX*%
X281660000Y-87810000D03*
D14*
%TO.N,unconnected-(U1F-D35{slash}TIMER_C_PWM3-PadCN10_34)*%
X337540000Y-156390000D03*
%TO.N,unconnected-(U1F-D34{slash}TIMER_B_ETR-PadCN10_33)*%
X335000000Y-156390000D03*
%TO.N,unconnected-(U1F-D36{slash}TIMER_C_PWM2-PadCN10_32)*%
X337540000Y-153850000D03*
%TO.N,unconnected-(U1F-D33{slash}TIMER_D_PWM1-PadCN10_31)*%
X335000000Y-153850000D03*
%TO.N,unconnected-(U1F-D37{slash}TIMER_A_BKIN1-PadCN10_30)*%
X337540000Y-151310000D03*
%TO.N,unconnected-(U1F-D32{slash}TIMER_C_PWM1-PadCN10_29)*%
X335000000Y-151310000D03*
%TO.N,unconnected-(U1F-D38{slash}TIMER_A_BKIN2-PadCN10_28)*%
X337540000Y-148770000D03*
%TO.N,Net-(U1F-GND_CN10-PadCN10_17)*%
X335000000Y-148770000D03*
%TO.N,unconnected-(U1F-D39{slash}TIMER_A_PWM3N-PadCN10_26)*%
X337540000Y-146230000D03*
%TO.N,unconnected-(U1F-D31{slash}QSPI_BK1_IO2-PadCN10_25)*%
X335000000Y-146230000D03*
%TO.N,unconnected-(U1F-D40{slash}TIMER_A_PWM2N-PadCN10_24)*%
X337540000Y-143690000D03*
%TO.N,unconnected-(U1F-D30{slash}QSPI_BK1_IO0-PadCN10_23)*%
X335000000Y-143690000D03*
%TO.N,Net-(U1F-GND_CN10-PadCN10_17)*%
X337540000Y-141150000D03*
%TO.N,unconnected-(U1F-D29{slash}QSPI_BK1_IO1-PadCN10_21)*%
X335000000Y-141150000D03*
%TO.N,unconnected-(U1F-D41{slash}TIMER_A_ETR-PadCN10_20)*%
X337540000Y-138610000D03*
%TO.N,unconnected-(U1F-D28{slash}QSPI_BK1_IO3-PadCN10_19)*%
X335000000Y-138610000D03*
%TO.N,unconnected-(U1F-D42{slash}TIMER_A_PWM1N-PadCN10_18)*%
X337540000Y-136070000D03*
%TO.N,Net-(U1F-GND_CN10-PadCN10_17)*%
X335000000Y-136070000D03*
%TO.N,unconnected-(U1F-D0{slash}USART_A_RX-PadCN10_16)*%
X337540000Y-133530000D03*
%TO.N,unconnected-(U1F-D27{slash}QSPI_CLK-PadCN10_15)*%
X335000000Y-133530000D03*
%TO.N,unconnected-(U1F-D1{slash}USART_A_TX-PadCN10_14)*%
X337540000Y-130990000D03*
%TO.N,unconnected-(U1F-D26{slash}QSPI_CS-PadCN10_13)*%
X335000000Y-130990000D03*
%TO.N,unconnected-(U1F-D2{slash}IO-PadCN10_12)*%
X337540000Y-128450000D03*
%TO.N,unconnected-(U1F-A8{slash}ADC_C_IN-PadCN10_11)*%
X335000000Y-128450000D03*
%TO.N,unconnected-(U1F-D3{slash}TIMER_A_PWM3-PadCN10_10)*%
X337540000Y-125910000D03*
%TO.N,unconnected-(U1F-A7{slash}ADC_B_IN-PadCN10_9)*%
X335000000Y-125910000D03*
%TO.N,unconnected-(U1F-D4{slash}IO-PadCN10_8)*%
X337540000Y-123370000D03*
%TO.N,unconnected-(U1F-A6{slash}ADC_A_IN-PadCN10_7)*%
X335000000Y-123370000D03*
%TO.N,unconnected-(U1F-D5{slash}TIMER_A_PWM2-PadCN10_6)*%
X337540000Y-120830000D03*
%TO.N,Net-(U1F-GND_CN10-PadCN10_17)*%
X335000000Y-120830000D03*
%TO.N,unconnected-(U1F-D6{slash}TIMER_A_PWM1-PadCN10_4)*%
X337540000Y-118290000D03*
%TO.N,unconnected-(U1F-AGND_CN10-PadCN10_3)*%
X335000000Y-118290000D03*
%TO.N,unconnected-(U1F-D7{slash}IO-PadCN10_2)*%
X337540000Y-115750000D03*
D15*
%TO.N,unconnected-(U1F-AVDD-PadCN10_1)*%
X335000000Y-115750000D03*
D14*
%TO.N,unconnected-(U1D-D64{slash}IO-PadCN9_30)*%
X291820000Y-156390000D03*
%TO.N,unconnected-(U1D-D65{slash}IO-PadCN9_29)*%
X289280000Y-156390000D03*
%TO.N,unconnected-(U1D-D63{slash}SAI_B_FS-PadCN9_28)*%
X291820000Y-153850000D03*
%TO.N,unconnected-(U1D-D66{slash}CAN_TX-PadCN9_27)*%
X289280000Y-153850000D03*
%TO.N,unconnected-(U1D-D62{slash}SAI_B_MCLK-PadCN9_26)*%
X291820000Y-151310000D03*
%TO.N,unconnected-(U1D-D67{slash}CAN_RX-PadCN9_25)*%
X289280000Y-151310000D03*
%TO.N,unconnected-(U1D-D61{slash}SAI_B_SCK-PadCN9_24)*%
X291820000Y-148770000D03*
%TO.N,Net-(U1D-GND_CN9-PadCN9_12)*%
X289280000Y-148770000D03*
%TO.N,unconnected-(U1D-D60{slash}SAI_B_SD-PadCN9_22)*%
X291820000Y-146230000D03*
%TO.N,unconnected-(U1D-D68{slash}I2C_B_SDA-PadCN9_21)*%
X289280000Y-146230000D03*
%TO.N,unconnected-(U1D-D59{slash}SAI_A_SD-PadCN9_20)*%
X291820000Y-143690000D03*
%TO.N,unconnected-(U1D-D69{slash}I2C_B_SCL-PadCN9_19)*%
X289280000Y-143690000D03*
%TO.N,unconnected-(U1D-D58{slash}SAI_A_SCK-PadCN9_18)*%
X291820000Y-141150000D03*
%TO.N,unconnected-(U1D-D70{slash}I2C_B_SMBA-PadCN9_17)*%
X289280000Y-141150000D03*
%TO.N,unconnected-(U1D-D57{slash}SAI_A_FS-PadCN9_16)*%
X291820000Y-138610000D03*
%TO.N,unconnected-(U1D-D71{slash}COMP2_INP-PadCN9_15)*%
X289280000Y-138610000D03*
%TO.N,unconnected-(U1D-D56{slash}SAI_A_MCLK-PadCN9_14)*%
X291820000Y-136070000D03*
%TO.N,unconnected-(U1D-D72{slash}COMP1_INP-PadCN9_13)*%
X289280000Y-136070000D03*
%TO.N,Net-(U1D-GND_CN9-PadCN9_12)*%
X291820000Y-133530000D03*
%TO.N,unconnected-(U1D-A5{slash}ADC3_INP6{slash}I2C1_SCL-PadCN9_11)*%
X289280000Y-133530000D03*
%TO.N,unconnected-(U1D-D55{slash}USART_B_CTS-PadCN9_10)*%
X291820000Y-130990000D03*
%TO.N,unconnected-(U1D-A4{slash}ADC123_INP12{slash}I2C1_SDA-PadCN9_9)*%
X289280000Y-130990000D03*
%TO.N,unconnected-(U1D-D54{slash}USART_B_RTS-PadCN9_8)*%
X291820000Y-128450000D03*
%TO.N,unconnected-(U1D-A3{slash}ADC12_INP5-PadCN9_7)*%
X289280000Y-128450000D03*
%TO.N,unconnected-(U1D-D53{slash}USART_B_TX-PadCN9_6)*%
X291820000Y-125910000D03*
%TO.N,unconnected-(U1D-A2{slash}ADC12_INP13-PadCN9_5)*%
X289280000Y-125910000D03*
%TO.N,unconnected-(U1D-D52{slash}USART_B_RX-PadCN9_4)*%
X291820000Y-123370000D03*
%TO.N,unconnected-(U1D-A1{slash}ADC123_INP10-PadCN9_3)*%
X289280000Y-123370000D03*
%TO.N,unconnected-(U1D-D51{slash}USART_B_SCLK-PadCN9_2)*%
X291820000Y-120830000D03*
D15*
%TO.N,unconnected-(U1D-A0{slash}ADC12_INP15-PadCN9_1)*%
X289280000Y-120830000D03*
D14*
%TO.N,unconnected-(U1C-D50{slash}IO-PadCN8_16)*%
X291820000Y-115750000D03*
%TO.N,unconnected-(U1C-VIN_CN8-PadCN8_15)*%
X289280000Y-115750000D03*
%TO.N,unconnected-(U1C-D49{slash}IO-PadCN8_14)*%
X291820000Y-113210000D03*
%TO.N,Net-(U1C-GND_CN8-PadCN8_11)*%
X289280000Y-113210000D03*
%TO.N,unconnected-(U1C-D48{slash}SDMMC_CMD-PadCN8_12)*%
X291820000Y-110670000D03*
%TO.N,Net-(U1C-GND_CN8-PadCN8_11)*%
X289280000Y-110670000D03*
%TO.N,unconnected-(U1C-D47{slash}SDMMC_CK-PadCN8_10)*%
X291820000Y-108130000D03*
%TO.N,unconnected-(U1C-5V_CN8-PadCN8_9)*%
X289280000Y-108130000D03*
%TO.N,unconnected-(U1C-D46{slash}SDMMC_D3-PadCN8_8)*%
X291820000Y-105590000D03*
%TO.N,unconnected-(U1C-3V3_CN8-PadCN8_7)*%
X289280000Y-105590000D03*
%TO.N,unconnected-(U1C-D45{slash}SDMMC_D2-PadCN8_6)*%
X291820000Y-103050000D03*
%TO.N,unconnected-(U1C-NRST_CN8-PadCN8_5)*%
X289280000Y-103050000D03*
%TO.N,unconnected-(U1C-D44{slash}SDMMC_D1{slash}I2S_A_CKIN-PadCN8_4)*%
X291820000Y-100510000D03*
%TO.N,unconnected-(U1C-IOREF_CN8-PadCN8_3)*%
X289280000Y-100510000D03*
%TO.N,unconnected-(U1C-D43{slash}SDMMC_D0-PadCN8_2)*%
X291820000Y-97970000D03*
D15*
%TO.N,unconnected-(U1C-NC_CN8-PadCN8_1)*%
X289280000Y-97970000D03*
D14*
%TO.N,unconnected-(U1E-D8{slash}IO-PadCN7_20)*%
X337540000Y-111686000D03*
%TO.N,unconnected-(U1E-D25{slash}SPI_B_MISO-PadCN7_19)*%
X335000000Y-111686000D03*
%TO.N,unconnected-(U1E-D9{slash}TIMER_B_PWM2-PadCN7_18)*%
X337540000Y-109146000D03*
%TO.N,unconnected-(U1E-D24{slash}SPI_B_NSS-PadCN7_17)*%
X335000000Y-109146000D03*
%TO.N,unconnected-(U1E-D10{slash}SPI_A_CS{slash}TIM_B_PWM3-PadCN7_16)*%
X337540000Y-106606000D03*
%TO.N,unconnected-(U1E-D23{slash}I2S_B_CK{slash}SPI_B_SCK-PadCN7_15)*%
X335000000Y-106606000D03*
%TO.N,unconnected-(U1E-D11{slash}SPI_A_MOSI{slash}TIM_E_PWM1-PadCN7_14)*%
X337540000Y-104066000D03*
%TO.N,unconnected-(U1E-D22{slash}I2S_B_SD{slash}SPI_B_MOSI-PadCN7_13)*%
X335000000Y-104066000D03*
%TO.N,unconnected-(U1E-D12{slash}SPI_A_MISO-PadCN7_12)*%
X337540000Y-101526000D03*
%TO.N,unconnected-(U1E-D21{slash}I2S_B_MCK-PadCN7_11)*%
X335000000Y-101526000D03*
%TO.N,unconnected-(U1E-D13{slash}SPI_A_SCK-PadCN7_10)*%
X337540000Y-98986000D03*
%TO.N,unconnected-(U1E-D20{slash}I2S_B_WS-PadCN7_9)*%
X335000000Y-98986000D03*
%TO.N,unconnected-(U1E-GND_CN7-PadCN7_8)*%
X337540000Y-96446000D03*
%TO.N,unconnected-(U1E-D19{slash}I2S_A_WS-PadCN7_7)*%
X335000000Y-96446000D03*
%TO.N,unconnected-(U1E-VREFP_CN7-PadCN7_6)*%
X337540000Y-93906000D03*
%TO.N,unconnected-(U1E-D18{slash}I2S_A_CK-PadCN7_5)*%
X335000000Y-93906000D03*
%TO.N,unconnected-(U1E-D14{slash}I2C_A_SDA-PadCN7_4)*%
X337540000Y-91366000D03*
%TO.N,unconnected-(U1E-D17{slash}I2S_A_SD-PadCN7_3)*%
X335000000Y-91366000D03*
%TO.N,unconnected-(U1E-D15{slash}I2C_A_SCL-PadCN7_2)*%
X337540000Y-88826000D03*
D15*
%TO.N,unconnected-(U1E-D16{slash}I2S_A_MCK-PadCN7_1)*%
X335000000Y-88826000D03*
%TD*%
D10*
%TO.N,GND*%
%TO.C,J4*%
X406700000Y-53800000D03*
%TO.N,TDM_DBG_RX*%
X405700000Y-53800000D03*
D11*
%TO.N,TDM_DBG_TX*%
X404700000Y-53800000D03*
%TD*%
D12*
%TO.N,Net-(U19-A)*%
%TO.C,U19*%
X234620000Y-79240000D03*
%TO.N,Net-(U19-B)*%
X234620000Y-81780000D03*
%TO.N,Net-(U19-C)*%
X234620000Y-84320000D03*
%TO.N,Net-(U19-DP)*%
X234620000Y-86860000D03*
%TO.N,GND*%
X234620000Y-89400000D03*
%TO.N,Net-(U19-D)*%
X229540000Y-89400000D03*
%TO.N,Net-(U19-E)*%
X229540000Y-86860000D03*
%TO.N,Net-(U19-G)*%
X229540000Y-84320000D03*
%TO.N,Net-(U19-F)*%
X229540000Y-81780000D03*
D24*
%TO.N,GND*%
X229540000Y-79240000D03*
%TD*%
D12*
%TO.N,unconnected-(U27-Rs-Pad8)*%
%TO.C,U27*%
X493680000Y-189120000D03*
%TO.N,/CAN+*%
X493680000Y-186580000D03*
%TO.N,/CAN-*%
X493680000Y-184040000D03*
%TO.N,unconnected-(U27-Vref-Pad5)*%
X493680000Y-181500000D03*
%TO.N,UUM_CAN_TD*%
X501300000Y-181500000D03*
%TO.N,VDD_UUM*%
X501300000Y-184040000D03*
%TO.N,GND*%
X501300000Y-186580000D03*
D25*
%TO.N,UUM_CAN_RD*%
X501300000Y-189120000D03*
%TD*%
D12*
%TO.N,Net-(U18-A)*%
%TO.C,U18*%
X252000000Y-79240000D03*
%TO.N,Net-(U18-B)*%
X252000000Y-81780000D03*
%TO.N,Net-(U18-C)*%
X252000000Y-84320000D03*
%TO.N,Net-(U18-DP)*%
X252000000Y-86860000D03*
%TO.N,GND*%
X252000000Y-89400000D03*
%TO.N,Net-(U18-D)*%
X246920000Y-89400000D03*
%TO.N,Net-(U18-E)*%
X246920000Y-86860000D03*
%TO.N,Net-(U18-G)*%
X246920000Y-84320000D03*
%TO.N,Net-(U18-F)*%
X246920000Y-81780000D03*
D24*
%TO.N,GND*%
X246920000Y-79240000D03*
%TD*%
D10*
%TO.N,Net-(J15-Pin_1)*%
%TO.C,J15*%
X556825000Y-189000000D03*
D11*
X556825000Y-188000000D03*
%TD*%
D26*
%TO.N,TDM_LED_FAIL*%
X488100000Y-152600000D03*
%TO.N,TDM_LED_WARN*%
X488100000Y-148500000D03*
%TO.N,TDM_LED_OK*%
X549800000Y-93000000D03*
X549800000Y-90500000D03*
X488050000Y-144000000D03*
%TO.N,Net-(J11-Pin_1)*%
X542300000Y-180300000D03*
X542300000Y-181600000D03*
X553450000Y-182050000D03*
X553000000Y-178900000D03*
%TO.N,Net-(J10-Pin_1)*%
X542300000Y-175000000D03*
X553500000Y-175400000D03*
X542300000Y-173700000D03*
X553000000Y-172300000D03*
%TO.N,Net-(J7-Pin_1)*%
X553020000Y-165720000D03*
X542300000Y-167100000D03*
X542300000Y-168400000D03*
X553500000Y-168800000D03*
%TO.N,Net-(J6-Pin_1)*%
X542300000Y-160500000D03*
X553000000Y-159500000D03*
X542300000Y-161800000D03*
X552847546Y-162600000D03*
%TO.N,Net-(J5-Pin_1)*%
X542400000Y-155200000D03*
X553200000Y-153000000D03*
X553400000Y-156000000D03*
X542400000Y-153900000D03*
%TO.N,TDM_I2C1_SDA*%
X538900000Y-145000000D03*
X539200000Y-175460000D03*
X539200000Y-182060000D03*
X539200000Y-168960000D03*
X520800000Y-156300000D03*
X539300000Y-188860000D03*
X539200000Y-162360000D03*
X520798900Y-148460000D03*
X539300000Y-155700000D03*
%TO.N,Net-(J15-Pin_1)*%
X542300000Y-188300000D03*
X542300000Y-187000000D03*
X553500000Y-189200000D03*
X552400000Y-186100000D03*
%TO.N,TDM_I2C1_SCL*%
X539100000Y-163660000D03*
X520800000Y-155100000D03*
X539160000Y-176760000D03*
X539160000Y-170060000D03*
X539160000Y-183260000D03*
X539300000Y-156960000D03*
X539260000Y-190060000D03*
X529700000Y-145000000D03*
X520798900Y-147260000D03*
%TO.N,Net-(U9B-PC7)*%
X549700000Y-139900000D03*
%TO.N,GND*%
X549800000Y-154200000D03*
X544095000Y-176260000D03*
X544095000Y-156000000D03*
X543995000Y-182860000D03*
X528697000Y-157000000D03*
X551620000Y-171910000D03*
X496400000Y-155900000D03*
X551620000Y-178310000D03*
X549700000Y-180300000D03*
X512300000Y-152400000D03*
X512300000Y-153700000D03*
X551600000Y-192200000D03*
X549700000Y-166900000D03*
X496400000Y-147400000D03*
X551620000Y-158810000D03*
X528647000Y-170300000D03*
X528697000Y-176950000D03*
X512300000Y-148400000D03*
X544095000Y-169660000D03*
X512300000Y-156200000D03*
X549700000Y-187000000D03*
X544100000Y-189600000D03*
X496400000Y-143200000D03*
X549700000Y-160200000D03*
X549700000Y-173500000D03*
X528750000Y-190100000D03*
X549700000Y-193300000D03*
X528647000Y-183550000D03*
X496400000Y-151700000D03*
X512300000Y-155000000D03*
X551620000Y-165210000D03*
X551620000Y-185210000D03*
X512300000Y-147100000D03*
X512300000Y-144500000D03*
X528597000Y-163700000D03*
X543995000Y-163060000D03*
%TD*%
D27*
%TO.N,DSM_DBG_RX*%
X393250000Y-53875000D02*
X393250000Y-56500000D01*
X393250000Y-56500000D02*
X393750000Y-57000000D01*
X393750000Y-57000000D02*
X418500000Y-57000000D01*
X418500000Y-57000000D02*
X420750000Y-59250000D01*
X420750000Y-59250000D02*
X420750000Y-88590000D01*
X420750000Y-88590000D02*
X418920000Y-90420000D01*
%TO.N,DSM_DBG_TX*%
X392250000Y-53875000D02*
X392250000Y-58000000D01*
X392200000Y-53800000D02*
X392250000Y-53850000D01*
%TO.N,DSM_DBG_RX*%
X393250000Y-53850000D02*
X393200000Y-53800000D01*
%TO.N,TDM_LED_OK*%
X549800000Y-90500000D02*
X549800000Y-93000000D01*
%TO.N,DSM_DBG_TX*%
X392250000Y-58000000D02*
X393000000Y-58750000D01*
X417000000Y-58750000D02*
X417750000Y-59500000D01*
X417750000Y-89050000D02*
X416380000Y-90420000D01*
X417750000Y-59500000D02*
X417750000Y-89050000D01*
X393000000Y-58750000D02*
X417000000Y-58750000D01*
%TO.N,Net-(J11-Pin_1)*%
X543500000Y-179100000D02*
X552800000Y-179100000D01*
X542250000Y-181650000D02*
X542950000Y-180950000D01*
X542300000Y-180300000D02*
X543500000Y-179100000D01*
X542950000Y-180950000D02*
X552350000Y-180950000D01*
X552800000Y-179100000D02*
X553000000Y-178900000D01*
X552350000Y-180950000D02*
X553450000Y-182050000D01*
%TO.N,Net-(J10-Pin_1)*%
X543300000Y-172700000D02*
X552600000Y-172700000D01*
X542300000Y-175000000D02*
X542700000Y-174600000D01*
X542700000Y-174600000D02*
X552700000Y-174600000D01*
X552700000Y-174600000D02*
X553500000Y-175400000D01*
X552600000Y-172700000D02*
X553000000Y-172300000D01*
X542300000Y-173700000D02*
X543300000Y-172700000D01*
%TO.N,Net-(J7-Pin_1)*%
X542320000Y-167120000D02*
X543440000Y-166000000D01*
X552700000Y-168000000D02*
X542700000Y-168000000D01*
X543440000Y-166000000D02*
X552740000Y-166000000D01*
X552740000Y-166000000D02*
X553020000Y-165720000D01*
X553500000Y-168800000D02*
X552700000Y-168000000D01*
X542700000Y-168000000D02*
X542300000Y-168400000D01*
%TO.N,Net-(J6-Pin_1)*%
X552847546Y-162600000D02*
X551100000Y-162600000D01*
X543000000Y-161100000D02*
X542300000Y-161800000D01*
X543300000Y-159500000D02*
X553000000Y-159500000D01*
X543000000Y-161100000D02*
X549600000Y-161100000D01*
X551100000Y-162600000D02*
X549600000Y-161100000D01*
X542300000Y-160500000D02*
X543300000Y-159500000D01*
%TO.N,Net-(J5-Pin_1)*%
X553000000Y-152800000D02*
X543500000Y-152800000D01*
X547400000Y-157000000D02*
X544200000Y-157000000D01*
X543500000Y-152800000D02*
X542400000Y-153900000D01*
X553400000Y-156000000D02*
X548400000Y-156000000D01*
X544200000Y-157000000D02*
X542400000Y-155200000D01*
X548400000Y-156000000D02*
X547400000Y-157000000D01*
X553200000Y-153000000D02*
X553000000Y-152800000D01*
%TO.N,TDM_DBG_TX*%
X406000000Y-56250000D02*
X404697064Y-54947064D01*
X552320000Y-130180000D02*
X553750000Y-128750000D01*
X404697064Y-53802936D02*
X404700000Y-53800000D01*
X561250000Y-128750000D02*
X562500000Y-127500000D01*
X413000000Y-55000000D02*
X411750000Y-56250000D01*
X411750000Y-56250000D02*
X406000000Y-56250000D01*
X562500000Y-127500000D02*
X562500000Y-60750000D01*
X404697064Y-54947064D02*
X404697064Y-53802936D01*
X562500000Y-60750000D02*
X556750000Y-55000000D01*
X556750000Y-55000000D02*
X413000000Y-55000000D01*
X553750000Y-128750000D02*
X561250000Y-128750000D01*
%TO.N,TDM_DBG_RX*%
X405700000Y-54450000D02*
X406250000Y-55000000D01*
X552320000Y-132720000D02*
X553540000Y-131500000D01*
X565000000Y-127750000D02*
X565000000Y-60000000D01*
X410500000Y-55000000D02*
X412500000Y-53000000D01*
X558000000Y-53000000D02*
X556750000Y-53000000D01*
X553540000Y-131500000D02*
X561250000Y-131500000D01*
X412500000Y-53000000D02*
X556750000Y-53000000D01*
X406250000Y-55000000D02*
X410500000Y-55000000D01*
X565000000Y-60000000D02*
X558000000Y-53000000D01*
X561250000Y-131500000D02*
X565000000Y-127750000D01*
X405700000Y-53800000D02*
X405700000Y-54450000D01*
%TO.N,Net-(J15-Pin_1)*%
X542600000Y-188000000D02*
X552300000Y-188000000D01*
X552400000Y-186100000D02*
X543200000Y-186100000D01*
X552300000Y-188000000D02*
X553500000Y-189200000D01*
X543200000Y-186100000D02*
X542300000Y-187000000D01*
X542300000Y-188300000D02*
X542600000Y-188000000D01*
%TO.N,TDM_I2C1_SCL*%
X531100000Y-157000000D02*
X539260000Y-157000000D01*
X529700000Y-100200000D02*
X529700000Y-145000000D01*
X529700000Y-147500000D02*
X529700000Y-155200000D01*
X529700000Y-162300000D02*
X531100000Y-163700000D01*
X529700000Y-181840000D02*
X531160000Y-183300000D01*
X529700000Y-168640000D02*
X531160000Y-170100000D01*
X531260000Y-190100000D02*
X539220000Y-190100000D01*
X539260000Y-157000000D02*
X539300000Y-156960000D01*
X531100000Y-163700000D02*
X539060000Y-163700000D01*
X540600000Y-89300000D02*
X529700000Y-100200000D01*
X529700000Y-155600000D02*
X529700000Y-162300000D01*
X552320000Y-89540000D02*
X552080000Y-89300000D01*
X531200000Y-176800000D02*
X539160000Y-176800000D01*
X529700000Y-168640000D02*
X529700000Y-181840000D01*
X539060000Y-163700000D02*
X539100000Y-163660000D01*
X529700000Y-155200000D02*
X529700000Y-155600000D01*
X521038900Y-147500000D02*
X520798900Y-147260000D01*
X529700000Y-181840000D02*
X529700000Y-188540000D01*
X529700000Y-155600000D02*
X531100000Y-157000000D01*
X529700000Y-145000000D02*
X529700000Y-147500000D01*
X529740000Y-175340000D02*
X531200000Y-176800000D01*
X529700000Y-162300000D02*
X529700000Y-168640000D01*
X529700000Y-188540000D02*
X531260000Y-190100000D01*
X531160000Y-170100000D02*
X539120000Y-170100000D01*
X529700000Y-155200000D02*
X520900000Y-155200000D01*
X531160000Y-183300000D02*
X539120000Y-183300000D01*
X529700000Y-147500000D02*
X521038900Y-147500000D01*
X520900000Y-155200000D02*
X520800000Y-155100000D01*
X552080000Y-89300000D02*
X540600000Y-89300000D01*
%TD*%
M02*
